<?xml version="1.0" encoding="UTF-8"?>
<svg id="Camada_1" data-name="Camada 1" xmlns="http://www.w3.org/2000/svg" viewBox="0 0 1080 1080">
  <defs>
    <style>
      .cls-1 {
        fill: #fff7ee;
      }

      .cls-2 {
        fill: #20668a;
      }
    </style>
  </defs>
  <rect class="cls-2" y="0" width="1080" height="1080"/>
  <g>
    <g>
      <path class="cls-1" d="M864.94,331.94c1.33.7,12.06,10.66,14.88,14.59,7.29,10.18,9.03,22.92,3.17,34.3-4.88,9.49-13.82,15.87-21.47,22.97-7.97,7.39-14.31,18.13-13.54,29.67-.09-1.35,2.34-4.22,2.99-5.27,2.44-3.92,5-8.17,8.08-11.63,5.32-5.97,13.02-9.83,21.01-10.37,7.79-.53,14.75,4.2,19.59,9.94l16.8,3.98s-15.37,2.56-18.22,6.26c-2.85,3.7-4.76,11.62-4.27,21.92,2.22,46.73-56.68,67.18-56.68,67.18,7.85.63,20.25.65,34.51-3.67,20.18-6.11,33.17-17.58,39.14-23.61,10.66-10.77,16.55-22,19.76-29.61,3.01-7.26,7.15-19.79,7.15-35.82,0-8.51-1.16-22.86-8.4-38.69-8.69-19.01-21.49-30-26.66-34.07-14.98-11.8-29.82-16.41-37.83-18.07Z"/>
      <path class="cls-1" d="M829.3,514.5s13.89-10.93,17.83-15.93c10.55-13.38,9.19-34.01-1.48-48.03-4.48-5.89-11.05-9.74-17.31-13.69-9.13-5.75-18.16-12.18-24.21-21.1-9.16-13.51-9.66-34.7-5.87-50.41,1.77-7.33,4.97-14.28,9.17-20.52,1.64-2.43,5.53-9.4,8.55-10.37-6.63,2.12-14.65,5.5-22.9,11.02-20.93,13.99-30.66,33.24-34.68,42.87-2.65,6.69-5.81,16.89-6.46,29.63-1.18,23.04,6.58,40.17,9.42,45.9,10.39,20.9,26.14,32.54,34.56,38.05,15.02,9.82,33.39,12.59,33.39,12.59Z"/>
    </g>
    <g>
      <path class="cls-1" d="M198.91,602.94c2.19-3.41,4.66-7.13,7.45-11.19,2.73-3.99,5.51-8.19,8.27-12.53,1.34-2.1,3.08-4.43,5.21-6.86,2.1-2.4,4.34-4.89,6.72-7.4,2.38-2.51,4.75-5.02,7.15-7.51,2.4-2.46,4.53-4.75,6.41-6.83,1.86-2.05,3.38-3.87,4.53-5.43,1.42-1.94,1.39-2.57,1.39-2.59-.05-.46-.27-1.09-.68-1.8-.44-.76-.99-1.5-1.67-2.16-.65-.65-1.34-1.15-2.08-1.5-.57-.27-1.09-.35-1.61-.19-.52.14-1.69.71-3.88,3.06-1.85,1.97-3.87,4.34-6.03,7.07-2.21,2.76-4.45,5.73-6.77,8.87-2.32,3.17-4.45,6.09-6.39,8.79-1.93,2.73-3.63,4.97-4.99,6.77-2.19,2.84-2.7,3.17-3.28,3.3-.95.25-1.96.05-2.92-.49-.33-.19-.63-.3-.9-.3h-.14c-1.8.19-4.29,1.23-7.43,3.08-3.28,1.91-6.8,4.37-10.54,7.32-3.79,3-7.64,6.33-11.41,9.91-3.79,3.6-7.21,7.21-10.18,10.76-2.95,3.49-5.35,6.86-7.12,9.91-1.67,2.89-2.43,5.22-2.24,6.88.14,1.17.49,2.32,1.09,3.38.6,1.06,1.39,2.05,2.29,2.84.88.79,1.91,1.4,3.03,1.78,1.12.38,2.27.52,3.53.38,1.93-.22,3.9-.87,5.81-1.94,2.04-1.17,3.96-2.38,5.62-3.63,1.72-1.29,3.25-2.43,4.5-3.49,1.97-1.61,2.73-1.91,3.28-2.02.65-.05,1.12.16,1.83.6l1.48.9c.54.33,1.09.63,1.63.93.25.14.44.22.58.25.63-.3.87-.55.98-.65.19-.22.35-.44.38-.63.05-.14.08-.35,0-.79-.08-.54-.16-1.17-.22-1.89-.19-1.45.41-3.41,1.94-6.17,1.34-2.46,3.11-5.41,5.3-8.82l.05.03h0ZM186,607.37c-2.68,2.7-5.35,5.19-7.92,7.4-2.59,2.21-5.05,4.07-7.29,5.49-2.42,1.56-4.36,2.38-5.95,2.57l-1.88.22.41-1.86c.49-2.29,1.61-4.72,3.3-7.24,1.64-2.43,3.63-4.89,5.92-7.32,2.27-2.43,4.78-4.83,7.48-7.18,2.68-2.32,5.41-4.59,8.11-6.75,2.7-2.13,5.27-4.12,7.67-5.95,2.4-1.83,4.47-3.41,6.25-4.7l4.01-2.95-1.93,4.59c-.88,2.05-2.24,4.45-4.07,7.15-1.8,2.68-3.96,5.43-6.39,8.24-2.38,2.76-4.94,5.54-7.67,8.3l-.05-.03h0Z"/>
      <path class="cls-1" d="M224.35,578.58c-3,2.62-5.9,5.6-8.65,8.84-2.76,3.25-5.21,6.58-7.32,9.91-2.07,3.3-3.71,6.56-4.91,9.69-1.15,3.06-1.67,5.73-1.5,7.95.05.93.38,1.83.93,2.76.6.95,1.37,1.8,2.24,2.51.9.71,1.91,1.23,3.03,1.61,1.1.35,2.13.52,3.08.44,1.34-.05,2.76-.46,4.21-1.23,1.61-.82,3.17-1.8,4.67-2.87,1.55-1.12,3.03-2.29,4.39-3.55,1.39-1.29,2.59-2.4,3.55-3.38l.46-.44.63.05c4.04.38,8.44-.08,13-1.39,4.61-1.31,9.14-3.06,13.41-5.21,4.28-2.16,8.24-4.59,11.74-7.18,3.47-2.59,6.11-5,7.86-7.18.87-1.09,1.47-2.13,1.74-3.14.22-.76.25-1.37.08-1.67-.05-.11-.44-.14-.87-.08-.6.08-1.74.49-3.77,2.02-2.13,1.67-4.64,3.49-7.48,5.46-2.84,1.97-5.84,3.85-8.9,5.6-3.11,1.78-6.25,3.33-9.31,4.59-3.17,1.31-6.2,2.1-8.98,2.32l-3.57.3,2.46-2.59c1.34-1.42,2.84-3.27,4.45-5.46,1.64-2.24,3.19-4.59,4.62-6.99,1.39-2.35,2.57-4.7,3.44-6.96.82-2.1,1.18-3.87,1.07-5.27-.05-1.14-.38-2.21-.93-3.28-.57-1.06-1.28-1.97-2.18-2.73-.9-.76-1.94-1.39-3.04-1.83-.93-.35-1.88-.54-2.84-.54h-.41c-2.29.14-4.86,1.01-7.65,2.57-2.87,1.61-5.84,3.77-8.82,6.36h.08ZM221.11,608.73c-1.28,1.61-2.78,3.06-4.42,4.29-1.61,1.23-3.36,2.32-5.16,3.28l-.8.41-.71-.57c-.76-.63-1.17-1.5-1.17-2.54,0-.63.27-1.42.9-2.68.52-1.01,1.09-2.1,1.74-3.28.66-1.18,1.31-2.27,1.99-3.28l2.43-3.71,5.9,7.18-.68.87-.03.03h0ZM241.39,576.68l1.53-.3.08,1.56c.08,1.56-.49,3.55-1.8,6.14-1.2,2.38-2.68,4.83-4.39,7.29-1.67,2.46-3.44,4.78-5.21,6.91-1.83,2.19-3.25,3.66-4.34,4.51l-.38.27h-.46c-.76,0-1.45-.25-2.05-.68-.46-.35-.9-.84-1.28-1.42-.38-.54-.66-1.14-.85-1.78-.19-.6-.3-1.14-.3-1.59-.08-1.97.6-4.15,2.02-6.5,1.34-2.16,3.03-4.29,5-6.3,1.97-1.99,4.07-3.77,6.28-5.27,2.32-1.56,4.32-2.48,6.11-2.84h.05Z"/>
      <path class="cls-1" d="M232.57,633.27c-25.5-2.7-33.91-2.51-58.2,4.89-5.84,1.78-26.21,8.41-30.09,11.63-3.61,3-2.24,7.02,1.34,8.44,8.6-1.01,16.54-17.48,66.07-20.23,10.37-.57,14.28.3,24.35,2.84,3.74.93,10.62,6.45,10.1-.95-.35-5.19-9.17-6.11-13.6-6.58l.03-.03Z"/>
    </g>
    <path class="cls-1" d="M297.47,626.17v-84.68c0-4.35-.66-8.69-2.07-12.79-1.8-5.23-4.21-8.55-10.46-8.55v-3.26h34.09l48,110.15h.43l39.47-110.15h35.76v3.26c-11.31,0-10.37,8.91-10.37,17.81v109.06c0,9.78.27,18.69,11.58,18.69v3.26h-46.2v-3.26c11.31,0,9.88-8.91,9.88-18.69v-112.76h-.43l-46.73,131.66h-3.84l-51.85-118.62h-.43v78.86c0,26.94.22,39.54,14.95,39.54v3.26h-34.13v-3.26c11.95,0,12.36-12.6,12.36-39.54ZM449.77,636.82v-54.53c0-8.91.26-18.47-9.74-18.47v-3.26c11.51,0,22.55-.44,30.16-2.17h3.26v78.86c0,15.43,7.17,22.59,17.38,22.59,9.12,0,18.68-9.34,22.59-22.59v-54.97c0-8.91.26-18.47-8.22-18.47v-3.26c9.99,0,21.03-.44,28.64-2.17h3.04v83.64c0,8.91.33,18.25,11.85,18.25v3.26c-11.3,0-20.54,2.6-29.23,6.95h-3.26l-.21-22.59h-.65c-5,11.73-16.95,22.81-33.24,22.81-23.46,0-32.37-16.51-32.37-33.89h0ZM557.06,647.03v-57.79c0-8.91.26-18.25-11.03-18.25v-3.26c11.51-.87,19.08-3.04,29.94-8.69h3.69v20.64c9.12-13.69,18.9-21.73,32.59-21.73,25.64,0,31.5,19.55,31.5,38.24v50.84c0,8.91-.54,18.69,10.76,18.69v3.26h-42.66v-3.26c9.99,0,8.22-9.78,8.22-18.69v-54.75c0-12.82-3.47-22.81-14.77-22.81s-21.29,10.86-24.55,19.99v57.57c0,8.91-.48,18.69,10.17,18.69v3.26h-43.05v-3.26c11.3,0,9.2-9.78,9.2-18.69h0ZM557.06,647.03v-57.79c0-8.91.26-18.25-11.03-18.25v-3.26c11.51-.87,19.08-3.04,29.94-8.69h3.69v20.64c9.12-13.69,18.9-21.73,32.59-21.73,25.64,0,31.5,19.55,31.5,38.24v50.84c0,8.91-.54,18.69,10.76,18.69v3.26h-42.66v-3.26c9.99,0,8.22-9.78,8.22-18.69v-54.75c0-12.82-3.47-22.81-14.77-22.81s-21.29,10.86-24.55,19.99v57.57c0,8.91-.48,18.69,10.17,18.69v3.26h-43.05v-3.26c11.3,0,9.2-9.78,9.2-18.69h0ZM653.93,614.67c0-37.15,19.99-56.7,45.41-56.7,9.34,0,17.81,1.96,24.77,5.43v-29.11c0-8.91.26-18.47-11.26-18.47v-3.26c12.17-.65,20.82-3.91,31.46-8.69h3.26v137.96c0,8.91,2.6,18.25,14.12,18.25v3.26c-11.3,0-22.81,2.82-31.5,7.6h-3.26l-.65-19.55h-.44c-4.34,9.78-15.43,20.21-29.11,20.21-26.94,0-42.8-19.55-42.8-56.92ZM678.27,614.88c0,34.76,7.17,49.75,22.37,49.75,9.99,0,19.12-12.17,23.46-22.81v-68.44c-5.43-6.08-13.25-9.34-22.16-9.34-14.99,0-23.68,16.08-23.68,50.84ZM755.55,614.88c0-37.37,16.73-56.92,47.36-56.92s47.37,19.55,47.37,56.92-16.73,56.7-47.37,56.7-47.36-19.55-47.36-56.7ZM779.88,614.88c0,35.41,6.74,52.36,23.03,52.36s23.03-16.95,23.03-52.36-6.74-52.79-23.03-52.79-23.03,17.38-23.03,52.79Z"/>
    <g>
      <path class="cls-1" d="M474.87,450.14v-50.09c0-18.41-5.78-37.68-31.04-37.68-13.49,0-23.12,7.92-32.11,21.41v-20.34h-3.64c-10.7,5.57-22.05,7.7-33.39,8.56v3.21c11.13,0,14.77,9.2,14.77,17.98v56.94c0,8.78-3.64,18.41-14.77,18.41v3.21h51.8v-3.21c-10.49,0-13.7-9.63-13.7-18.41v-56.73c3.21-8.99,13.06-19.69,24.19-19.69s14.56,9.85,14.56,22.48v53.94c0,8.78-3.21,18.41-13.06,18.41v3.21h51.16v-3.21c-11.13,0-14.77-9.63-14.77-18.41Z"/>
      <path class="cls-1" d="M653.92,381.64c0-8.99,5.14-14.99,16.05-14.99,11.56,0,21.83,10.7,28.25,26.33h2.57l.21-25.69c-7.28-1.93-17.34-4.92-31.04-4.92-20.55,0-34.04,10.28-34.04,26.76,0,32.11,58.48,41.27,58.48,63.75,0,13.49-14.17,16.95-23.59,16.95-14.99,0-27.4-12.84-33.61-30.18h-2.57v29.11c9.2,2.36,20.55,5.57,35.32,5.57,16.7,0,41.57-7.53,41.57-31.51,0-32.54-57.63-39.35-57.63-61.18h0Z"/>
      <path class="cls-1" d="M531.68,461.01c-8.13,0-15.68-3.37-15.68-13.86v-76.85h20.12v-5.57h-20.55v-28.47h-5.14l-11.61,17.34c-4.52,6.75-11.36,11.63-19.22,13.7v3h13.06v78.78c0,13.06,4.06,24.19,17.34,24.19,9.2,0,23.18-6.48,29.6-10.75l-.64-2.57c-2.78.64-5.14,1.07-7.28,1.07h0Z"/>
      <path class="cls-1" d="M583.32,362.38c-30.19,0-46.66,19.26-46.66,56.09s16.48,55.87,46.66,55.87,46.66-19.26,46.66-55.87-16.48-56.09-46.66-56.09ZM583.32,470.05c-16.05,0-22.69-16.7-22.69-51.59s6.64-52.02,22.69-52.02,22.69,17.13,22.69,52.02-6.64,51.59-22.69,51.59Z"/>
      <path class="cls-1" d="M320.1,362.5c29.11,0,36.39,15.2,36.39,24.96v40.44s.08-.02.11-.04v17.76c0,10.49,4.01,13.86,12.15,13.86,2.14,0,4.5-.42,7.28-1.07l.64,2.56c-6.43,4.28-16.86,10.75-26.06,10.75-11.23,0-15.87-7.97-17.03-18.34-7.56,13.79-19.47,19.55-30.6,19.55-13.91,0-25.9-8.13-25.9-23.55,0-27.4,35.11-40.54,56.09-42.26v-17.04c0-12.63-3.22-23.76-13.92-23.76-15.63,0-16.67,13.52-27.3,21.04-4.72,3.34-9.86,1.81-10.59-3.06-1.52-10.16,13.06-21.84,38.74-21.84ZM333.16,411.01c-20.12,2.57-33.61,20-33.61,34.77,0,9.42,5.78,13.27,12.84,13.27,8.13,0,16.06-5.18,20.87-14.06v-12.87s-.07-.02-.11-.03v-21.08ZM376.02,458.43h0s0,0,0,0c0,0,0,0,0,0Z"/>
      <path class="cls-1" d="M266.69,427.18c-6.23,26.91-27.83,40.95-43.87,40.95-22.91,0-38.11-22.48-38.11-73.42s14.13-70.64,35.11-70.64c14.81,0,35.99,13.46,43.09,33.09h3.59l-.39-32.44c-11.13-2.57-31.73-5.35-47.35-5.35-36.4,0-60.38,25.05-60.38,77.49s25.05,77.49,61.65,77.49c16.27,0,37.93-3.64,49.71-10.49l.19-36.66h-3.25,0Z"/>
    </g>
    <g>
      <path class="cls-1" d="M822.42,760.61c-4.66,0-8.62-1.57-11.8-4.75-3.18-3.18-4.75-7.1-4.75-11.71s1.61-8.62,4.88-11.89c3.27-3.27,7.19-4.92,11.8-4.92s8.58,1.61,11.84,4.88c3.27,3.27,4.88,7.19,4.88,11.8s-1.61,8.53-4.88,11.76c-3.27,3.22-7.23,4.83-11.98,4.83ZM822.55,755.69c3.22,0,5.92-1.09,8.14-3.31s3.35-5.01,3.35-8.32-1.13-6.18-3.35-8.4c-2.22-2.22-4.92-3.35-8.14-3.35s-5.92,1.13-8.14,3.4c-2.22,2.22-3.31,5.01-3.31,8.36s1.09,6.05,3.27,8.27c2.22,2.22,4.92,3.35,8.19,3.35Z"/>
      <path class="cls-1" d="M766.95,760.08h-4.96v-32.18h2.74l13.5,19.73,13.41-19.73h2.83v32.18h-5.05v-20.6l-10.5,15.33h-1.48l-10.5-15.33v20.6Z"/>
      <path class="cls-1" d="M739.64,760.61c-4.7,0-9.05-2.26-11.36-6.4l3.4-3.27c1.78,3.27,4.79,4.92,7.97,4.92s5.49-1.96,5.49-4.4c0-1.61-1.05-3-3.18-4.14-.52-.26-1.61-.74-3.26-1.44-1.61-.74-2.88-1.35-3.71-1.83-3.26-1.96-4.88-4.57-4.88-7.8,0-2.53.92-4.66,2.79-6.36,1.87-1.7,4.31-2.57,7.32-2.57,4.05,0,7.32,1.52,9.8,4.62l-3.09,3.44c-1.78-2.22-4-3.31-6.66-3.31-2.79,0-4.79,1.52-4.79,3.92,0,1.52.92,2.83,2.7,3.83.57.31,1.74.91,3.61,1.79,1.87.83,3.18,1.48,3.96,1.92,3.27,1.79,4.92,4.35,4.92,7.66,0,2.74-1.05,5.01-3.09,6.79-2.05,1.74-4.7,2.61-7.93,2.61Z"/>
      <path class="cls-1" d="M712.65,760.08v-32.18h5.01v32.18h-5.01Z"/>
      <path class="cls-1" d="M701.74,760.08h-6.05l-7.84-12.63h-4.27v12.63h-5.01v-32.18h11.36c3.35,0,5.92.96,7.71,2.87,1.78,1.92,2.7,4.22,2.7,6.92,0,4.22-2.53,8.01-7.19,9.28l8.58,13.11ZM689.94,732.65h-6.36v10.15h5.58c4.05,0,6.01-2.22,6.01-5.14s-1.92-5.01-5.23-5.01Z"/>
      <path class="cls-1" d="M653.5,760.65c-3.53,0-6.4-1.05-8.62-3.09-2.22-2.05-3.31-4.92-3.31-8.62v-21.03h5.01v20.38c0,4.88,2.57,7.45,6.92,7.45s6.88-2.74,6.88-7.45v-20.38h5.05v21.03c0,3.7-1.09,6.62-3.31,8.67s-5.09,3.05-8.62,3.05Z"/>
      <path class="cls-1" d="M617.22,760.08v-27.3h-9.41v-4.88h23.91v4.88h-9.4v27.3h-5.1Z"/>
      <path class="cls-1" d="M584.21,760.08h-20.6v-32.18h20.55v4.75h-15.55v8.75h14.41v4.75h-14.41v9.19h15.59v4.75Z"/>
      <path class="cls-1" d="M524.85,760.61c-4.7,0-9.06-2.26-11.37-6.4l3.4-3.27c1.79,3.27,4.79,4.92,7.97,4.92s5.48-1.96,5.48-4.4c0-1.61-1.04-3-3.18-4.14-.53-.26-1.61-.74-3.27-1.44-1.61-.74-2.87-1.35-3.7-1.83-3.27-1.96-4.88-4.57-4.88-7.8,0-2.53.92-4.66,2.79-6.36,1.87-1.7,4.31-2.57,7.32-2.57,4.05,0,7.32,1.52,9.8,4.62l-3.09,3.44c-1.79-2.22-4-3.31-6.66-3.31s-4.79,1.52-4.79,3.92c0,1.52.92,2.83,2.7,3.83.56.31,1.74.91,3.61,1.79,1.87.83,3.18,1.48,3.96,1.92,3.27,1.79,4.92,4.35,4.92,7.66,0,2.74-1.05,5.01-3.09,6.79-2.04,1.74-4.7,2.61-7.92,2.61Z"/>
      <path class="cls-1" d="M507.16,760.08h-5.4l-3.05-7.93h-11.85l-3.05,7.93h-5.4l12.8-32.18h3.26l12.67,32.18ZM497.19,747.54l-4.36-11.67-4.36,11.67h8.71Z"/>
      <path class="cls-1" d="M463.4,760.08v-32.18h5.01v32.18h-5.01Z"/>
      <path class="cls-1" d="M438.6,760.56c-4.66,0-8.58-1.52-11.75-4.62-3.18-3.09-4.79-7.01-4.79-11.84s1.61-8.88,4.88-12.02c3.26-3.18,7.19-4.75,11.8-4.75,2.92,0,5.58.65,8.06,1.92,2.48,1.26,4.4,2.92,5.79,5.01l-3.57,3.22c-2.66-3.53-6.01-5.27-10.14-5.27-3.27,0-6.01,1.13-8.27,3.4-2.22,2.26-3.35,5.1-3.35,8.49s1.09,6.18,3.31,8.36c2.22,2.18,4.96,3.27,8.27,3.27,4.22,0,7.71-1.74,10.36-5.23l3.57,3.14c-3,4.14-8.23,6.92-14.15,6.92Z"/>
      <path class="cls-1" d="M405.59,749.89v-21.99h4.97v32.18h-2.96l-18.42-21.82v21.82h-4.96v-32.18h2.61l18.77,21.99Z"/>
      <path class="cls-1" d="M358.81,725.55h-4.92l6.31-7.45h3.53l6.31,7.45h-5.05l-3.09-3.92-3.09,3.92ZM372.23,760.08h-20.6v-32.18h20.55v4.75h-15.55v8.75h14.41v4.75h-14.41v9.19h15.59v4.75Z"/>
      <path class="cls-1" d="M333.13,760.08v-32.18h5.01v32.18h-5.01Z"/>
      <path class="cls-1" d="M322.22,760.08h-6.05l-7.84-12.63h-4.27v12.63h-5.01v-32.18h11.37c3.35,0,5.92.96,7.71,2.87,1.79,1.92,2.7,4.22,2.7,6.92,0,4.22-2.53,8.01-7.19,9.28l8.58,13.11ZM310.42,732.65h-6.36v10.15h5.57c4.05,0,6.01-2.22,6.01-5.14s-1.92-5.01-5.23-5.01Z"/>
      <path class="cls-1" d="M287.08,760.08h-20.6v-32.18h20.55v4.75h-15.55v8.75h14.41v4.75h-14.41v9.19h15.59v4.75Z"/>
      <path class="cls-1" d="M233.9,727.9h11.1c3.53,0,6.18,1,7.97,3,1.83,1.96,2.74,4.35,2.74,7.19s-.96,5.18-2.83,7.14c-1.87,1.96-4.66,2.92-8.32,2.92h-5.66v11.93h-5.01v-32.18ZM238.91,743.54h5.79c3.88,0,5.92-2.53,5.92-5.53s-1.96-5.4-5.4-5.4h-6.31v10.93Z"/>
      <path class="cls-1" d="M202.74,760.08h-6.01l10.58-16.29-10.02-15.89h5.84l7.27,12.06,7.4-12.06h6.01l-10.41,15.89,10.45,16.29h-5.84l-7.62-12.28-7.66,12.28Z"/>
      <path class="cls-1" d="M188.36,760.08h-20.6v-32.18h20.55v4.75h-15.55v8.75h14.41v4.75h-14.41v9.19h15.59v4.75Z"/>
    </g>
  </g>
</svg>