<?xml version="1.0" encoding="UTF-8"?>
<svg id="Camada_1" data-name="Camada 1" xmlns="http://www.w3.org/2000/svg" viewBox="0 0 1080 1080">
  <defs>
    <style>
      .cls-1 {
        fill: #fff7ee;
      }

      .cls-2 {
        fill: #20668a;
      }
    </style>
  </defs>
  <rect class="cls-1" x="0" width="1080" height="1080"/>
  <rect class="cls-1" x="0" y="0" width="1080" height="1080"/>
  <g>
    <g>
      <path class="cls-2" d="M877.36,370.22c1.39.73,12.52,11.07,15.45,15.15,7.57,10.57,9.37,23.8,3.3,35.61-5.07,9.86-14.35,16.48-22.29,23.85-8.28,7.68-14.85,18.82-14.05,30.81-.1-1.4,2.43-4.38,3.11-5.47,2.54-4.07,5.19-8.49,8.39-12.08,5.53-6.2,13.52-10.21,21.81-10.77,8.09-.55,15.31,4.36,20.33,10.32l17.44,4.14s-15.96,2.66-18.92,6.5c-2.96,3.84-4.94,12.07-4.43,22.76,2.31,48.52-58.85,69.74-58.85,69.74,8.15.66,21.02.67,35.83-3.81,20.95-6.34,34.44-18.25,40.64-24.52,11.07-11.19,17.19-22.84,20.51-30.75,3.13-7.54,7.42-20.55,7.42-37.19,0-8.83-1.21-23.73-8.72-40.17-9.02-19.73-22.31-31.15-27.68-35.37-15.55-12.25-30.96-17.04-39.28-18.76Z"/>
      <path class="cls-2" d="M840.36,559.76s14.42-11.34,18.51-16.54c10.95-13.89,9.54-35.31-1.54-49.87-4.66-6.12-11.48-10.12-17.98-14.21-9.48-5.96-18.85-12.64-25.14-21.91-9.51-14.02-10.03-36.03-6.09-52.33,1.83-7.61,5.16-14.82,9.52-21.31,1.7-2.52,5.74-9.76,8.87-10.76-6.89,2.2-15.21,5.71-23.78,11.44-21.73,14.53-31.83,34.51-36.01,44.5-2.75,6.95-6.03,17.54-6.71,30.76-1.23,23.93,6.83,41.71,9.78,47.65,10.78,21.7,27.14,33.79,35.88,39.5,15.59,10.19,34.67,13.08,34.67,13.08Z"/>
    </g>
    <g>
      <path class="cls-2" d="M185.87,651.58c2.27-3.54,4.84-7.4,7.74-11.62,2.83-4.14,5.73-8.5,8.59-13.01,1.39-2.18,3.2-4.59,5.41-7.12,2.18-2.5,4.51-5.07,6.98-7.68,2.47-2.61,4.93-5.22,7.43-7.8,2.49-2.55,4.7-4.93,6.66-7.09,1.93-2.13,3.51-4.02,4.71-5.64,1.47-2.01,1.44-2.66,1.44-2.69-.06-.48-.28-1.13-.71-1.87-.45-.79-1.02-1.56-1.73-2.24-.68-.68-1.39-1.19-2.16-1.56-.59-.28-1.13-.37-1.67-.2-.54.14-1.76.74-4.03,3.17-1.92,2.04-4.02,4.51-6.26,7.34-2.3,2.86-4.62,5.95-7.03,9.21-2.41,3.29-4.62,6.32-6.64,9.13-2.01,2.83-3.77,5.16-5.18,7.03-2.27,2.95-2.81,3.29-3.41,3.43-.99.25-2.04.06-3.03-.51-.34-.2-.65-.31-.93-.31h-.14c-1.87.2-4.45,1.27-7.71,3.2-3.4,1.99-7.05,4.54-10.94,7.6-3.94,3.12-7.93,6.57-11.85,10.29-3.94,3.74-7.49,7.48-10.57,11.17-3.06,3.63-5.56,7.12-7.39,10.29-1.73,3-2.52,5.41-2.33,7.15.14,1.22.51,2.41,1.13,3.51.63,1.1,1.45,2.13,2.38,2.95.91.82,1.99,1.45,3.15,1.84,1.17.4,2.35.54,3.66.4,2.01-.23,4.05-.91,6.04-2.01,2.12-1.22,4.11-2.47,5.84-3.77,1.78-1.34,3.37-2.52,4.67-3.63,2.04-1.67,2.83-1.99,3.41-2.1.68-.06,1.16.17,1.9.62l1.53.93c.57.34,1.13.65,1.7.96.26.14.46.23.6.26.65-.31.91-.57,1.02-.68.2-.23.37-.45.4-.65.06-.14.08-.37,0-.82-.08-.57-.17-1.22-.23-1.96-.2-1.5.42-3.54,2.01-6.4,1.39-2.55,3.23-5.61,5.5-9.15l.06.03h0ZM172.46,656.18c-2.78,2.81-5.56,5.39-8.22,7.68-2.69,2.3-5.24,4.23-7.57,5.7-2.52,1.62-4.53,2.47-6.18,2.66l-1.95.23.42-1.93c.51-2.38,1.67-4.91,3.43-7.51,1.7-2.52,3.77-5.07,6.15-7.6,2.35-2.52,4.96-5.02,7.77-7.46,2.78-2.41,5.61-4.76,8.42-7,2.81-2.21,5.47-4.28,7.97-6.18,2.49-1.9,4.64-3.54,6.49-4.88l4.16-3.06-2.01,4.76c-.91,2.13-2.33,4.62-4.23,7.43-1.87,2.78-4.11,5.64-6.63,8.56-2.47,2.86-5.13,5.75-7.97,8.62l-.06-.03h0Z"/>
      <path class="cls-2" d="M212.29,626.29c-3.12,2.72-6.12,5.81-8.98,9.18-2.86,3.37-5.41,6.83-7.6,10.29-2.15,3.43-3.85,6.81-5.1,10.06-1.19,3.17-1.73,5.95-1.56,8.25.06.96.4,1.9.96,2.86.63.99,1.42,1.87,2.33,2.61.93.74,1.99,1.28,3.15,1.67,1.14.37,2.21.54,3.2.45,1.39-.06,2.86-.48,4.37-1.28,1.67-.85,3.29-1.87,4.85-2.98,1.61-1.16,3.15-2.38,4.56-3.68,1.45-1.34,2.69-2.49,3.69-3.51l.48-.45.65.06c4.19.4,8.76-.08,13.49-1.44,4.79-1.36,9.49-3.17,13.92-5.41,4.45-2.24,8.56-4.76,12.19-7.46,3.6-2.69,6.35-5.19,8.16-7.46.91-1.13,1.53-2.21,1.81-3.26.23-.79.26-1.42.08-1.73-.06-.11-.45-.14-.91-.08-.62.08-1.81.51-3.91,2.1-2.21,1.73-4.82,3.63-7.77,5.67-2.95,2.04-6.06,4-9.24,5.81-3.23,1.84-6.49,3.46-9.67,4.76-3.29,1.36-6.43,2.18-9.32,2.41l-3.71.31,2.55-2.69c1.39-1.48,2.95-3.4,4.62-5.67,1.7-2.33,3.32-4.76,4.79-7.26,1.45-2.44,2.66-4.88,3.57-7.23.85-2.18,1.22-4.02,1.11-5.47-.06-1.19-.4-2.3-.97-3.4-.59-1.1-1.33-2.04-2.26-2.83-.94-.79-2.01-1.44-3.15-1.9-.96-.37-1.95-.57-2.95-.57h-.42c-2.38.14-5.05,1.05-7.94,2.66-2.98,1.67-6.06,3.91-9.15,6.6h.08ZM208.91,657.59c-1.33,1.67-2.89,3.17-4.59,4.45-1.67,1.28-3.49,2.41-5.35,3.4l-.83.42-.74-.59c-.79-.65-1.22-1.56-1.22-2.64,0-.65.28-1.48.93-2.78.54-1.05,1.13-2.18,1.81-3.4.68-1.22,1.36-2.35,2.07-3.4l2.52-3.85,6.12,7.46-.71.91-.03.03h0ZM229.97,624.31l1.59-.31.08,1.62c.08,1.62-.51,3.68-1.87,6.38-1.24,2.47-2.78,5.02-4.56,7.57-1.73,2.55-3.57,4.96-5.41,7.17-1.9,2.27-3.37,3.8-4.51,4.68l-.4.28h-.48c-.79,0-1.5-.25-2.13-.71-.48-.37-.93-.88-1.33-1.48-.4-.57-.68-1.19-.88-1.84-.2-.62-.31-1.19-.31-1.65-.08-2.04.63-4.31,2.1-6.74,1.39-2.24,3.15-4.45,5.19-6.55,2.04-2.07,4.22-3.91,6.52-5.47,2.41-1.62,4.48-2.58,6.35-2.95h.06Z"/>
      <path class="cls-2" d="M220.82,683.07c-26.47-2.81-35.2-2.61-60.43,5.07-6.06,1.84-27.21,8.73-31.24,12.08-3.75,3.12-2.33,7.29,1.39,8.76,8.93-1.05,17.18-18.14,68.6-21.01,10.77-.59,14.82.31,25.28,2.95,3.89.96,11.03,6.69,10.49-.99-.37-5.39-9.52-6.35-14.12-6.83l.03-.03Z"/>
    </g>
    <path class="cls-2" d="M288.19,675.7v-87.91c0-4.52-.68-9.02-2.15-13.28-1.87-5.43-4.37-8.88-10.86-8.88v-3.38h35.39l49.84,114.36h.45l40.98-114.36h37.13v3.38c-11.74,0-10.77,9.25-10.77,18.49v113.23c0,10.15.28,19.4,12.02,19.4v3.38h-47.97v-3.38c11.74,0,10.26-9.25,10.26-19.4v-117.07h-.45l-48.51,136.69h-3.99l-53.83-123.15h-.45v81.88c0,27.97.23,41.05,15.52,41.05v3.38h-35.44v-3.38c12.41,0,12.83-13.08,12.83-41.05ZM446.32,686.76v-56.62c0-9.25.27-19.17-10.11-19.17v-3.38c11.95,0,23.42-.45,31.31-2.26h3.38v81.88c0,16.02,7.45,23.46,18.05,23.46,9.47,0,19.39-9.7,23.46-23.46v-57.07c0-9.25.27-19.17-8.53-19.17v-3.38c10.38,0,21.84-.45,29.74-2.26h3.16v86.84c0,9.25.35,18.95,12.3,18.95v3.38c-11.73,0-21.32,2.7-30.35,7.22h-3.38l-.22-23.46h-.68c-5.19,12.18-17.6,23.68-34.51,23.68-24.36,0-33.61-17.14-33.61-35.19h0ZM557.71,697.36v-60c0-9.25.27-18.95-11.46-18.95v-3.38c11.95-.9,19.81-3.16,31.08-9.02h3.84v21.43c9.47-14.21,19.62-22.56,33.83-22.56,26.62,0,32.71,20.3,32.71,39.7v52.78c0,9.25-.56,19.4,11.17,19.4v3.38h-44.29v-3.38c10.38,0,8.53-10.15,8.53-19.4v-56.84c0-13.31-3.6-23.68-15.34-23.68s-22.1,11.28-25.49,20.75v59.77c0,9.25-.5,19.4,10.56,19.4v3.38h-44.7v-3.38c11.73,0,9.55-10.15,9.55-19.4h0ZM557.71,697.36v-60c0-9.25.27-18.95-11.46-18.95v-3.38c11.95-.9,19.81-3.16,31.08-9.02h3.84v21.43c9.47-14.21,19.62-22.56,33.83-22.56,26.62,0,32.71,20.3,32.71,39.7v52.78c0,9.25-.56,19.4,11.17,19.4v3.38h-44.29v-3.38c10.38,0,8.53-10.15,8.53-19.4v-56.84c0-13.31-3.6-23.68-15.34-23.68s-22.1,11.28-25.49,20.75v59.77c0,9.25-.5,19.4,10.56,19.4v3.38h-44.7v-3.38c11.73,0,9.55-10.15,9.55-19.4h0ZM658.29,663.75c0-38.57,20.75-58.87,47.14-58.87,9.7,0,18.49,2.03,25.71,5.64v-30.22c0-9.25.27-19.17-11.69-19.17v-3.38c12.63-.68,21.61-4.06,32.67-9.02h3.38v143.23c0,9.25,2.7,18.95,14.66,18.95v3.38c-11.73,0-23.68,2.93-32.71,7.89h-3.38l-.67-20.3h-.45c-4.51,10.15-16.02,20.98-30.22,20.98-27.97,0-44.44-20.3-44.44-59.1ZM683.55,663.98c0,36.09,7.44,51.65,23.23,51.65,10.38,0,19.85-12.63,24.36-23.68v-71.05c-5.64-6.31-13.76-9.7-23.01-9.7-15.56,0-24.58,16.69-24.58,52.78ZM763.79,663.98c0-38.8,17.37-59.1,49.17-59.1s49.18,20.3,49.18,59.1-17.37,58.87-49.18,58.87-49.17-20.3-49.17-58.87ZM789.05,663.98c0,36.77,6.99,54.36,23.91,54.36s23.91-17.6,23.91-54.36-6.99-54.81-23.91-54.81-23.91,18.05-23.91,54.81Z"/>
    <g>
      <path class="cls-2" d="M472.38,492.94v-52c0-19.11-6-39.12-32.23-39.12-14,0-24,8.22-33.34,22.23v-21.12h-3.78c-11.11,5.78-22.89,8-34.67,8.89v3.33c11.56,0,15.34,9.55,15.34,18.67v59.12c0,9.11-3.78,19.11-15.34,19.11v3.33h53.78v-3.33c-10.89,0-14.23-10-14.23-19.11v-58.89c3.33-9.33,13.56-20.45,25.11-20.45s15.11,10.22,15.11,23.33v56.01c0,9.11-3.33,19.11-13.56,19.11v3.33h53.12v-3.33c-11.56,0-15.34-10-15.34-19.11Z"/>
      <path class="cls-2" d="M658.28,421.82c0-9.33,5.33-15.56,16.67-15.56,12,0,22.67,11.11,29.33,27.34h2.67l.22-26.67c-7.56-2-18.01-5.11-32.23-5.11-21.33,0-35.34,10.67-35.34,27.78,0,33.34,60.72,42.85,60.72,66.19,0,14-14.71,17.6-24.49,17.6-15.56,0-28.45-13.33-34.89-31.33h-2.66v30.22c9.55,2.45,21.33,5.78,36.67,5.78,17.34,0,43.16-7.82,43.16-32.71,0-33.78-59.83-40.85-59.83-63.52h0Z"/>
      <path class="cls-2" d="M531.36,504.23c-8.45,0-16.28-3.5-16.28-14.39v-79.79h20.89v-5.78h-21.33v-29.56h-5.33l-12.05,18.01c-4.69,7.01-11.79,12.07-19.95,14.22v3.11h13.56v81.79c0,13.56,4.22,25.11,18,25.11,9.55,0,24.07-6.72,30.73-11.17l-.67-2.66c-2.89.67-5.33,1.11-7.55,1.11h0Z"/>
      <path class="cls-2" d="M584.97,401.82c-31.34,0-48.45,20-48.45,58.23s17.11,58.01,48.45,58.01,48.45-20,48.45-58.01-17.11-58.23-48.45-58.23ZM584.97,513.61c-16.67,0-23.56-17.34-23.56-53.56s6.89-54.01,23.56-54.01,23.56,17.78,23.56,54.01-6.89,53.56-23.56,53.56Z"/>
      <path class="cls-2" d="M311.69,401.95c30.22,0,37.78,15.78,37.78,25.92v41.99s.08-.02.12-.04v18.44c0,10.89,4.16,14.39,12.61,14.39,2.22,0,4.67-.44,7.55-1.11l.67,2.66c-6.67,4.44-17.5,11.17-27.06,11.17-11.66,0-16.48-8.28-17.68-19.04-7.85,14.32-20.22,20.3-31.77,20.3-14.44,0-26.89-8.45-26.89-24.45,0-28.45,36.45-42.09,58.23-43.87v-17.69c0-13.11-3.34-24.67-14.45-24.67-16.23,0-17.3,14.04-28.35,21.85-4.9,3.47-10.23,1.88-10.99-3.18-1.58-10.55,13.56-22.67,40.23-22.67ZM325.25,452.31c-20.89,2.67-34.89,20.76-34.89,36.09,0,9.78,6,13.78,13.33,13.78,8.44,0,16.68-5.38,21.67-14.6v-13.36s-.07-.02-.11-.03v-21.89ZM369.75,501.54h0s0,0,0,0c0,0,0,0,0,0Z"/>
      <path class="cls-2" d="M256.24,469.1c-6.47,27.94-28.9,42.51-45.55,42.51-23.78,0-39.56-23.33-39.56-76.23s14.67-73.34,36.45-73.34c15.37,0,37.37,13.98,44.74,34.35h3.72l-.4-33.68c-11.56-2.66-32.94-5.56-49.16-5.56-37.8,0-62.69,26.01-62.69,80.46s26.01,80.46,64.01,80.46c16.89,0,39.38-3.78,51.61-10.89l.2-38.06h-3.37,0Z"/>
    </g>
  </g>
</svg>