<?xml version="1.0" encoding="UTF-8"?>
<svg id="Camada_1" data-name="Camada 1" xmlns="http://www.w3.org/2000/svg" viewBox="0 0 1080 1080">
  <defs>
    <style>
      .cls-1 {
        fill: #fff7ee;
      }

      .cls-2 {
        fill: #c66443;
      }
    </style>
  </defs>

  <g>
    <path class="cls-2" d="M636.31,99.93c6.39,3.36,57.74,51.02,71.22,69.84,34.92,48.76,43.21,109.74,15.2,164.21-23.36,45.45-66.17,75.98-102.79,109.97-38.16,35.4-68.49,86.77-64.8,142.06-.44-6.46,11.2-20.19,14.33-25.21,11.7-18.78,23.93-39.13,38.68-55.68,25.49-28.57,62.32-47.07,100.58-49.66,37.32-2.52,70.61,20.1,93.76,47.6l80.42,19.08s-73.58,12.27-87.22,29.98c-13.64,17.71-22.77,55.63-20.44,104.92,10.63,223.71-271.35,321.59-271.35,321.59,37.58,3.03,96.92,3.1,165.19-17.56,96.58-29.23,158.79-84.16,187.39-113.05,51.05-51.58,79.24-105.33,94.58-141.77,14.43-34.76,34.21-94.76,34.22-171.47,0-40.73-5.58-109.42-40.23-185.21-41.6-90.98-102.88-143.61-127.63-163.11-71.69-56.48-142.73-78.58-181.12-86.52Z"/>
    <path class="cls-2" d="M465.7,973.88s66.48-52.31,85.36-76.25c50.51-64.04,43.99-162.8-7.09-229.94-21.47-28.2-52.91-46.65-82.88-65.52-43.69-27.5-86.92-58.29-115.9-101.03-43.84-64.66-46.24-166.13-28.1-241.3,8.46-35.1,23.8-68.34,43.9-98.25,7.83-11.62,26.46-44.98,40.91-49.64-31.75,10.16-70.13,26.33-109.65,52.75-100.19,66.99-146.75,159.13-166.03,205.21-12.66,32.02-27.8,80.87-30.93,141.83-5.66,110.32,31.48,192.31,45.1,219.72,49.72,100.07,125.13,155.78,165.45,182.13,71.9,46.99,159.86,60.29,159.86,60.29Z"/>
  </g>
</svg>