<?xml version="1.0" encoding="UTF-8"?>
<svg id="Camada_1" data-name="Camada 1" xmlns="http://www.w3.org/2000/svg" viewBox="0 0 1098.36 1098.36">
  <defs>
    <style>
      .cls-1 {
        fill: #fff7ee;
      }

      .cls-2 {
        fill: #c66443;
      }

      .cls-3 {
        fill: #20668a;
      }
    </style>
  </defs>

  <g>
    <g>
      <path class="cls-3" d="M532.03,624.27c1.55-2.42,3.31-5.05,5.29-7.94,1.94-2.83,3.91-5.81,5.87-8.89.95-1.49,2.19-3.14,3.69-4.86,1.49-1.7,3.08-3.47,4.76-5.25s3.37-3.56,5.07-5.32c1.7-1.74,3.21-3.37,4.55-4.84,1.32-1.45,2.4-2.75,3.21-3.85,1-1.38.99-1.82.99-1.84-.04-.33-.19-.77-.48-1.28-.31-.54-.7-1.07-1.18-1.53-.46-.46-.95-.82-1.47-1.07-.41-.19-.77-.25-1.14-.14-.37.1-1.2.5-2.75,2.17-1.31,1.39-2.75,3.08-4.28,5.02-1.57,1.96-3.15,4.06-4.8,6.29-1.65,2.24-3.16,4.32-4.53,6.23-1.37,1.94-2.57,3.52-3.54,4.8-1.55,2.01-1.92,2.24-2.33,2.34-.68.17-1.39.04-2.07-.35-.23-.14-.44-.21-.64-.21h-.1c-1.28.14-3.04.87-5.27,2.19-2.32,1.36-4.82,3.1-7.47,5.19-2.69,2.13-5.42,4.49-8.09,7.03-2.69,2.55-5.11,5.11-7.22,7.63-2.09,2.48-3.79,4.86-5.05,7.03-1.18,2.05-1.72,3.7-1.59,4.88.1.83.35,1.65.77,2.4.43.75.99,1.45,1.63,2.01.62.56,1.36.99,2.15,1.26.8.27,1.61.37,2.5.27,1.37-.15,2.77-.62,4.12-1.38,1.45-.83,2.81-1.69,3.99-2.57,1.22-.91,2.3-1.72,3.19-2.48,1.39-1.14,1.94-1.36,2.33-1.43.46-.04.79.12,1.29.43l1.05.64c.39.23.77.44,1.16.66.18.1.31.15.41.17.44-.21.62-.39.7-.46.14-.15.25-.31.27-.44.04-.1.06-.25,0-.56-.06-.39-.12-.83-.15-1.34-.14-1.03.29-2.42,1.38-4.37.95-1.74,2.21-3.83,3.76-6.25l.04.02h0ZM522.87,627.41c-1.9,1.92-3.79,3.68-5.61,5.25-1.84,1.57-3.58,2.89-5.17,3.89-1.72,1.11-3.1,1.68-4.22,1.82l-1.33.15.29-1.32c.35-1.63,1.14-3.35,2.34-5.13,1.16-1.72,2.57-3.47,4.2-5.19,1.61-1.72,3.39-3.43,5.31-5.09,1.9-1.65,3.83-3.25,5.75-4.78,1.92-1.51,3.74-2.92,5.44-4.22,1.7-1.29,3.17-2.42,4.43-3.33l2.84-2.09-1.37,3.25c-.62,1.45-1.59,3.16-2.89,5.07-1.28,1.9-2.81,3.85-4.53,5.85-1.68,1.96-3.5,3.93-5.44,5.88l-.04-.02h0Z"/>
      <path class="cls-3" d="M550.07,607c-2.13,1.86-4.18,3.97-6.14,6.27-1.96,2.3-3.7,4.67-5.19,7.03-1.47,2.34-2.63,4.65-3.48,6.87-.82,2.17-1.18,4.06-1.07,5.63.04.66.27,1.3.66,1.96.43.68.97,1.28,1.59,1.78.64.5,1.36.87,2.15,1.14.78.25,1.51.37,2.19.31.95-.04,1.96-.33,2.98-.87,1.14-.58,2.24-1.28,3.31-2.03,1.1-.79,2.15-1.63,3.11-2.52.99-.91,1.84-1.7,2.52-2.4l.33-.31.44.04c2.86.27,5.98-.06,9.22-.99,3.27-.93,6.48-2.17,9.51-3.7,3.04-1.53,5.85-3.25,8.32-5.09,2.46-1.84,4.34-3.54,5.58-5.09.62-.77,1.04-1.51,1.24-2.23.16-.54.18-.97.06-1.18-.04-.08-.31-.1-.62-.06-.43.06-1.24.35-2.67,1.43-1.51,1.18-3.29,2.48-5.31,3.87-2.01,1.39-4.14,2.73-6.31,3.97-2.21,1.26-4.43,2.36-6.6,3.25-2.24.93-4.39,1.49-6.37,1.65l-2.53.21,1.74-1.84c.95-1.01,2.01-2.32,3.15-3.87,1.16-1.59,2.26-3.25,3.27-4.96.99-1.67,1.82-3.33,2.44-4.94.58-1.49.83-2.75.76-3.74-.04-.81-.27-1.57-.66-2.32-.41-.75-.91-1.39-1.55-1.94-.64-.54-1.38-.99-2.15-1.3-.66-.25-1.33-.39-2.01-.39h-.29c-1.63.1-3.45.71-5.42,1.82-2.03,1.14-4.14,2.67-6.25,4.51h.06ZM547.76,628.37c-.91,1.14-1.97,2.17-3.14,3.04-1.14.87-2.38,1.65-3.66,2.32l-.56.29-.5-.41c-.54-.44-.83-1.07-.83-1.8,0-.44.19-1.01.64-1.9.37-.71.77-1.49,1.24-2.32.47-.83.93-1.61,1.41-2.32l1.72-2.63,4.18,5.09-.48.62-.02.02h0ZM562.15,605.64l1.09-.21.06,1.11c.06,1.11-.35,2.52-1.28,4.35-.85,1.68-1.9,3.43-3.11,5.17-1.18,1.74-2.44,3.39-3.7,4.9-1.3,1.55-2.3,2.59-3.08,3.2l-.27.19h-.33c-.54,0-1.03-.17-1.45-.48-.33-.25-.64-.6-.91-1.01-.27-.39-.47-.81-.6-1.26-.14-.43-.21-.81-.21-1.12-.06-1.39.43-2.94,1.43-4.61.95-1.53,2.15-3.04,3.54-4.47,1.39-1.41,2.88-2.67,4.45-3.74,1.65-1.11,3.06-1.76,4.34-2.01h.04Z"/>
      <path class="cls-3" d="M555.89,645.78c-18.08-1.92-24.04-1.78-41.27,3.47-4.14,1.26-18.59,5.96-21.33,8.25-2.56,2.13-1.59,4.98.95,5.98,6.1-.71,11.73-12.39,46.85-14.35,7.35-.41,10.12.21,17.26,2.01,2.65.66,7.53,4.57,7.16-.68-.25-3.68-6.5-4.34-9.64-4.67l.02-.02Z"/>
    </g>
    <path class="cls-3" d="M610.55,635.19v-60.04c0-3.09-.47-6.16-1.47-9.07-1.28-3.71-2.98-6.06-7.41-6.06v-2.31h24.17l34.04,78.1h.31l27.99-78.1h25.36v2.31c-8.02,0-7.35,6.32-7.35,12.63v77.33c0,6.93.19,13.25,8.21,13.25v2.31h-32.76v-2.31c8.02,0,7.01-6.32,7.01-13.25v-79.95h-.31l-33.13,93.36h-2.72l-36.77-84.11h-.31v55.92c0,19.1.16,28.04,10.6,28.04v2.31h-24.2v-2.31c8.47,0,8.76-8.93,8.76-28.04ZM718.54,642.74v-38.67c0-6.32.18-13.09-6.9-13.09v-2.31c8.16,0,15.99-.31,21.38-1.54h2.31v55.92c0,10.94,5.08,16.02,12.33,16.02,6.47,0,13.25-6.62,16.02-16.02v-38.98c0-6.32.18-13.09-5.83-13.09v-2.31c7.09,0,14.91-.31,20.31-1.54h2.16v59.31c0,6.32.24,12.94,8.4,12.94v2.31c-8.01,0-14.56,1.85-20.73,4.93h-2.31l-.15-16.02h-.46c-3.54,8.32-12.02,16.17-23.57,16.17-16.64,0-22.95-11.71-22.95-24.03h0ZM794.62,649.98v-40.98c0-6.32.19-12.94-7.82-12.94v-2.31c8.16-.61,13.53-2.16,21.23-6.16h2.62v14.64c6.47-9.71,13.4-15.41,23.11-15.41,18.18,0,22.34,13.86,22.34,27.11v36.05c0,6.32-.38,13.25,7.63,13.25v2.31h-30.25v-2.31c7.09,0,5.83-6.93,5.83-13.25v-38.82c0-9.09-2.46-16.17-10.48-16.17s-15.1,7.7-17.41,14.17v40.82c0,6.32-.34,13.25,7.21,13.25v2.31h-30.53v-2.31c8.01,0,6.52-6.93,6.52-13.25h0ZM794.62,649.98v-40.98c0-6.32.19-12.94-7.82-12.94v-2.31c8.16-.61,13.53-2.16,21.23-6.16h2.62v14.64c6.47-9.71,13.4-15.41,23.11-15.41,18.18,0,22.34,13.86,22.34,27.11v36.05c0,6.32-.38,13.25,7.63,13.25v2.31h-30.25v-2.31c7.09,0,5.83-6.93,5.83-13.25v-38.82c0-9.09-2.46-16.17-10.48-16.17s-15.1,7.7-17.41,14.17v40.82c0,6.32-.34,13.25,7.21,13.25v2.31h-30.53v-2.31c8.01,0,6.52-6.93,6.52-13.25h0ZM863.31,627.03c0-26.34,14.17-40.21,32.2-40.21,6.62,0,12.63,1.39,17.56,3.85v-20.64c0-6.32.18-13.09-7.98-13.09v-2.31c8.63-.46,14.76-2.77,22.31-6.16h2.31v97.82c0,6.32,1.85,12.94,10.01,12.94v2.31c-8.01,0-16.17,2-22.34,5.39h-2.31l-.46-13.86h-.31c-3.08,6.93-10.94,14.33-20.64,14.33-19.1,0-30.35-13.86-30.35-40.36ZM880.57,627.19c0,24.65,5.08,35.28,15.87,35.28,7.09,0,13.56-8.63,16.64-16.17v-48.53c-3.85-4.31-9.4-6.62-15.71-6.62-10.63,0-16.79,11.4-16.79,36.05ZM935.37,627.19c0-26.5,11.86-40.36,33.58-40.36s33.59,13.86,33.59,40.36-11.86,40.21-33.59,40.21-33.58-13.86-33.58-40.21ZM952.62,627.19c0,25.11,4.78,37.12,16.33,37.12s16.33-12.02,16.33-37.12-4.78-37.43-16.33-37.43-16.33,12.33-16.33,37.43Z"/>
    <path class="cls-2" d="M298.84,474.87c-3.16,0-6.04-1.41-7.7-3.98l2.31-2.65c1.33,2,3.13,3.02,5.42,3.02,1.89,0,3.19-1.04,3.19-2.43,0-.93-.65-1.72-1.95-2.37-.28-.14-.96-.42-2.06-.85-1.1-.45-1.92-.85-2.45-1.16-2.17-1.27-3.27-2.99-3.27-5.14,0-1.72.65-3.13,1.92-4.26,1.27-1.16,2.93-1.72,4.99-1.72,2.71,0,4.94.96,6.68,2.88l-2.14,2.76c-1.16-1.33-2.99-2.03-4.49-2.03-1.69,0-2.82.87-2.82,2.2,0,.87.56,1.61,1.72,2.2l2.2,1.02c1.16.48,1.97.87,2.48,1.13,2.28,1.16,3.44,2.88,3.44,5.1,0,1.84-.71,3.36-2.09,4.51-1.38,1.16-3.19,1.75-5.39,1.75h0ZM316.24,474.53v-20.85h3.86v20.85h-3.86ZM345.08,467.05v-13.37h3.81v20.85h-2.51l-11.2-13.26v13.26h-3.81v-20.85h2.31l11.39,13.37ZM369.68,474.84c-3.02,0-5.58-.99-7.64-2.96-2.06-2-3.08-4.57-3.08-7.7s1.04-5.75,3.13-7.79c2.12-2.06,4.66-3.08,7.64-3.08,3.75,0,7.14,1.75,8.97,4.37l-2.62,2.51c-1.69-2.12-3.75-3.16-6.18-3.16-1.95,0-3.61.68-4.97,2.03-1.33,1.35-2,3.04-2,5.1s.65,3.67,1.97,4.99c1.33,1.33,2.99,1.97,4.97,1.97,2.57,0,4.65-1.04,6.29-3.16l2.68,2.43c-1.95,2.62-5.33,4.43-9.17,4.43h0ZM402.16,474.53h-13.85v-20.85h13.85v3.61h-9.98v4.91h9.22v3.58h-9.22v5.14h9.98v3.61h0Z"/>
    <path class="cls-2" d="M687.6,464.94l-4.23,4.51h8.09v3.52h-13.45v-3.19l6.51-6.91c.65-.65,1.1-1.16,1.41-1.5.6-.7,1.41-2.09,1.41-3.13,0-1.69-1.33-2.88-3.1-2.88-1.52,0-3.1.76-4.76,2.31l-2.09-2.76c2.12-2.11,4.51-3.16,7.14-3.16,1.95,0,3.55.59,4.83,1.78,1.27,1.19,1.89,2.71,1.89,4.57s-1.21,4.23-3.64,6.83ZM708.99,473.32c-5.81,0-8.38-5.19-8.38-10.78s2.57-10.78,8.38-10.78,8.38,5.19,8.38,10.78-2.54,10.78-8.38,10.78ZM708.99,469.71c1.52,0,2.65-.65,3.38-1.97.76-1.33,1.13-3.08,1.13-5.19s-.37-3.84-1.13-5.16c-.76-1.33-1.89-2-3.38-2s-2.62.68-3.38,2c-.76,1.33-1.13,3.04-1.13,5.16s.37,3.86,1.13,5.19c.76,1.33,1.89,1.97,3.38,1.97ZM725.11,457.24l6.32-5.1h2.88v20.85h-3.78v-15.71l-3.42,2.68-2-2.71ZM752.14,473.32c-2.29,0-4.15-.56-5.59-1.69-1.44-1.13-2.14-2.57-2.14-4.34,0-2.37,1.55-4.49,3.95-5.36v-.06c-1.89-.9-3.07-2.54-3.07-4.54,0-1.61.62-2.93,1.89-3.98,1.27-1.04,2.93-1.58,4.97-1.58s3.67.54,4.93,1.58c1.27,1.04,1.89,2.37,1.89,3.98,0,2-1.21,3.67-3.13,4.54v.09c2.45.82,4.01,2.96,4.01,5.33,0,1.78-.71,3.21-2.14,4.34-1.44,1.13-3.27,1.69-5.56,1.69ZM755.38,457.72c0-1.61-1.3-2.79-3.24-2.79s-3.3,1.19-3.3,2.79,1.27,2.76,3.27,2.76,3.27-1.19,3.27-2.76ZM752.14,469.94c2.26,0,3.83-1.33,3.83-3.13s-1.49-3.08-3.83-3.08-3.89,1.3-3.89,3.08,1.61,3.13,3.89,3.13Z"/>
    <path class="cls-2" d="M556.76,379.45c1.17.62,10.61,9.37,13.08,12.83,6.41,8.96,7.94,20.16,2.79,30.16-4.29,8.35-12.15,13.96-18.88,20.2-7.01,6.5-12.58,15.94-11.9,26.09-.08-1.19,2.06-3.71,2.63-4.63,2.15-3.45,4.4-7.19,7.11-10.23,4.68-5.25,11.45-8.65,18.47-9.12,6.85-.46,12.97,3.69,17.22,8.74l14.77,3.5s-13.51,2.25-16.02,5.51c-2.51,3.25-4.18,10.22-3.75,19.27,1.95,41.09-49.84,59.07-49.84,59.07,6.9.56,17.8.57,30.34-3.23,17.74-5.37,29.17-15.46,34.42-20.76,9.38-9.47,14.56-19.35,17.37-26.04,2.65-6.38,6.28-17.41,6.28-31.49,0-7.48-1.02-20.1-7.39-34.02-7.64-16.71-18.9-26.38-23.44-29.96-13.17-10.37-26.22-14.43-33.27-15.89Z"/>
    <path class="cls-2" d="M525.43,539.98s12.21-9.61,15.68-14c9.28-11.76,8.08-29.9-1.3-42.23-3.94-5.18-9.72-8.57-15.22-12.03-8.03-5.05-15.97-10.71-21.29-18.56-8.05-11.88-8.49-30.51-5.16-44.32,1.55-6.45,4.37-12.55,8.06-18.05,1.44-2.13,4.86-8.26,7.52-9.12-5.83,1.87-12.88,4.84-20.14,9.69-18.4,12.3-26.95,29.23-30.5,37.69-2.33,5.88-5.11,14.85-5.68,26.05-1.04,20.26,5.78,35.32,8.28,40.36,9.13,18.38,22.98,28.61,30.39,33.45,13.21,8.63,29.36,11.07,29.36,11.07Z"/>
    <g>
      <path class="cls-3" d="M305.22,649.98v-36.05c0-13.25-4.16-27.11-22.34-27.11-9.71,0-16.64,5.7-23.11,15.41v-14.64h-2.62c-7.7,4.01-15.87,5.54-24.03,6.16v2.31c8.01,0,10.63,6.62,10.63,12.94v40.98c0,6.32-2.62,13.25-10.63,13.25v2.31h37.28v-2.31c-7.55,0-9.86-6.93-9.86-13.25v-40.82c2.31-6.47,9.4-14.17,17.41-14.17s10.48,7.09,10.48,16.17v38.82c0,6.32-2.31,13.25-9.4,13.25v2.31h36.82v-2.31c-8.01,0-10.63-6.93-10.63-13.25Z"/>
      <path class="cls-3" d="M434.08,600.69c0-6.47,3.7-10.78,11.55-10.78,8.32,0,15.71,7.7,20.33,18.95h1.85l.15-18.49c-5.24-1.39-12.48-3.54-22.34-3.54-14.79,0-24.49,7.4-24.49,19.26,0,23.11,42.09,29.7,42.09,45.88,0,9.71-10.2,12.2-16.98,12.2-10.78,0-19.72-9.24-24.18-21.72h-1.85v20.95c6.62,1.7,14.79,4.01,25.42,4.01,12.02,0,29.92-5.42,29.92-22.67,0-23.42-41.47-28.31-41.47-44.03h0Z"/>
      <path class="cls-3" d="M346.1,657.8c-5.85,0-11.29-2.43-11.29-9.98v-55.3h14.48v-4.01h-14.79v-20.49h-3.7l-8.35,12.48c-3.25,4.86-8.17,8.37-13.83,9.86v2.16h9.4v56.69c0,9.4,2.93,17.41,12.48,17.41,6.62,0,16.68-4.66,21.3-7.74l-.46-1.85c-2,.46-3.7.77-5.24.77h0Z"/>
      <path class="cls-3" d="M383.26,586.82c-21.72,0-33.58,13.86-33.58,40.36s11.86,40.21,33.58,40.21,33.58-13.86,33.58-40.21-11.86-40.36-33.58-40.36ZM383.26,664.31c-11.55,0-16.33-12.02-16.33-37.12s4.78-37.43,16.33-37.43,16.33,12.33,16.33,37.43-4.78,37.12-16.33,37.12Z"/>
      <path class="cls-3" d="M193.84,586.91c20.95,0,26.19,10.94,26.19,17.96v29.11s.05-.02.08-.03v12.78c0,7.55,2.89,9.98,8.74,9.98,1.54,0,3.24-.3,5.24-.77l.46,1.85c-4.63,3.08-12.13,7.74-18.76,7.74-8.08,0-11.42-5.74-12.26-13.2-5.44,9.93-14.01,14.07-22.02,14.07-10.01,0-18.64-5.85-18.64-16.95,0-19.72,25.27-29.18,40.36-30.41v-12.26c0-9.09-2.31-17.1-10.02-17.1-11.25,0-11.99,9.73-19.65,15.14-3.4,2.4-7.09,1.31-7.62-2.2-1.1-7.31,9.4-15.71,27.88-15.71ZM203.24,621.82c-14.48,1.85-24.18,14.39-24.18,25.02,0,6.78,4.16,9.55,9.24,9.55,5.85,0,11.56-3.73,15.02-10.12v-9.26s-.05-.02-.08-.02v-15.17ZM234.09,655.94h0s0,0,0,0c0,0,0,0,0,0Z"/>
      <path class="cls-3" d="M155.41,633.46c-4.49,19.37-20.03,29.47-31.57,29.47-16.48,0-27.42-16.17-27.42-52.84s10.17-50.84,25.27-50.84c10.66,0,25.9,9.69,31.01,23.81h2.58l-.28-23.35c-8.01-1.85-22.83-3.85-34.08-3.85-26.2,0-43.45,18.03-43.45,55.77s18.03,55.77,44.37,55.77c11.71,0,27.3-2.62,35.77-7.55l.14-26.38h-2.34,0Z"/>
    </g>
    <path class="cls-3" d="M796.51,737.23c-3.74,0-6.91-1.26-9.46-3.81-2.55-2.55-3.81-5.69-3.81-9.39s1.29-6.91,3.91-9.53c2.62-2.62,5.76-3.95,9.46-3.95s6.88,1.29,9.5,3.91c2.62,2.62,3.91,5.76,3.91,9.46s-1.29,6.84-3.91,9.43-5.8,3.88-9.6,3.88ZM796.61,733.28c2.58,0,4.75-.87,6.53-2.65s2.69-4.02,2.69-6.67-.91-4.96-2.69-6.74c-1.78-1.78-3.95-2.69-6.53-2.69s-4.75.91-6.53,2.72c-1.78,1.78-2.65,4.02-2.65,6.7s.87,4.85,2.62,6.63c1.78,1.78,3.95,2.69,6.56,2.69Z"/>
    <path class="cls-3" d="M752.03,736.81h-3.98v-25.8h2.2l10.83,15.82,10.75-15.82h2.27v25.8h-4.05v-16.52l-8.42,12.29h-1.19l-8.42-12.29v16.52Z"/>
    <path class="cls-3" d="M730.14,737.23c-3.77,0-7.26-1.82-9.11-5.13l2.72-2.62c1.43,2.62,3.84,3.95,6.39,3.95s4.4-1.57,4.4-3.53c0-1.29-.84-2.41-2.55-3.32-.42-.21-1.29-.59-2.62-1.15-1.29-.59-2.31-1.08-2.97-1.47-2.62-1.57-3.91-3.67-3.91-6.25,0-2.03.73-3.74,2.24-5.1,1.5-1.36,3.45-2.06,5.87-2.06,3.25,0,5.87,1.22,7.86,3.7l-2.48,2.76c-1.43-1.78-3.21-2.65-5.34-2.65-2.23,0-3.84,1.22-3.84,3.14,0,1.22.73,2.27,2.16,3.07.46.24,1.4.73,2.9,1.43,1.5.66,2.55,1.19,3.18,1.54,2.62,1.43,3.95,3.49,3.95,6.15,0,2.2-.84,4.02-2.48,5.45-1.64,1.4-3.77,2.1-6.36,2.1Z"/>
    <path class="cls-3" d="M708.49,736.81v-25.8h4.01v25.8h-4.01Z"/>
    <path class="cls-3" d="M699.75,736.81h-4.85l-6.28-10.13h-3.42v10.13h-4.01v-25.8h9.11c2.69,0,4.75.77,6.18,2.3,1.43,1.54,2.16,3.39,2.16,5.55,0,3.39-2.02,6.42-5.76,7.44l6.88,10.51ZM690.29,714.81h-5.1v8.14h4.47c3.25,0,4.82-1.78,4.82-4.12s-1.54-4.02-4.19-4.02Z"/>
    <path class="cls-3" d="M661.07,737.26c-2.83,0-5.13-.84-6.91-2.48-1.78-1.64-2.65-3.95-2.65-6.91v-16.86h4.01v16.34c0,3.91,2.06,5.97,5.55,5.97s5.52-2.2,5.52-5.97v-16.34h4.05v16.86c0,2.97-.87,5.31-2.65,6.95s-4.08,2.44-6.91,2.44Z"/>
    <path class="cls-3" d="M631.98,736.81v-21.89h-7.54v-3.91h19.17v3.91h-7.54v21.89h-4.09Z"/>
    <path class="cls-3" d="M605.51,736.81h-16.51v-25.8h16.48v3.81h-12.47v7.02h11.56v3.81h-11.56v7.37h12.5v3.81Z"/>
    <path class="cls-3" d="M557.91,737.23c-3.77,0-7.26-1.82-9.12-5.13l2.72-2.62c1.43,2.62,3.84,3.95,6.39,3.95s4.4-1.57,4.4-3.53c0-1.29-.83-2.41-2.55-3.32-.42-.21-1.29-.59-2.62-1.15-1.29-.59-2.3-1.08-2.97-1.47-2.62-1.57-3.91-3.67-3.91-6.25,0-2.03.73-3.74,2.23-5.1,1.5-1.36,3.46-2.06,5.87-2.06,3.25,0,5.87,1.22,7.86,3.7l-2.48,2.76c-1.43-1.78-3.21-2.65-5.34-2.65s-3.84,1.22-3.84,3.14c0,1.22.73,2.27,2.17,3.07.45.24,1.39.73,2.9,1.43,1.5.66,2.55,1.19,3.18,1.54,2.62,1.43,3.95,3.49,3.95,6.15,0,2.2-.84,4.02-2.48,5.45-1.64,1.4-3.77,2.1-6.35,2.1Z"/>
    <path class="cls-3" d="M543.73,736.81h-4.33l-2.44-6.35h-9.5l-2.45,6.35h-4.33l10.27-25.8h2.62l10.16,25.8ZM535.74,726.75l-3.49-9.36-3.49,9.36h6.99Z"/>
    <path class="cls-3" d="M508.64,736.81v-25.8h4.01v25.8h-4.01Z"/>
    <path class="cls-3" d="M488.76,737.19c-3.74,0-6.88-1.22-9.42-3.7-2.55-2.48-3.84-5.62-3.84-9.5s1.29-7.12,3.91-9.64c2.62-2.55,5.76-3.81,9.46-3.81,2.34,0,4.47.52,6.46,1.54,1.99,1.01,3.53,2.34,4.64,4.02l-2.86,2.58c-2.13-2.83-4.82-4.22-8.13-4.22-2.62,0-4.82.91-6.63,2.72-1.78,1.82-2.69,4.09-2.69,6.81s.87,4.96,2.65,6.7c1.78,1.75,3.98,2.62,6.63,2.62,3.38,0,6.18-1.4,8.31-4.19l2.86,2.51c-2.41,3.32-6.6,5.55-11.35,5.55Z"/>
    <path class="cls-3" d="M462.29,728.64v-17.63h3.98v25.8h-2.38l-14.77-17.49v17.49h-3.98v-25.8h2.1l15.05,17.63Z"/>
    <path class="cls-3" d="M424.78,709.12h-3.95l5.06-5.97h2.83l5.06,5.97h-4.05l-2.48-3.14-2.48,3.14ZM435.54,736.81h-16.52v-25.8h16.48v3.81h-12.47v7.02h11.56v3.81h-11.56v7.37h12.5v3.81Z"/>
    <path class="cls-3" d="M404.19,736.81v-25.8h4.02v25.8h-4.02Z"/>
    <path class="cls-3" d="M395.44,736.81h-4.85l-6.28-10.13h-3.42v10.13h-4.02v-25.8h9.11c2.69,0,4.75.77,6.18,2.3,1.43,1.54,2.16,3.39,2.16,5.55,0,3.39-2.03,6.42-5.76,7.44l6.88,10.51ZM385.98,714.81h-5.1v8.14h4.47c3.25,0,4.82-1.78,4.82-4.12s-1.54-4.02-4.19-4.02Z"/>
    <path class="cls-3" d="M367.26,736.81h-16.52v-25.8h16.48v3.81h-12.46v7.02h11.56v3.81h-11.56v7.37h12.5v3.81Z"/>
    <path class="cls-3" d="M324.62,711h8.9c2.83,0,4.96.8,6.39,2.41,1.47,1.57,2.2,3.49,2.2,5.76s-.77,4.15-2.27,5.73c-1.5,1.57-3.74,2.34-6.67,2.34h-4.54v9.57h-4.02v-25.8ZM328.64,723.54h4.64c3.11,0,4.75-2.03,4.75-4.43s-1.57-4.33-4.33-4.33h-5.06v8.76Z"/>
    <path class="cls-3" d="M299.64,736.81h-4.82l8.48-13.06-8.03-12.74h4.68l5.83,9.67,5.94-9.67h4.82l-8.34,12.74,8.38,13.06h-4.68l-6.11-9.85-6.15,9.85Z"/>
    <path class="cls-3" d="M288.11,736.81h-16.52v-25.8h16.48v3.81h-12.47v7.02h11.56v3.81h-11.56v7.37h12.5v3.81Z"/>
  </g>
</svg>