<?xml version="1.0" encoding="UTF-8"?>
<svg id="Camada_1" data-name="Camada 1" xmlns="http://www.w3.org/2000/svg" viewBox="0 0 1080 1080">
  <defs>
    <style>
      .cls-1 {
        fill: #fff7ee;
      }

      .cls-2 {
        fill: #c66443;
      }

      .cls-3 {
        fill: #20668a;
      }
    </style>
  </defs>
  <rect class="cls-1" width="1080" height="1080"/>
  <g>
    <path class="cls-2" d="M151.97,455.81c.98.52,8.86,7.83,10.93,10.72,5.36,7.48,6.63,16.84,2.33,25.2-3.59,6.97-10.15,11.66-15.77,16.88-5.86,5.43-10.51,13.32-9.94,21.8-.07-.99,1.72-3.1,2.2-3.87,1.8-2.88,3.67-6,5.94-8.54,3.91-4.38,9.56-7.22,15.43-7.62,5.73-.39,10.84,3.08,14.39,7.3l12.34,2.93s-11.29,1.88-13.38,4.6c-2.09,2.72-3.49,8.54-3.14,16.1,1.63,34.33-41.64,49.35-41.64,49.35,5.77.46,14.87.48,25.35-2.69,14.82-4.49,24.37-12.91,28.76-17.35,7.83-7.91,12.16-16.16,14.51-21.76,2.21-5.33,5.25-14.54,5.25-26.31,0-6.25-.86-16.79-6.17-28.42-6.38-13.96-15.79-22.04-19.59-25.03-11-8.67-21.9-12.06-27.79-13.28Z"/>
    <path class="cls-2" d="M125.79,589.92s10.2-8.03,13.1-11.7c7.75-9.83,6.75-24.98-1.09-35.29-3.29-4.33-8.12-7.16-12.72-10.05-6.7-4.22-13.34-8.95-17.79-15.5-6.73-9.92-7.1-25.49-4.31-37.03,1.3-5.39,3.65-10.49,6.74-15.08,1.2-1.78,4.06-6.9,6.28-7.62-4.87,1.56-10.76,4.04-16.83,8.1-15.38,10.28-22.52,24.42-25.48,31.49-1.94,4.91-4.27,12.41-4.75,21.77-.87,16.93,4.83,29.51,6.92,33.72,7.63,15.36,19.2,23.91,25.39,27.95,11.03,7.21,24.53,9.25,24.53,9.25Z"/>
    <g>
      <g>
        <path class="cls-3" d="M618.27,539.35c1.29-2.02,2.76-4.22,4.41-6.63,1.62-2.36,3.27-4.85,4.9-7.42.79-1.25,1.83-2.62,3.08-4.06,1.25-1.42,2.57-2.89,3.98-4.38s2.81-2.97,4.24-4.45c1.42-1.46,2.68-2.81,3.8-4.04,1.1-1.21,2-2.29,2.68-3.22.84-1.15.82-1.52.82-1.54-.03-.27-.16-.65-.4-1.07-.26-.45-.58-.89-.99-1.28-.39-.39-.79-.68-1.23-.89-.34-.16-.65-.21-.95-.11-.31.08-1,.42-2.3,1.81-1.1,1.16-2.29,2.57-3.57,4.19-1.31,1.63-2.63,3.39-4.01,5.25-1.37,1.87-2.64,3.6-3.78,5.2-1.15,1.62-2.15,2.94-2.96,4.01-1.29,1.68-1.6,1.87-1.94,1.96-.56.15-1.16.03-1.73-.29-.19-.11-.37-.18-.53-.18h-.08c-1.07.11-2.54.73-4.4,1.83-1.94,1.13-4.02,2.59-6.24,4.33-2.25,1.78-4.52,3.75-6.76,5.87-2.25,2.13-4.27,4.27-6.03,6.37-1.75,2.07-3.17,4.06-4.22,5.87-.99,1.71-1.44,3.09-1.33,4.07.08.69.29,1.37.65,2,.36.63.83,1.21,1.36,1.68.52.47,1.13.83,1.79,1.05.66.23,1.34.31,2.09.23,1.15-.13,2.31-.52,3.44-1.15,1.21-.69,2.34-1.41,3.33-2.15,1.02-.76,1.92-1.44,2.66-2.07,1.16-.95,1.62-1.13,1.94-1.2.39-.03.66.1,1.08.36l.87.53c.32.19.65.37.97.55.15.08.26.13.34.15.37-.18.52-.32.58-.39.11-.13.21-.26.23-.37.03-.08.05-.21,0-.47-.05-.32-.1-.69-.13-1.12-.11-.86.24-2.02,1.15-3.65.79-1.46,1.84-3.2,3.14-5.22l.03.02h0ZM610.63,541.97c-1.58,1.6-3.17,3.07-4.69,4.38-1.54,1.31-2.99,2.41-4.32,3.25-1.44.92-2.58,1.41-3.52,1.52l-1.11.13.24-1.1c.29-1.36.95-2.8,1.96-4.28.97-1.44,2.15-2.89,3.51-4.33,1.34-1.44,2.83-2.86,4.43-4.25,1.58-1.37,3.2-2.72,4.8-3.99,1.6-1.26,3.12-2.44,4.54-3.52,1.42-1.08,2.65-2.02,3.7-2.78l2.37-1.75-1.15,2.72c-.52,1.21-1.33,2.64-2.41,4.24-1.06,1.58-2.34,3.22-3.78,4.88-1.41,1.63-2.93,3.28-4.54,4.91l-.03-.02h0Z"/>
        <path class="cls-3" d="M633.34,524.93c-1.78,1.55-3.49,3.31-5.12,5.24-1.63,1.92-3.09,3.9-4.33,5.87-1.23,1.96-2.2,3.88-2.91,5.74-.68,1.81-.99,3.39-.89,4.7.03.55.23,1.08.55,1.63.36.56.81,1.07,1.33,1.49.53.42,1.13.73,1.79.95.65.21,1.26.31,1.83.26.79-.03,1.63-.27,2.49-.73.95-.48,1.87-1.07,2.76-1.7.92-.66,1.79-1.36,2.6-2.1.83-.76,1.54-1.42,2.1-2l.27-.26.37.03c2.39.23,4.99-.05,7.69-.82,2.73-.77,5.41-1.81,7.94-3.09,2.54-1.28,4.88-2.72,6.95-4.25,2.05-1.54,3.62-2.96,4.66-4.25.52-.65.87-1.26,1.03-1.86.13-.45.15-.81.05-.99-.03-.06-.26-.08-.52-.05-.35.05-1.03.29-2.23,1.2-1.26.99-2.75,2.07-4.43,3.23-1.68,1.16-3.46,2.28-5.27,3.31-1.84,1.05-3.7,1.97-5.51,2.72-1.87.78-3.67,1.25-5.32,1.37l-2.12.18,1.46-1.54c.79-.84,1.68-1.94,2.63-3.23.97-1.33,1.89-2.72,2.73-4.14.83-1.39,1.52-2.78,2.04-4.12.49-1.25.7-2.29.63-3.12-.03-.68-.23-1.31-.55-1.94-.34-.63-.76-1.16-1.29-1.62-.54-.45-1.15-.82-1.8-1.08-.55-.21-1.11-.32-1.68-.32h-.24c-1.36.08-2.88.6-4.53,1.52-1.7.95-3.46,2.23-5.22,3.77h.05ZM631.41,542.78c-.76.95-1.65,1.81-2.62,2.54-.95.73-1.99,1.37-3.05,1.94l-.47.24-.42-.34c-.45-.37-.69-.89-.69-1.5,0-.37.16-.84.53-1.58.31-.6.65-1.25,1.03-1.94.39-.7.78-1.34,1.18-1.94l1.44-2.2,3.49,4.25-.4.52-.02.02h0ZM643.42,523.8l.91-.18.05.92c.05.92-.29,2.1-1.07,3.64-.71,1.41-1.58,2.86-2.6,4.32-.99,1.46-2.04,2.83-3.09,4.09-1.08,1.29-1.92,2.16-2.57,2.67l-.23.16h-.27c-.45,0-.86-.15-1.21-.4-.27-.21-.53-.5-.76-.84-.23-.32-.39-.68-.5-1.05-.11-.35-.18-.68-.18-.94-.05-1.16.36-2.46,1.2-3.85.79-1.28,1.79-2.54,2.96-3.73,1.16-1.18,2.41-2.23,3.72-3.12,1.37-.92,2.56-1.47,3.62-1.68h.03Z"/>
        <path class="cls-3" d="M638.2,557.31c-15.1-1.6-20.07-1.49-34.46,2.89-3.46,1.05-15.52,4.98-17.81,6.89-2.14,1.78-1.33,4.16.79,4.99,5.09-.6,9.8-10.35,39.12-11.98,6.14-.34,8.45.18,14.42,1.68,2.22.55,6.29,3.82,5.98-.56-.21-3.07-5.43-3.62-8.05-3.9l.02-.02Z"/>
      </g>
      <path class="cls-3" d="M683.84,548.47v-50.13c0-2.58-.39-5.14-1.23-7.58-1.06-3.09-2.49-5.06-6.19-5.06v-1.93h20.18l28.42,65.21h.25l23.37-65.21h21.17v1.93c-6.69,0-6.14,5.28-6.14,10.55v64.57c0,5.79.16,11.06,6.86,11.06v1.93h-27.36v-1.93c6.69,0,5.85-5.28,5.85-11.06v-66.76h-.25l-27.67,77.95h-2.27l-30.7-70.23h-.25v46.69c0,15.95.13,23.41,8.85,23.41v1.93h-20.21v-1.93c7.08,0,7.32-7.46,7.32-23.41ZM774.01,554.77v-32.29c0-5.28.15-10.93-5.77-10.93v-1.93c6.82,0,13.35-.26,17.85-1.29h1.93v46.69c0,9.13,4.25,13.38,10.29,13.38,5.4,0,11.06-5.53,13.38-13.38v-32.54c0-5.28.15-10.93-4.87-10.93v-1.93c5.92,0,12.45-.26,16.96-1.29h1.8v49.52c0,5.28.2,10.8,7.01,10.8v1.93c-6.69,0-12.16,1.54-17.31,4.12h-1.93l-.13-13.38h-.39c-2.96,6.95-10.03,13.51-19.68,13.51-13.89,0-19.16-9.78-19.16-20.07h0ZM837.53,560.82v-34.22c0-5.28.15-10.8-6.53-10.8v-1.93c6.82-.51,11.3-1.8,17.73-5.15h2.19v12.22c5.4-8.1,11.19-12.86,19.29-12.86,15.18,0,18.65,11.58,18.65,22.64v30.1c0,5.28-.32,11.06,6.37,11.06v1.93h-25.26v-1.93c5.92,0,4.87-5.79,4.87-11.06v-32.41c0-7.59-2.06-13.51-8.75-13.51s-12.61,6.43-14.53,11.83v34.09c0,5.28-.28,11.06,6.02,11.06v1.93h-25.49v-1.93c6.69,0,5.45-5.79,5.45-11.06h0ZM837.53,560.82v-34.22c0-5.28.15-10.8-6.53-10.8v-1.93c6.82-.51,11.3-1.8,17.73-5.15h2.19v12.22c5.4-8.1,11.19-12.86,19.29-12.86,15.18,0,18.65,11.58,18.65,22.64v30.1c0,5.28-.32,11.06,6.37,11.06v1.93h-25.26v-1.93c5.92,0,4.87-5.79,4.87-11.06v-32.41c0-7.59-2.06-13.51-8.75-13.51s-12.61,6.43-14.53,11.83v34.09c0,5.28-.28,11.06,6.02,11.06v1.93h-25.49v-1.93c6.69,0,5.45-5.79,5.45-11.06h0ZM894.89,541.66c0-22,11.83-33.57,26.88-33.57,5.53,0,10.55,1.16,14.66,3.22v-17.23c0-5.28.15-10.93-6.67-10.93v-1.93c7.2-.39,12.32-2.32,18.63-5.15h1.93v81.68c0,5.28,1.54,10.8,8.36,10.8v1.93c-6.69,0-13.51,1.67-18.65,4.5h-1.93l-.38-11.58h-.26c-2.57,5.79-9.13,11.96-17.23,11.96-15.95,0-25.34-11.58-25.34-33.7ZM909.3,541.78c0,20.58,4.24,29.46,13.25,29.46,5.92,0,11.32-7.2,13.89-13.51v-40.52c-3.22-3.6-7.85-5.53-13.12-5.53-8.88,0-14.02,9.52-14.02,30.1ZM955.06,541.78c0-22.13,9.9-33.7,28.04-33.7s28.04,11.58,28.04,33.7-9.9,33.57-28.04,33.57-28.04-11.58-28.04-33.57ZM969.46,541.78c0,20.97,3.99,31,13.63,31s13.64-10.03,13.64-31-3.99-31.26-13.64-31.26-13.63,10.29-13.63,31.26Z"/>
      <g>
        <path class="cls-3" d="M428.9,560.82v-30.1c0-11.06-3.47-22.64-18.65-22.64-8.1,0-13.89,4.76-19.29,12.86v-12.22h-2.19c-6.43,3.35-13.25,4.63-20.06,5.15v1.93c6.69,0,8.88,5.53,8.88,10.8v34.22c0,5.28-2.19,11.06-8.88,11.06v1.93h31.13v-1.93c-6.3,0-8.23-5.79-8.23-11.06v-34.09c1.93-5.4,7.85-11.83,14.53-11.83s8.75,5.92,8.75,13.51v32.41c0,5.28-1.93,11.06-7.85,11.06v1.93h30.74v-1.93c-6.69,0-8.88-5.79-8.88-11.06Z"/>
        <path class="cls-3" d="M536.49,519.66c0-5.4,3.09-9,9.65-9,6.95,0,13.12,6.43,16.98,15.82h1.55l.13-15.43c-4.37-1.16-10.42-2.96-18.65-2.96-12.35,0-20.45,6.18-20.45,16.08,0,19.29,35.14,24.8,35.14,38.31,0,8.1-8.51,10.19-14.18,10.19-9,0-16.46-7.72-20.19-18.14h-1.54v17.49c5.53,1.42,12.35,3.35,21.22,3.35,10.03,0,24.98-4.53,24.98-18.93,0-19.55-34.63-23.64-34.63-36.76h0Z"/>
        <path class="cls-3" d="M463.03,567.35c-4.89,0-9.42-2.03-9.42-8.33v-46.18h12.09v-3.35h-12.35v-17.11h-3.09l-6.98,10.42c-2.72,4.06-6.82,6.99-11.55,8.23v1.8h7.85v47.34c0,7.85,2.44,14.53,10.42,14.53,5.53,0,13.93-3.89,17.79-6.46l-.39-1.54c-1.67.39-3.09.64-4.37.64h0Z"/>
        <path class="cls-3" d="M494.06,508.08c-18.14,0-28.04,11.58-28.04,33.7s9.9,33.57,28.04,33.57,28.04-11.58,28.04-33.57-9.9-33.7-28.04-33.7ZM494.06,572.78c-9.65,0-13.63-10.03-13.63-31s3.99-31.26,13.63-31.26,13.63,10.29,13.63,31.26-3.99,31-13.63,31Z"/>
        <path class="cls-3" d="M335.89,508.16c17.49,0,21.87,9.13,21.87,15v24.3s.05-.01.07-.02v10.67c0,6.3,2.41,8.33,7.3,8.33,1.29,0,2.7-.25,4.37-.64l.39,1.54c-3.86,2.57-10.13,6.46-15.66,6.46-6.75,0-9.54-4.79-10.23-11.02-4.54,8.29-11.7,11.75-18.39,11.75-8.36,0-15.56-4.89-15.56-14.15,0-16.46,21.1-24.36,33.7-25.39v-10.24c0-7.59-1.93-14.28-8.36-14.28-9.39,0-10.01,8.12-16.41,12.64-2.84,2.01-5.92,1.09-6.36-1.84-.92-6.11,7.85-13.12,23.28-13.12ZM343.74,537.3c-12.09,1.55-20.19,12.01-20.19,20.89,0,5.66,3.47,7.98,7.72,7.98,4.89,0,9.65-3.11,12.54-8.45v-7.73s-.04-.01-.06-.02v-12.67ZM369.5,565.8h0s0,0,0,0c0,0,0,0,0,0Z"/>
        <path class="cls-3" d="M303.8,547.02c-3.75,16.17-16.73,24.6-26.36,24.6-13.76,0-22.9-13.51-22.9-44.12s8.49-42.45,21.1-42.45c8.9,0,21.63,8.09,25.89,19.88h2.16l-.23-19.49c-6.69-1.54-19.06-3.22-28.45-3.22-21.87,0-36.28,15.05-36.28,46.57s15.05,46.57,37.04,46.57c9.78,0,22.79-2.19,29.87-6.3l.12-22.03h-1.95,0Z"/>
      </g>
    </g>
    <g>
      <path class="cls-2" d="M786.23,624.17c-2.66,0-4.91-.89-6.73-2.7-1.81-1.81-2.7-4.04-2.7-6.68s.92-4.91,2.78-6.77c1.86-1.86,4.09-2.8,6.73-2.8s4.89.92,6.75,2.78c1.86,1.86,2.78,4.09,2.78,6.72s-.92,4.86-2.78,6.7c-1.86,1.84-4.12,2.75-6.82,2.75ZM786.31,621.37c1.84,0,3.37-.62,4.64-1.89s1.91-2.85,1.91-4.74-.65-3.52-1.91-4.79c-1.27-1.27-2.8-1.91-4.64-1.91s-3.37.65-4.64,1.94c-1.27,1.27-1.89,2.85-1.89,4.76s.62,3.45,1.86,4.71c1.27,1.27,2.8,1.91,4.67,1.91Z"/>
      <path class="cls-2" d="M754.62,623.87h-2.83v-18.34h1.56l7.69,11.24,7.64-11.24h1.61v18.34h-2.88v-11.74l-5.98,8.73h-.84l-5.98-8.73v11.74Z"/>
      <path class="cls-2" d="M739.06,624.17c-2.68,0-5.16-1.29-6.48-3.65l1.94-1.86c1.02,1.86,2.73,2.8,4.54,2.8s3.13-1.12,3.13-2.51c0-.92-.6-1.71-1.81-2.36-.3-.15-.92-.42-1.86-.82-.92-.42-1.64-.77-2.11-1.04-1.86-1.12-2.78-2.61-2.78-4.44,0-1.44.52-2.65,1.59-3.62,1.07-.97,2.46-1.46,4.17-1.46,2.31,0,4.17.87,5.58,2.63l-1.76,1.96c-1.02-1.27-2.28-1.89-3.8-1.89-1.59,0-2.73.87-2.73,2.23,0,.87.52,1.61,1.54,2.18.32.17.99.52,2.06,1.02,1.07.47,1.81.84,2.26,1.09,1.86,1.02,2.81,2.48,2.81,4.37,0,1.56-.6,2.85-1.76,3.87-1.17.99-2.68,1.49-4.52,1.49Z"/>
      <path class="cls-2" d="M723.68,623.87v-18.34h2.85v18.34h-2.85Z"/>
      <path class="cls-2" d="M717.47,623.87h-3.45l-4.47-7.2h-2.43v7.2h-2.85v-18.34h6.48c1.91,0,3.37.55,4.39,1.64,1.02,1.09,1.54,2.41,1.54,3.95,0,2.41-1.44,4.57-4.09,5.29l4.89,7.47ZM710.74,608.24h-3.62v5.78h3.18c2.31,0,3.42-1.27,3.42-2.93s-1.09-2.85-2.98-2.85Z"/>
      <path class="cls-2" d="M689.97,624.19c-2.01,0-3.65-.6-4.91-1.76-1.27-1.17-1.89-2.8-1.89-4.91v-11.99h2.85v11.61c0,2.78,1.46,4.24,3.95,4.24s3.92-1.56,3.92-4.24v-11.61h2.88v11.99c0,2.11-.62,3.77-1.89,4.94s-2.9,1.74-4.91,1.74Z"/>
      <path class="cls-2" d="M669.3,623.87v-15.56h-5.36v-2.78h13.62v2.78h-5.36v15.56h-2.91Z"/>
      <path class="cls-2" d="M650.49,623.87h-11.74v-18.34h11.71v2.7h-8.86v4.99h8.21v2.7h-8.21v5.24h8.88v2.7Z"/>
      <path class="cls-2" d="M616.66,624.17c-2.68,0-5.16-1.29-6.48-3.65l1.94-1.86c1.02,1.86,2.73,2.8,4.54,2.8s3.13-1.12,3.13-2.51c0-.92-.59-1.71-1.81-2.36-.3-.15-.92-.42-1.86-.82-.92-.42-1.64-.77-2.11-1.04-1.86-1.12-2.78-2.61-2.78-4.44,0-1.44.52-2.65,1.59-3.62,1.07-.97,2.46-1.46,4.17-1.46,2.31,0,4.17.87,5.58,2.63l-1.76,1.96c-1.02-1.27-2.28-1.89-3.8-1.89s-2.73.87-2.73,2.23c0,.87.52,1.61,1.54,2.18.32.17.99.52,2.06,1.02,1.07.47,1.81.84,2.26,1.09,1.86,1.02,2.8,2.48,2.8,4.37,0,1.56-.6,2.85-1.76,3.87-1.16.99-2.68,1.49-4.51,1.49Z"/>
      <path class="cls-2" d="M606.58,623.87h-3.08l-1.74-4.52h-6.75l-1.74,4.52h-3.08l7.3-18.34h1.86l7.22,18.34ZM600.9,616.72l-2.48-6.65-2.48,6.65h4.97Z"/>
      <path class="cls-2" d="M581.65,623.87v-18.34h2.85v18.34h-2.85Z"/>
      <path class="cls-2" d="M567.51,624.14c-2.66,0-4.89-.87-6.7-2.63-1.81-1.76-2.73-4-2.73-6.75s.92-5.06,2.78-6.85c1.86-1.81,4.09-2.7,6.72-2.7,1.66,0,3.18.37,4.59,1.09,1.41.72,2.51,1.66,3.3,2.85l-2.03,1.84c-1.51-2.01-3.42-3-5.78-3-1.86,0-3.42.65-4.72,1.94-1.27,1.29-1.91,2.9-1.91,4.84s.62,3.52,1.89,4.76c1.26,1.24,2.83,1.86,4.72,1.86,2.41,0,4.39-.99,5.9-2.98l2.03,1.79c-1.71,2.36-4.69,3.95-8.07,3.95Z"/>
      <path class="cls-2" d="M548.7,618.06v-12.53h2.83v18.34h-1.69l-10.5-12.43v12.43h-2.83v-18.34h1.49l10.7,12.53Z"/>
      <path class="cls-2" d="M522.05,604.19h-2.8l3.6-4.24h2.01l3.6,4.24h-2.88l-1.76-2.23-1.76,2.23ZM529.69,623.87h-11.74v-18.34h11.71v2.7h-8.86v4.99h8.21v2.7h-8.21v5.24h8.88v2.7Z"/>
      <path class="cls-2" d="M507.41,623.87v-18.34h2.85v18.34h-2.85Z"/>
      <path class="cls-2" d="M501.2,623.87h-3.45l-4.47-7.2h-2.43v7.2h-2.85v-18.34h6.48c1.91,0,3.37.55,4.39,1.64,1.02,1.09,1.54,2.41,1.54,3.95,0,2.41-1.44,4.57-4.09,5.29l4.89,7.47ZM494.47,608.24h-3.62v5.78h3.18c2.31,0,3.42-1.27,3.42-2.93s-1.09-2.85-2.98-2.85Z"/>
      <path class="cls-2" d="M481.17,623.87h-11.74v-18.34h11.71v2.7h-8.86v4.99h8.21v2.7h-8.21v5.24h8.88v2.7Z"/>
      <path class="cls-2" d="M450.86,605.53h6.33c2.01,0,3.52.57,4.54,1.71,1.04,1.12,1.56,2.48,1.56,4.09s-.55,2.95-1.61,4.07c-1.07,1.12-2.66,1.66-4.74,1.66h-3.23v6.8h-2.85v-18.34ZM453.72,614.44h3.3c2.21,0,3.37-1.44,3.37-3.15s-1.12-3.08-3.08-3.08h-3.6v6.23Z"/>
      <path class="cls-2" d="M433.1,623.87h-3.42l6.03-9.28-5.71-9.06h3.33l4.14,6.87,4.22-6.87h3.42l-5.93,9.06,5.96,9.28h-3.33l-4.34-7-4.37,7Z"/>
      <path class="cls-2" d="M424.91,623.87h-11.74v-18.34h11.71v2.7h-8.86v4.99h8.21v2.7h-8.21v5.24h8.88v2.7Z"/>
    </g>
  </g>
</svg>