<?xml version="1.0" encoding="UTF-8"?>
<svg id="Camada_1" data-name="Camada 1" xmlns="http://www.w3.org/2000/svg" viewBox="0 460 1080 200">
  <defs>
    <style>
      .cls-1 {
        fill: #fff7ee;
      }

      .cls-2 {
        fill: #ffffff;
      }

      .cls-3 {
        fill: #ffffff;
      }
    </style>
  </defs>

  <g>
    <path class="cls-2" d="M150.6,472.23c.98.52,8.89,7.86,10.97,10.75,5.38,7.51,6.65,16.9,2.34,25.29-3.6,7-10.19,11.7-15.83,16.94-5.88,5.45-10.55,13.36-9.98,21.88-.07-.99,1.72-3.11,2.21-3.88,1.8-2.89,3.69-6.03,5.96-8.57,3.93-4.4,9.6-7.25,15.49-7.65,5.75-.39,10.87,3.09,14.44,7.33l12.38,2.94s-11.33,1.89-13.43,4.62c-2.1,2.73-3.51,8.57-3.15,16.16,1.64,34.45-41.79,49.52-41.79,49.52,5.79.47,14.93.48,25.44-2.7,14.87-4.5,24.45-12.96,28.86-17.41,7.86-7.94,12.2-16.22,14.57-21.83,2.22-5.35,5.27-14.59,5.27-26.41,0-6.27-.86-16.85-6.2-28.52-6.41-14.01-15.84-22.12-19.65-25.12-11.04-8.7-21.98-12.1-27.89-13.32Z"/>
    <path class="cls-2" d="M124.33,606.82s10.24-8.06,13.15-11.74c7.78-9.86,6.77-25.07-1.09-35.41-3.31-4.34-8.15-7.18-12.76-10.09-6.73-4.24-13.39-8.98-17.85-15.56-6.75-9.96-7.12-25.58-4.33-37.16,1.3-5.4,3.67-10.52,6.76-15.13,1.21-1.79,4.07-6.93,6.3-7.64-4.89,1.57-10.8,4.06-16.89,8.12-15.43,10.32-22.6,24.51-25.57,31.6-1.95,4.93-4.28,12.45-4.76,21.84-.87,16.99,4.85,29.61,6.95,33.84,7.66,15.41,19.27,23.99,25.48,28.05,11.07,7.24,24.62,9.28,24.62,9.28Z"/>
    <g>
      <g>
        <path class="cls-3" d="M618.55,556.07c1.3-2.03,2.77-4.23,4.43-6.65,1.62-2.37,3.28-4.87,4.91-7.45.79-1.25,1.83-2.63,3.1-4.07,1.25-1.43,2.58-2.9,3.99-4.4s2.82-2.98,4.25-4.46c1.42-1.46,2.69-2.82,3.81-4.06,1.1-1.22,2.01-2.3,2.69-3.23.84-1.15.83-1.52.83-1.54-.03-.28-.16-.65-.4-1.07-.26-.45-.59-.89-.99-1.28-.39-.39-.79-.68-1.23-.89-.34-.16-.65-.21-.96-.11-.31.08-1.01.42-2.31,1.82-1.1,1.17-2.3,2.58-3.58,4.2-1.31,1.64-2.64,3.41-4.02,5.27-1.38,1.88-2.65,3.62-3.8,5.22-1.15,1.62-2.16,2.95-2.97,4.02-1.3,1.69-1.61,1.88-1.95,1.96-.57.15-1.17.03-1.74-.29-.19-.11-.37-.18-.53-.18h-.08c-1.07.11-2.55.73-4.41,1.83-1.95,1.14-4.04,2.6-6.26,4.35-2.25,1.78-4.54,3.76-6.78,5.89-2.25,2.14-4.28,4.28-6.05,6.39-1.75,2.08-3.18,4.07-4.23,5.89-.99,1.72-1.44,3.1-1.33,4.09.08.7.29,1.38.65,2.01.36.63.83,1.22,1.36,1.69.52.47,1.14.83,1.8,1.06.67.23,1.35.31,2.09.23,1.15-.13,2.32-.52,3.45-1.15,1.21-.7,2.35-1.41,3.34-2.16,1.02-.76,1.93-1.44,2.67-2.08,1.17-.96,1.62-1.14,1.95-1.2.39-.03.66.1,1.08.36l.88.53c.32.19.65.37.97.55.15.08.26.13.34.15.37-.18.52-.32.58-.39.11-.13.21-.26.23-.37.03-.08.05-.21,0-.47-.05-.32-.1-.7-.13-1.12-.11-.86.24-2.03,1.15-3.67.79-1.46,1.85-3.21,3.15-5.24l.03.02h0ZM610.88,558.7c-1.59,1.61-3.18,3.08-4.7,4.4-1.54,1.31-3,2.42-4.33,3.26-1.44.93-2.59,1.41-3.54,1.52l-1.12.13.24-1.1c.29-1.36.96-2.81,1.96-4.3.97-1.44,2.16-2.9,3.52-4.35,1.35-1.44,2.84-2.87,4.45-4.27,1.59-1.38,3.21-2.73,4.82-4.01,1.61-1.27,3.13-2.45,4.56-3.54,1.43-1.08,2.66-2.03,3.71-2.79l2.38-1.75-1.15,2.73c-.52,1.22-1.33,2.65-2.42,4.25-1.07,1.59-2.35,3.23-3.79,4.9-1.41,1.64-2.94,3.29-4.56,4.93l-.03-.02h0Z"/>
        <path class="cls-3" d="M633.67,541.59c-1.78,1.56-3.5,3.33-5.14,5.25-1.64,1.93-3.1,3.91-4.35,5.89-1.23,1.96-2.2,3.89-2.92,5.76-.68,1.82-.99,3.41-.89,4.72.03.55.23,1.09.55,1.64.36.57.81,1.07,1.33,1.49.53.42,1.14.73,1.8.96.65.21,1.27.31,1.83.26.8-.03,1.64-.28,2.5-.73.96-.49,1.88-1.07,2.77-1.7.92-.66,1.8-1.36,2.61-2.11.83-.76,1.54-1.43,2.11-2.01l.28-.26.37.03c2.4.23,5.01-.05,7.72-.83,2.74-.78,5.43-1.82,7.96-3.1,2.54-1.28,4.9-2.73,6.97-4.27,2.06-1.54,3.63-2.97,4.67-4.27.52-.65.87-1.27,1.04-1.86.13-.45.15-.81.05-.99-.03-.06-.26-.08-.52-.05-.36.05-1.04.29-2.24,1.2-1.27.99-2.76,2.08-4.45,3.24-1.69,1.17-3.47,2.29-5.29,3.33-1.85,1.06-3.71,1.98-5.53,2.73-1.88.78-3.68,1.25-5.34,1.38l-2.12.18,1.46-1.54c.79-.85,1.69-1.95,2.64-3.24.97-1.33,1.9-2.73,2.74-4.15.83-1.4,1.52-2.79,2.04-4.14.49-1.25.7-2.3.63-3.13-.03-.68-.23-1.31-.55-1.95-.34-.63-.76-1.17-1.3-1.62-.54-.45-1.15-.83-1.8-1.09-.55-.21-1.12-.32-1.69-.32h-.24c-1.36.08-2.89.6-4.54,1.52-1.7.96-3.47,2.24-5.24,3.78h.05ZM631.74,559.51c-.76.96-1.65,1.82-2.63,2.55-.96.73-1.99,1.38-3.06,1.95l-.47.24-.42-.34c-.45-.37-.7-.89-.7-1.51,0-.37.16-.85.53-1.59.31-.6.65-1.25,1.04-1.95.39-.7.78-1.35,1.19-1.95l1.44-2.2,3.5,4.27-.4.52-.02.02h0ZM643.79,540.46l.91-.18.05.93c.05.93-.29,2.11-1.07,3.65-.71,1.41-1.59,2.87-2.61,4.33-.99,1.46-2.04,2.84-3.1,4.11-1.09,1.3-1.93,2.17-2.58,2.68l-.23.16h-.28c-.45,0-.86-.15-1.22-.4-.28-.21-.53-.5-.76-.85-.23-.32-.39-.68-.51-1.06-.11-.36-.18-.68-.18-.94-.05-1.17.36-2.47,1.2-3.86.8-1.28,1.8-2.55,2.97-3.75,1.17-1.18,2.42-2.24,3.73-3.13,1.38-.93,2.56-1.48,3.63-1.69h.03Z"/>
        <path class="cls-3" d="M638.55,574.09c-15.15-1.61-20.15-1.49-34.58,2.9-3.47,1.06-15.57,5-17.88,6.91-2.14,1.78-1.33,4.17.79,5.01,5.11-.6,9.83-10.38,39.26-12.02,6.16-.34,8.48.18,14.47,1.69,2.22.55,6.31,3.83,6-.57-.21-3.08-5.45-3.63-8.08-3.91l.02-.02Z"/>
      </g>
      <path class="cls-3" d="M684.35,565.22v-50.31c0-2.59-.39-5.16-1.23-7.6-1.07-3.1-2.5-5.08-6.21-5.08v-1.94h20.25l28.52,65.44h.26l23.45-65.44h21.25v1.94c-6.72,0-6.16,5.29-6.16,10.58v64.8c0,5.81.16,11.1,6.88,11.1v1.94h-27.45v-1.94c6.72,0,5.87-5.29,5.87-11.1v-66.99h-.26l-27.76,78.23h-2.28l-30.81-70.48h-.26v46.86c0,16.01.13,23.49,8.88,23.49v1.94h-20.28v-1.94c7.1,0,7.34-7.49,7.34-23.49ZM774.84,571.55v-32.4c0-5.29.15-10.97-5.79-10.97v-1.94c6.84,0,13.4-.26,17.92-1.29h1.94v46.86c0,9.17,4.26,13.42,10.33,13.42,5.42,0,11.1-5.55,13.42-13.42v-32.66c0-5.29.15-10.97-4.88-10.97v-1.94c5.94,0,12.5-.26,17.02-1.29h1.81v49.7c0,5.29.2,10.84,7.04,10.84v1.94c-6.71,0-12.2,1.55-17.37,4.13h-1.94l-.13-13.42h-.39c-2.97,6.97-10.07,13.55-19.75,13.55-13.94,0-19.23-9.81-19.23-20.14h0ZM838.58,577.61v-34.34c0-5.29.16-10.84-6.56-10.84v-1.94c6.84-.51,11.34-1.81,17.79-5.16h2.2v12.26c5.42-8.13,11.23-12.91,19.36-12.91,15.23,0,18.72,11.62,18.72,22.72v30.2c0,5.29-.32,11.1,6.39,11.1v1.94h-25.34v-1.94c5.94,0,4.88-5.81,4.88-11.1v-32.53c0-7.62-2.06-13.55-8.78-13.55s-12.65,6.45-14.59,11.88v34.21c0,5.29-.28,11.1,6.04,11.1v1.94h-25.58v-1.94c6.71,0,5.47-5.81,5.47-11.1h0ZM838.58,577.61v-34.34c0-5.29.16-10.84-6.56-10.84v-1.94c6.84-.51,11.34-1.81,17.79-5.16h2.2v12.26c5.42-8.13,11.23-12.91,19.36-12.91,15.23,0,18.72,11.62,18.72,22.72v30.2c0,5.29-.32,11.1,6.39,11.1v1.94h-25.34v-1.94c5.94,0,4.88-5.81,4.88-11.1v-32.53c0-7.62-2.06-13.55-8.78-13.55s-12.65,6.45-14.59,11.88v34.21c0,5.29-.28,11.1,6.04,11.1v1.94h-25.58v-1.94c6.71,0,5.47-5.81,5.47-11.1h0ZM896.14,558.38c0-22.07,11.88-33.69,26.98-33.69,5.55,0,10.58,1.16,14.72,3.23v-17.3c0-5.29.15-10.97-6.69-10.97v-1.94c7.23-.39,12.37-2.32,18.69-5.16h1.94v81.97c0,5.29,1.55,10.84,8.39,10.84v1.94c-6.71,0-13.55,1.68-18.72,4.52h-1.94l-.39-11.62h-.26c-2.58,5.81-9.17,12.01-17.3,12.01-16.01,0-25.43-11.62-25.43-33.82ZM910.6,558.51c0,20.65,4.26,29.56,13.29,29.56,5.94,0,11.36-7.23,13.94-13.55v-40.66c-3.23-3.61-7.87-5.55-13.17-5.55-8.91,0-14.07,9.55-14.07,30.2ZM956.52,558.51c0-22.2,9.94-33.82,28.14-33.82s28.14,11.62,28.14,33.82-9.94,33.69-28.14,33.69-28.14-11.62-28.14-33.69ZM970.98,558.51c0,21.04,4,31.11,13.68,31.11s13.69-10.07,13.69-31.11-4-31.37-13.69-31.37-13.68,10.33-13.68,31.37Z"/>
      </g>
    </g>
  </g>
</svg>
