<?xml version="1.0" encoding="UTF-8"?>
<svg id="Camada_2" data-name="Camada 2" xmlns="http://www.w3.org/2000/svg" viewBox="0 0 1281 1144.47">
  <defs>
    <style>
      .cls-1 {
        fill: none;
        stroke: #ba694b;
        stroke-miterlimit: 10;
        stroke-width: 5px;
      }
    </style>
  </defs>
  <g id="Layer_1" data-name="Layer 1">
    <g>
      <path class="cls-1" d="M1016.92,330.35c7.47,30.08-22.37,84.84-40.97,88.86-20.07,4.34-22.79,21.83-36.39,29.17-5.8,3.13-2.2,6.01.61,9.12,6.64,7.34,11.2,15.92,11.14,25.96-.04,6.62-3.09,12.86-10.65,13.14-8.46.32-9.2-7.46-7.14-12.18,6.52-14.98-17.96-19.18-10.83-33.69-4.41-.32-9.67-2.35-13.07-.65-11.49,5.74-10.74-2.33-10.42-11.33-4.79,3.91-8.44,5.86-10.59,8.87-3.13,4.4-11.1,6.53-9.18,13.07,2.23,7.62,9.64,6.11,15.86,5.89,2.61-.1,5.95-.79,6.68,3.2.73,3.99-1.52,6.91-4.76,8.12-13.72,5.11-7.32,13.5-2.41,19.71,12.48,15.78,14.53,35.72,7.74,50.89-8.28,18.49-19.62,38.65-43.87,44.08-9.62,2.15-21.66.89-25.73,14.98-1.43,4.94-6.75,1.69-8.44-2.58-3.84-9.74-10.19-7.43-16.22-3.13-6.46,4.61-10.87,10.74-5.25,18.74,3.89,5.53,8.53,10.55,13.04,15.61,17.76,19.93,14.58,41.7-7.89,56.11-4.8,3.08-5.53,1.16-8.77-2.45-8.5-9.48-18.42-17.7-27.64-26.29-7.35,6.04-3.34,16.19-11.6,22.97-2.02-16.23,1.48-31.93-4-46.61-2.35-6.31-3.82-12.91-12.32-5.89-6.1,5.04-6.89.41-8.82-4.34-3.39-8.36-7.35-16.55-11.82-24.39-9.35-16.41-23.22-16.93-35.23-1.95-3.52,4.39-7.42,8.73-11.92,12.03-20.78,15.27-33.94,34.63-34.91,61.17-.14,3.89-.96,8.02-2.57,11.53-4.27,9.28-9.7,12.57-16.95,2.21-7.95-11.37-12.34-24.29-15.42-37.47-3.84-16.41-15.61-30.49-13.97-48.46.13-1.46-.93-4.37-1.44-4.37-20.91.06-22.48-22.5-36.31-31.22-9.31-5.86-17.85-6.79-27.25-4.98-9.05,1.74-16.87.66-23.93-5.18-3.13-2.59-6.76-5.91-10.51-4.77-20.71,6.28-31.2-7.87-42.89-20.29-3.15-3.35-6.14-10.28-11.8-6.75-6.35,3.96-2.79,10.3.37,14.98,6.32,9.34,12.41,19.04,20.03,27.26,7.62,8.21,16.47,2.34,22.85-2.51,13.71-10.41,16.75,4.13,23.66,9.1,7.38,5.3,9.07,11.59,3.58,20.28-9.61,15.21-24.45,23.07-39.26,31.55-15.27,8.74-30.78,16.9-47.16,23.31-14.11,5.53-21.58,1.56-20.4-13.24,1.09-13.57-5.39-22.01-12.43-31.86-14.39-20.11-21.16-44.85-37.72-63.82-2.87-3.28-3.73-8.33-10.23-10.31-4.63,8.34.96,14.93,4.44,20.94,9.7,16.78,15.4,34.93,22.08,52.97,8.31,22.41,23.32,42.41,40.72,59.39,7.59,7.41,17.15-1.08,25.85-1.83,8.54-.74,18.17-9.6,25.18-1.16,6.43,7.74-.83,17.16-3.58,25.52-8.76,26.63-24.19,48.1-47.03,64.97-23.76,17.55-34.38,41.51-28.48,71.51,1.2,6.12,1.91,12.33,2.85,18.49,2.81,18.32-.91,33.97-18.2,43.92-15.27,8.78-23.16,20.86-19.02,39.21,1.25,5.53,1.03,11.81-3.34,16.13-15.1,14.93-24.12,34.26-37.27,50.6-14.73,18.3-34.89,24.18-56.89,26.28-7.38.7-15.95-1.62-16.16-9.03-.53-18.56-13.36-32.01-17.61-48.92-6.04-23.99-9.59-48.89-24.43-70.04-6.19-8.83-2.89-18.92,1.7-27.56,17.18-32.32,7.11-60.59-13.84-86.07-8.78-10.68-12.81-19.11-7.66-33.09,7.19-19.53,2.45-25.53-18.25-28.11-6.72-.84-13.92-1.71-20.34-.2-17.61,4.15-35.96,3.24-53.09,6.37-26.16,4.78-40.87-10.29-52.52-36.95-1.35-3.09-1.42-7.33-3.63-9.38-22.07-20.48-18.27-47.81-20.22-73.7-.94-12.47,2.31-23.49,9.22-33.72,9.29-13.77,20.61-25.74,33.23-36.35,9.41-7.9,15.67-16.33,18.2-29.15,2.7-13.68,11.66-23.5,27.47-26.07,17.84-2.9,33.95-12.74,52.14-14.85,6.74-.78,13.57-1.59,20.31-1.3,19.97.88,23.37,4.42,19.21,23.71-2.02,9.38,1.67,13.17,8.96,14.73,14.7,3.14,27.63,9.57,39.88,18.04,6.18,4.28,12.34,5.33,16.57-3.54,6.38-13.37,17.78-12.46,27.08-5.6,18.82,13.89,39.52,1,58.75,6.01,1.79.47,6.12-2.37,6.57-4.3,3.13-13.35,10.59-25.76,10.32-41.14-16.28,6.39-31.27,7.26-46.79,2.14-14.12-4.66-19.37-16.05-12.26-29.12,1.13-2.07,2.28-4.47-.34-5.72-3.98-1.9-8.12-4.59-12.88-2.14-4.02,2.06-8.44,3.9-9.22,9.14-2.27,15.27,4.98,26.08,19.84,29.57-1.72,5.98-5.91,3.88-9.44,2.73-19.64-6.36-29.37-24.01-31.72-40.58-1.88-13.27-7.59-18.63-16.34-23.99-6.38-3.91-11.95-8.43-17.07-13.75-2.14-2.23-4.19-6.17-8.19-2.96-3.11,2.49-2.52,5.79-1.39,9.28,3.19,9.85,11.3,15.18,18.57,21.51,4.46,3.89,15.05,6.48,8.82,14.87-6.08,8.2-11.96-1.17-17.28-3.85-13.99-7.02-24.76-17.48-29.98-33.51-10.54,6.77-20.62,11.32-32.7,9.18-5.15-.91-10.15.79-12.78,6.27-6.71,13.97-24.74,19.54-26.43,38.03-.68,7.41-28.25,17-34.37,12.65-10.68-7.58-22.82-13.98-19.89-31.9,5.34-32.74,4.77-32.86,38.24-30.73,7.12.45,17.22,8.95,21.44-4.56,3.39-10.87-6.77-29.62-17.98-33.29-3.47-1.13-8.56.95-8.89-5.08-.38-6.74,5.33-6.89,9.45-7.06,18.05-.71,29.8-12.51,42.24-23.18,6.44-5.53,12.14-12.24,19.3-16.54,10.85-6.53,20.68-12.44,13.6-27.4-.22-.47-.08-1.12-.1-1.68-.21-7.53,2.94-14.34,9.49-16.79,8.87-3.33.66,10.95,9.98,9.91,5.22-9.15-4.32-17.52-1.29-26.76-2.71.29-3.88.18-4.87.55-7.94,3.04-13.42,16.76-24.29,6.72-8.01-7.4-7.9-30.83.35-39.77,11.53-12.5,24.51-23.65,36.27-35.95,7.1-7.43,17.46-13.83,13.06-27.13-.35-1.07.61-3.27,1.63-3.99,26.19-18.37,52.61-36.63,87.31-27.97,22.84,5.7,45.22,12.91,63.88,28.11,4.5,3.66,11.16,7.54,7.61,14.98-3.31,6.94-8.46,11.68-17.6,10.07-4.41-.78-11.67-4-13.29,2.36-1.61,6.36,2.09,13.05,6.74,18.28.7.79,1.89,1.14,2.83,1.73,9.72,6.15.92-14.71,11.87-8.16,1.68,1,14.41,10.13,9.76-5.77-1.35-4.61,4.65-5.48,7.83-7.41,8.63-5.24,15.47-11.41,13.23-22.92-.56-2.87-.89-5.74,3.03-6.61,4.37-.97,8.11,1.1,10.9,3.68,3.86,3.57,1.32,4.93-2.77,6.38-4.48,1.59-2.98,5.82-.82,8.31,2.95,3.4,7.22,4.04,10.35.25,17.35-20.98,44.32-16.9,66.61-24.59,7.18-2.48,19.17,9.38,15.06-10.59-.79-3.83,8.93-4.28,14.68-1.67,13.82,6.27,27.8,12.16,41.8,18.24,3.33-4.63-.88-6.51-1.92-9.15-2.54-6.5-15.03-8.1-10.84-17.11,5.21-11.18,11.86-22.3,22.88-28.99,6.87-4.17,12.88.11,9.78,6.9-6.33,13.88,1.87,25.2,3.86,37.45,3.08,18.95-.47,25.04-20.51,28.87,6.94,7.09,15.02,7.87,20.83,1.62,6.16-6.63,18.91-13.31,9.81-25.07-7.09-9.16,5.78-21.39-5.99-29.18-.34-.22,3.44-10.55,9.07-13.03,6.12-2.69,7.35,3.4,9.97,6.69,3.08,3.87,5.72,8.27,14.55,9.18-5.89-5.57-10.08-10.34-6.04-16.65,3.9-6.09,12.38-7.09,36-3.43-12.16-13.45-4.34-19.61,6.57-26,22.25-13.03,44.4-25.49,71.69-21.39,2.17.33,5.8.49,6.55-.69,19.13-29.81,45.51-5.64,68.12-8.94,7.34-1.07,14.25,4.29,16.62,12.24,2.36,7.89-1.25,14.33-6.7,19.91-6.82,6.98-17,10.45-22.81,21.42,10.6-1.81,15.76-9.4,23.05-12.83,8.54-4.03,18.85-14.47,25.07,3.84,1.69,4.98,40.89,7.02,45.5,2.76,8.79-8.13,17.9-6.06,26.49-.92,6.79,4.06,11.85,8.83,8.25,19.3-3.88,11.32,14.85,7.08,14.22,18.69,7.19-22.82,25.07-6.87,36.81-11.66,2.57-1.05,7.61,1.5,11.24-2.5,13.06-14.36,31.08-17.02,46.66-4.33,15.22,12.39,31.54,17.65,50.43,15.09,12.38-1.68,20.84,1.93,25.63,13.87,3.43,8.56,8.74,11.21,18.79,8.3,11.74-3.41,24.78-5.38,34.91,5.53,2.09,2.26,3.25,4.71,4.68-.71,3.01-11.45,12.98-9.58,20.8-8.62,26.35,3.22,52.42,6.39,68.82,32.76,3.04,4.88,15.79,6.17,22.78,11.61,10.22,7.95,9.95,17.53-.41,24.79-4.84,3.39-9.12,4.57-11.83-2.63-1.55-4.11-2.45-9.47-8.1-9.84-8.82-.58-12.74-11.44-22.25-10.14,4.76,14.51-20.86,20.62-10.04,37.43,3.36,5.22-.79,9.42-7.37,9.9-17.79,1.3-32.35,9.56-45.23,21.35-2.41,2.21-5.02,5.96-8.52,3.83-17.59-10.67-15.97,5.75-14.54,12.38,6.25,28.95-14.11,46.32-26.22,72.01-4.81-11.9-7.63-19.62-11.02-27.09-8.83-19.45-6.63-35.75,11.14-49.69,9.99-7.84,18.69-17.59,24.27-34.38-9.52,7.33-14.95,17.24-25.16,6.39-4.24-4.51-13.43,1.06-16,5.91-12.83,24.28-34.76,18.68-53.93,15.46-18.18-3.05-30.8,1.72-41.88,15.07-5.79,6.98-12.14,13.5-18.25,20.22-4.99,5.49-5.36,9.44-1.26,17.26,4.57,8.72,7.39,6.64,13.83,4.41,11.57-4.01,12.82,8.24,18.74,13.19l-.04-.48ZM309.09,241.73c-12.62-5.8-22.87-1.43-31.69,1.21-11.69,3.5-15.3-1.45-18.98-10.19-4.79-11.38-5.1-20.54,8.6-26.06,4.46-1.8,8.55-5.73,11.51-9.67,3.37-4.48,10.27-10.9,1.98-15.41-6.06-3.3-15.76-3.35-18.31,6.05-2.76,10.2-8.89,16.57-17.24,21.89-12.58,8.02-13.76,18.09-5.45,30.16,2.87,4.17,9.21,9.31,1.43,14.12-9.61,5.94-14.54,14.91-19.8,24.32-4.79,8.56-11.44,15.94-23.28,9.43-5.75-3.16-8.89,1.36-9.83,5.71-1.12,5.19,3.36,6.44,7.62,6.57,6.16.18,12.87,2.4,18.14,1.74,13.2-1.68,31.18-2.92,36.48-14.05,6.02-12.65,10.88-20.86,27.61-19.26-9.74-10.27-8.83-14.48,2.66-16.72,9.03-1.76,19.17-1.31,28.54-9.84ZM365.73,432.16c6.66-3.29,16-1.11,18.1-8.74,1.73-6.27-6.58-7.98-10.25-11.92-13.81-14.83-37.7-10.03-50.85-26.38-1.73-2.15-6.95-1.16-9.25,1.67-6.04,7.4-12.2,14.82-17.24,22.9-5.01,8.03,2.01,13.99,6,19.59,4.78,6.71,8.63-1.08,12.43-2.66,12.72-5.3,24.94-6.19,37.48.36,4.41,2.3,9.35,3.6,13.59,5.19ZM470.25,388.43c-9.56-14.78-18.29-17.45-30.33-9.84-18.86,11.91-21.17,19.73-10.06,38.77,5.45,9.33,12.42,16.11,7.24,30.21-4.05,11.03,11.59,12.86,20.55,14.1,5.91.81,16.17-4.72,11.49-9.85-10.99-12.03-3.82-32.12-20.33-40.68-4.61-2.4-7.71-7.08-6.44-12.83,1.45-6.52,7.23-8.46,12.71-9.72,3.69-.85,7.72-.16,15.17-.16ZM338.07,389.94c14.75,4.44,19.73-4.68,25.51-14.6-12.84-2.63-18.93,4.28-25.51,14.6Z"/>
      <path class="cls-1" d="M1107.01,983.71c1.25,29.7-10.53,54.24-28.85,76.24-18.58,22.31-55.44,17.14-66.75-9.73-6.17-14.67-17.7-25.15-30.43-31.21-18.15-8.63-38.73-6.1-54.97,6.13-14.84,11.18-31.78,9.91-47.98,13.26-6.83,1.41-14.68-2.52-12.16-9.77,7.76-22.31-5.7-40.85-8.85-61.09-5.44-35.01-1.89-42.24,31.67-51.08,13.36-3.52,23.57-9.62,30.05-22.37,5.54-10.9,13.68-19.31,27.27-20.26,3.69-.26,8.77-1.09,9.86-5.49,5.43-21.9,21.87-12.28,34.54-11.73,3.63.16,14.02,2.31,4.87,11.03-2.35,2.24-.05,5.31,2.33,7.08,2.25,1.68,4.72,3.08,7.12,4.55q24.35,14.88,28.33-13.75c.37-2.66.91-6.32,2.71-7.54,3.6-2.44,6.12,1.35,8.15,3.69,9.56,10.97,20.94,20.52,22.9,36.68,1.16,9.57,6.93,16.69,15.26,23.11,20.14,15.53,22.43,39.26,24.91,62.28Z"/>
      <path class="cls-1" d="M1005.43,828.34c10.16-18.02,9.19-19.13-29.29-35.87,5.63-10.63,10.87-11.37,24.33-8.83,28.46,5.38,53.51,16.24,78.66,29.32,7.85,4.08,15.36-4.95,20.09-11.83,2.6-3.78,4.12-7.11,8.64-3.39,5.18,4.26,2.36,7.92-1.72,10.9-10.76,7.85-23.99,7.96-39.62,10.44,8.42,7.4,14.64,12.69,20.63,18.23,2.19,2.03,7.13,3.5,4.53,7.5-2.9,4.47-7.06,1.59-10.51-.23-1.47-.78-2.69-2.05-3.97-3.16-7.82-6.79-13.62-24.17-26.35-4.24-1.95,3.05-8.53,1.39-12.66-1.28-9.7-6.26-20-10.49-32.75-7.55Z"/>
      <path class="cls-1" d="M401.04,926.92c-.75-6.52.04-11.93,3.3-16.99,2.81-4.36,5.75-9.83,2.95-14.39-9.27-15.12-1.38-22.15,11.44-28.01,2.84-1.3,4.59-4.86,7.01-7.19,3.31-3.19,2.14-11.93,9.25-9.78,6.85,2.07,11.62,8.72,10.71,15.83-3.44,26.87-7.86,53.75-16.81,79.33-4.23,12.09-16.47,11.43-23.22.1-3.58-6.01-4.57-12.75-4.63-18.91Z"/>
      <path class="cls-1" d="M893.36,714.23c-7,14.23-4.95,27.39-5.69,40.43-.68,12.14-8.97,26.79-18.58,34.59-7.95,6.45-21.47-1.07-31.47-6.54-8.55-4.67-10.63-12.44-9.58-21.65,1.01-8.79,7.09-10.48,14.32-11.29,10.69-1.2,16.5-10.03,22.05-17.11,7.31-9.32,16.41-13.73,28.95-18.44Z"/>
      <path class="cls-1" d="M1058.51,406.46c-14.63,4.93-18.33,28.39-42.81,20.42,16.53,25.05,14.86,48.91-3.63,65-9.75,8.49-25.17,21.92-44.5,12.54,4.15,9.29,4.1,17.08-4.85,22.51-9.35-17.91-5.99-29.57,10.32-36.1,38.7-15.51,42.36-21.08,39.45-62.95-.6-8.69,8.32-10.14,10.52-16.21,3.66-10.1,8.05-5.25,13.4-1.6,8.6,5.88,13.65-4.93,22.1-3.6Z"/>
      <path class="cls-1" d="M484.36,121.18c-8,4.1-15.02,2.25-21.02-.04-5.83-2.23-11.78-1.15-8.41-15.39,6.54-27.65,27.14-38.31,45.15-52.73,13.59-10.89,33.27-2.97,48.36-11.67.6-.35,3.64,1.68,3.55,2.31-.3,2.03-1.04,5.08-2.48,5.68-7.24,3.03-14.56,6.4-22.19,7.84-23.26,4.38-36.86,20.95-49.4,38.5-6.8,9.51.71,17.85,6.44,25.51Z"/>
      <path class="cls-1" d="M89.21,342.78c-.17-.68-.54-1.27-.42-1.75,7.33-29.7,7.55-32.44-4.15-58.65-2.5-5.61-1.65-9.69.31-14.24,1.63-3.78,4.69-6.62,9.23-5.94,5.55.84,1.63,5.34,2.68,7.65,7.35,16.25,9.09,35.51,26.19,46.63,6.02,3.91,7.14,11.53,4.67,18.43-2.45,6.84-8.8,8.09-15.22,8.46-7.79.45-15.65,2.67-23.3-.6Z"/>
      <path class="cls-1" d="M746.64,724.81c4.92.46,8.04,2.83,10.93,5.65,12.96,12.67,26,25.26,38.84,38.04,2.36,2.35,4.31,5.3,5.85,8.28,4.41,8.54,6.88,19.25-1.33,24.77-8.95,6.02-14.86-4.54-19.84-10.57-4.95-5.99-8.95-13.15-11.83-20.4-5.27-13.23-10.22-26.33-22.33-35.19-2.62-1.92-5.28-4.82-3.88-8.64.4-1.1,2.72-1.5,3.6-1.94Z"/>
      <path class="cls-1" d="M248.95,3.61c9.51,1.81,18.21,9.44,28.98,4.35,2.01-.95,4.43,1.17,4.81,3.61.39,2.48-1.11,4.24-3.7,4.52-14.17,1.58-24.64,10.73-35.83,18.04-12.65,8.26-21.99,2.31-29.22-6.83-5.89-7.45-7.14-15.71,6.86-17.45,9.42-1.17,18.63-4.08,28.09-6.25Z"/>
      <path class="cls-1" d="M1173.82,1141.9c-8.97-2.08-9.83-7.75-4.74-13.65,10.71-12.43,22.2-24.2,33.42-36.2,2.87-3.07,5.78-2.5,8.92-.06,2.81,2.19,6.17,4.52,3.1,8.1-11.74,13.72-23.8,27.17-35.91,40.57-.94,1.04-3.21.87-4.79,1.24Z"/>
      <path class="cls-1" d="M810,808.91c18.48,10.05,40.18-.69,56.54,17.18,4.77,5.21,19.09,1.81,29.04,2.08,8.08.22,16.18.05,26.09.05-6.71,7.05-16.18,3.81-20.33,11.04-.49.85-3.43,1.35-4.39.73-12.77-8.31-12.73-8.43-22.71-8.51-20.01-.16-38.78-6.57-57.81-11.59-3.1-.82-6.41-2.54-6.45-10.97Z"/>
      <path class="cls-1" d="M759.13,694.93c20.01,12.35,28.04,32.81,37.78,51.98,2.24,4.41-.71,5.91-4.93,5.44-4.77-.53-8.54-3.18-11.41-6.6-12.36-14.75-12.55-34.47-21.44-50.82Z"/>
      <path class="cls-1" d="M929.86,688.89q-9.38-16.18-22.71-2.83c.27-17.03-18.28-28.32-8.95-46.42,2.07-4.01.32-12.07,8.52-8.48,5.73,2.5,8.99,10.78,5.14,14.21-12.91,11.53-.23,14.22,5.39,19.45,6.15,5.73,11.36,11.85,12.61,24.08Z"/>
      <path class="cls-1" d="M78.21,301.69c-2.31,8.93,5.35,16.27,1.77,22.92-3.62,6.72-10.37,10.22-17.59,12.44-2.45.75-4.98.04-4.86-2.74.35-8.22-3.26-17.67,4.41-24.02,4.62-3.83,10.79-5.79,16.27-8.59Z"/>
      <path class="cls-1" d="M763.02,22.41c-11.16,3.29-22.83,8.71-34.79.33-5.65-3.96-9.82-9.15-4.8-15.35,4.91-6.07,11.57-7.39,16.05,1.27,5.14,9.92,21.39-.41,23.54,13.75Z"/>
      <path class="cls-1" d="M892.01,785.72c2.05-6.41-.46-17.06,10.66-15.33,6.44,1,16.5,5.02,7.57,15.84-.79.96.55,3.44.04,4.92-2.24,6.48,15.11-3.44,6.48,7.73-4.83,6.25-11.03,3.15-17.17,1.84-9.41-2-5.13-9.85-7.58-15.01Z"/>
      <path class="cls-1" d="M1029.69,72.89c-9.05,11.58-16.3,5.33-23.38,3.35-6.5-1.82-13.62-5.47-14.95,5.89-.37,3.19-1.82,5.46-5.48,3.62-4.98-2.5-10.68-4.38-13.07-10-1.23-2.89.96-5.37,3.16-7.16,4.66-3.78,10.66-5.91,15.85-3.7,11.34,4.84,23.27,6.69,37.86,8Z"/>
      <path class="cls-1" d="M1216.52,1046.69c11.63,2.15,12.17,20.42,27.03,14.57-13.37,29.35-15.68,30.81-30.52,19.9q8.7-11.26,3.49-34.47Z"/>
      <path class="cls-1" d="M939.71,709.05c-1.03,5.22-.89,14.34-8.62,12.48-5.97-1.43-14.1-7.43-14.17-15.26-.08-9.48,10.33-10.16,16.24-10.69,6.08-.55,6.47,7.31,6.55,13.47Z"/>
      <path class="cls-1" d="M1064.81,1092.67c-2.86,5.27-.63,15.2-10.49,14.55-6.68-.44-5.24-7.65-5.81-12.4-1.09-9.13,7.48-9.57,12.3-10.72,6.24-1.49,3.79,4.84,4.01,8.58Z"/>
      <path class="cls-1" d="M647.52,698.51c6.31,3.42,8.74,8.98,9.03,15.45.24,5.2-2.68,9.49-7.87,9.2-7.2-.4-9.05-6.23-8.16-12.43.68-4.74,1.01-10.23,6.99-12.23Z"/>
      <path class="cls-1" d="M1016.96,330.83c3.57-2.11.92-8,7.94-9.89,2.36,12.45,4.71,24.83,7.48,39.43-16.02-6.95-8.15-21.91-15.44-29.96-.02-.06.03.42.03.42Z"/>
      <path class="cls-1" d="M922.23,842.76c11.06-1.25,10.12-24.07,28.65-15.06-8.83,8.21-17.62,13.56-28.65,15.06Z"/>
    </g>
  </g>
</svg>