<?xml version="1.0" encoding="UTF-8"?>
<svg id="Camada_2" data-name="Camada 2" xmlns="http://www.w3.org/2000/svg" viewBox="0 0 120.86 70.77">
  <defs>
    <style>
      .cls-1 {
        fill: none;
        stroke: #b8694b;
        stroke-miterlimit: 10;
      }
    </style>
  </defs>
  <g id="Camada_1-2" data-name="Camada 1">
    <path class="cls-1" d="M2.52,37.92c-4.02,9.19-1.97,20,5.45,26.75.28.25.54.48.79.67,9.1,7.18,23.13,6.25,32.67-1.01,4.01-3.05,6.63-7.52,9.31-11.78,3.91-6.21,8.28-12.35,14.35-16.47,9.19-6.23,23.6-6.57,34.29-3.99,4.99,1.2,9.71,3.38,13.96,6.24,1.65,1.11,6.39,3.76,7.05,5.81-1.44-4.51-3.74-9.96-7.5-15.58-9.52-14.24-22.61-20.85-29.16-23.59-4.55-1.8-11.49-3.95-20.15-4.39-15.67-.8-27.32,4.47-31.22,6.41C18.15,14.06,10.23,24.77,6.49,30.5c-1.58,2.41-2.88,4.95-3.96,7.42Z"/>
  </g>
</svg>