<?xml version="1.0" encoding="UTF-8"?>
<svg id="Camada_2" data-name="Camada 2" xmlns="http://www.w3.org/2000/svg" viewBox="0 0 69.77 119.89">
  <defs>
    <style>
      .cls-1 {
        fill: #b8694b;
      }
    </style>
  </defs>
  <g id="Camada_1-2" data-name="Camada 1">
    <path class="cls-1" d="M32.36,2.02C23.16-2,12.36.05,5.61,7.47c-.25.28-.48.54-.67.79-7.18,9.1-6.25,23.13,1.01,32.67,3.05,4.01,7.52,6.63,11.78,9.31,6.21,3.91,12.35,8.28,16.47,14.35,6.23,9.19,6.57,23.6,3.99,34.29-1.2,4.99-3.38,9.71-6.24,13.96-1.11,1.65-3.76,6.39-5.81,7.05,4.51-1.44,9.96-3.74,15.58-7.5,14.24-9.52,20.85-22.61,23.59-29.16,1.8-4.55,3.95-11.49,4.39-20.15.8-15.67-4.47-27.32-6.41-31.22-7.06-14.22-17.78-22.13-23.51-25.88-2.41-1.58-4.95-2.88-7.42-3.96Z"/>
  </g>
</svg>