<?xml version="1.0" encoding="UTF-8"?>
<svg id="Camada_2" data-name="Camada 2" xmlns="http://www.w3.org/2000/svg" viewBox="0 0 58.11 134.94">
  <defs>
    <style>
      .cls-1 {
        fill: none;
        stroke: #b8694b;
        stroke-miterlimit: 10;
      }
    </style>
  </defs>
  <g id="Camada_1-2" data-name="Camada 1">
    <path class="cls-1" d="M.2,134.49c10.81-4.74,39.88-20.21,38.53-48.76-.37-7.72,1.06-13.66,3.2-16.43,2.14-2.77,13.66-4.69,13.66-4.69l-12.59-2.99c-3.63-4.31-8.84-7.85-14.68-7.45-5.99.41-11.76,3.3-15.75,7.78-2.31,2.59-4.23,5.78-6.06,8.72-.49.79-2.31,2.94-2.24,3.95-.58-8.66,4.17-16.7,10.15-22.25,5.73-5.32,12.44-10.1,16.1-17.22,4.39-8.53,3.09-18.08-2.38-25.72-1.51-2.11-6.04-6.51-8.87-9.05"/>
  </g>
</svg>