<?xml version="1.0" encoding="UTF-8"?>
<svg id="Camada_2" data-name="Camada 2" xmlns="http://www.w3.org/2000/svg" viewBox="0 0 90.59 134.11">
  <defs>
    <style>
      .cls-1 {
        fill: #b8694b;
      }
    </style>
  </defs>
  <g id="Camada_1-2" data-name="Camada 1">
    <path class="cls-1" d="M26.34,134.11c2.74-2.2,9.91-8.07,12.29-11.08,7.91-10.03,6.89-25.49-1.11-36.01-3.36-4.42-8.29-7.31-12.98-10.26C8.86,66.9-5.35,53.57,1.99,23.16,5.13,10.14,13.2,2.62,15.27,0h38.98c2.83,2.54,7.37,6.95,8.87,9.05,5.47,7.64,6.77,17.18,2.38,25.72-3.66,7.12-10.36,11.9-16.1,17.22-5.98,5.54-10.72,13.59-10.15,22.25-.07-1.01,1.75-3.16,2.24-3.95,1.83-2.94,3.75-6.13,6.06-8.72,3.99-4.47,9.76-7.37,15.75-7.78,5.84-.4,11.06,3.15,14.68,7.45l12.59,2.99s-11.52,1.92-13.66,4.69c-2.14,2.77-3.57,8.71-3.2,16.43,1.36,28.55-27.72,44.01-38.53,48.76h-8.87Z"/>
  </g>
</svg>