<?xml version="1.0" encoding="UTF-8"?>
<svg id="Camada_2" data-name="Camada 2" xmlns="http://www.w3.org/2000/svg" viewBox="0 0 75.38 137.83">
  <defs>
    <style>
      .cls-1 {
        fill: #b8694b;
      }
    </style>
  </defs>
  <g id="Camada_1-2" data-name="Camada 1">
    <path class="cls-1" d="M20.74,0c1,.53,9.04,7.99,11.15,10.94,5.47,7.64,6.77,17.18,2.38,25.72-3.66,7.12-10.36,11.9-16.1,17.22-5.98,5.54-10.72,13.59-10.15,22.25-.07-1.01,1.75-3.16,2.24-3.95,1.83-2.94,3.75-6.13,6.06-8.72,3.99-4.47,9.76-7.37,15.75-7.78,5.84-.4,11.06,3.15,14.68,7.45l12.59,2.99s-11.52,1.92-13.66,4.69c-2.14,2.77-3.57,8.71-3.2,16.43C44.16,122.27,0,137.6,0,137.6c5.89.47,15.18.49,25.87-2.75,15.13-4.58,24.87-13.18,29.34-17.7,7.99-8.08,12.41-16.49,14.81-22.2,2.26-5.44,5.36-14.84,5.36-26.85,0-6.38-.87-17.14-6.3-29-6.51-14.25-16.11-22.49-19.99-25.54C37.87,4.7,26.75,1.24,20.74,0Z"/>
  </g>
</svg>