<?xml version="1.0" encoding="UTF-8"?>
<svg id="Camada_2" data-name="Camada 2" xmlns="http://www.w3.org/2000/svg" viewBox="0 0 440.45 327.32">
  <defs>
    <style>
      .cls-1 {
        fill: none;
        stroke: #ba694b;
        stroke-miterlimit: 10;
        stroke-width: 5px;
      }
    </style>
  </defs>
  <g id="Layer_1" data-name="Layer 1">
    <path class="cls-1" d="M320.55,23.03c-10.84,16.35-1.13,18.35,9.42,21.88,19.41,6.49,38.38,8.15,58.18,1.93,16.79-5.27,31.38.94,43.95,11.88,6.83,5.95,8.82,12.35-.25,19.42-14.85,11.58-31.89,21.83-34.12,44.37,2.85-10.67-28.01-12.12-4.75-26.44-14.32-6.72-25.05-3.85-34.68,6.36-12.52,13.28-19.48,29.16-21.94,46.95-1.7,12.32-6.71,21.45-19.14,25.38-9.09,2.87-11.21,10.64-12.36,18.64-2.47,17.11-10.39,29.49-27.55,35.29-4.65,1.57-10.2,4.54-12.4,8.5-6.22,11.21-13.47,12.02-24.89,7.74-11.08-4.16-16.8,5.27-19.42,13.95-2.29,7.6-4.05,15.02,9.15,18.93,10.95,3.25,19.59,14.43,29.12,22.25,3.24,2.65,3.19,6.29.08,8.71-5.07,3.95-9.65,2.03-13-2.81-6-8.66-10.69-18.48-22.06-24.12-2.09,15.57,6.16,24.18,16.8,31.11,3.41,2.22,8.3,3.45,5.42,8.3-2.74,4.61-8.69,4.61-11.63.89-6.27-7.93-15.92-12.74-19.7-23.01-5.22-14.19-14.48-26.12-26.58-34.7-21.45-15.21-36.97-37.14-60.76-49.99-16.19-8.75-21.56-26.78-19.72-44.34,2.64-25.27-12.85-42.71-23.93-61.79-7.4-12.74-19.43-5.25-28.73-.66-23.98,11.84-31.96,10.26-47.25-11.26-9.37-13.19-6.01-30.53,7.93-40.32,11.92-8.37,25.62-10.45,39.09-6.95,31.84,8.26,60.32-2.95,89.12-13.24,2.63-.94,5.72-4.32,7.4-3.63,15.66,6.39,22.49,1.68,20.99-15.27-.2-2.23,1.71-3.56,4.07-4.66C197.4,2.5,219.26.61,241.93,4.15c5.88.92,5.96,5.29,5.37,8.78-1.98,11.8,5.87,11.93,13.97,13.89,19.47,4.7,38.67,9.67,59.28-3.79Z"/>
  </g>
</svg>