<?xml version="1.0" encoding="UTF-8"?>
<svg id="Camada_2" data-name="Camada 2" xmlns="http://www.w3.org/2000/svg" viewBox="0 0 252.15 219.92">
  <defs>
    <style>
      .cls-1 {
        fill: #ba694b;
      }
    </style>
  </defs>
  <g id="Layer_1" data-name="Layer 1">
    <path class="cls-1" d="M252.06,129.68c1.25,29.7-10.53,54.24-28.85,76.24-18.58,22.31-55.44,17.14-66.75-9.73-6.17-14.67-17.7-25.15-30.43-31.21-18.15-8.63-38.73-6.1-54.97,6.13-14.84,11.18-31.78,9.91-47.98,13.26-6.83,1.41-14.68-2.52-12.16-9.77,7.76-22.31-5.7-40.85-8.85-61.09C-3.37,78.5.18,71.27,33.74,62.43c13.36-3.52,23.57-9.62,30.05-22.37,5.54-10.9,13.68-19.31,27.27-20.26,3.69-.26,8.77-1.09,9.86-5.49,5.43-21.9,21.87-12.28,34.54-11.73,3.63.16,14.02,2.31,4.87,11.03-2.35,2.24-.05,5.31,2.33,7.08,2.25,1.68,4.72,3.08,7.12,4.55q24.35,14.88,28.33-13.75c.37-2.66.91-6.32,2.71-7.54,3.6-2.44,6.12,1.35,8.15,3.69,9.56,10.97,20.94,20.52,22.9,36.68,1.16,9.57,6.93,16.69,15.26,23.11,20.14,15.53,22.43,39.26,24.91,62.28Z"/>
  </g>
</svg>