<?xml version="1.0" encoding="UTF-8"?>
<svg id="Camada_2" data-name="Camada 2" xmlns="http://www.w3.org/2000/svg" viewBox="0 0 420.01 374.94">
  <defs>
    <style>
      .cls-1 {
        fill: none;
        stroke: #ba694b;
        stroke-miterlimit: 10;
        stroke-width: 5px;
      }
    </style>
  </defs>
  <g id="Layer_1" data-name="Layer 1">
    <path class="cls-1" d="M2.65,103.9c-1.63-16.08,10.16-32.13,13.06-50.52,1.91-12.09,18.13-16.28,27.34-6.13,22.9,25.24,45.12,15.28,68.95,3.12,10.37-5.29,19.13-15.86,33.74-10.63,5.7,2.04,8.28-5.45,8.58-10.43,1.35-22.3,19.03-23.35,34.44-26.02,9.33-1.62,19.2-.33,28.82.06,13.5.55,24.8,3.48,20.9,21.37-.43,1.95.27,4.7,1.46,6.35,3.08,4.29,42.88,10.37,48.16,7.7,18.32-9.27,18.48-9.26,22.24,9.33.84,4.16,3.78,5.3,7.06,6.32,14.86,4.6,29.05,17.17,45.19,1.37,4.77-4.67,12.02.8,17.32,3.41,8.59,4.23,17.17,8.95,24.65,14.85,17.84,14.09,17.06,29.77-1.25,42.95-3.64,2.62-7.42,3.68-10.73.27-11.53-11.87-18.95-3.89-26.15,5.17-4.74,5.97-8.64,12.56-16.98,3.5-6.73-7.31-9.9-2.83-12.68,4.65-4.07,10.98-1.82,22.56-4.58,33.62-3.34,13.37-5.79,26.75-22.53,30.44-7.3,1.61-8.91,8.78-8.82,14.99.31,23.18-12.69,37.73-30.43,49.81-19.49,13.27-34.95,28.81-32.58,55.46.94,10.56,3.17,19.99,9.53,28.47,5.32,7.09,9.68,15.66,4.66,23.58-5.63,8.89-16.12,4.83-23.41,2.56-28.07-8.76-52.44-21.77-56.37-55.82-1.82-15.73-11.49-28.15-21.65-39.79-10.08-11.54-20.31-22.96-30.61-34.31-16.58-18.28-25.78-39.54-27.92-64.24-1.37-15.76-2.95-31.72-10.43-46.17-8.41-16.27-19.09-19.22-34.68-9.41-6.23,3.92-11.85,8.78-17.97,12.87-5.42,3.63-10.54,10.18-18.02,5.78-6.32-3.72-8.2-10.54-8.3-17.68-.06-4.54-.01-9.08-.01-16.83Z"/>
  </g>
</svg>