<?xml version="1.0" encoding="UTF-8"?>
<svg id="Camada_2" data-name="Camada 2" xmlns="http://www.w3.org/2000/svg" viewBox="0 0 350.06 359.96">
  <defs>
    <style>
      .cls-1 {
        fill: #ba694b;
      }
    </style>
  </defs>
  <g id="Layer_1" data-name="Layer 1">
    <path class="cls-1" d="M138.07,18.33c4.08,2.06.28,7.36,3.14,10.12,1.35-.15,3.04.08,3.31-.44,21.35-40.52,82.82-33.93,103.84-.43,3.56,5.67,4.86,12.66,12.81,3.62,3.25-3.69,11.73-4.83,13.5.18,7.74,21.94,31.49,19.57,45.49,31.62.81.69,2.15.72,3.14,1.25,9.87,5.41,26.97,4.15,26.76,19.26-.2,14.48-16.62,15.18-26.94,19.41-23.43,9.6-36.26,25.12-37.31,51.26-.84,20.79-10.17,28.92-30.62,31.61-8.43,1.11-16.82,2.54-25.25,3.65-18.04,2.38-30.43,11.26-35.05,29.59-2.7,10.7-7.48,20.63-16.74,26.88-21.14,14.27-23.39,34.7-19.89,57.2,1.39,8.94,4.01,17.7,5.24,26.66,2.64,19.28-7.38,30.29-26.83,30.17-27.67-.17-47.89-20.96-47.73-48.64.07-12.44,3.04-24.73.82-37.33-4-22.78-16.51-34.96-39.55-37.38-40.05-4.21-64.54-60.99-40.98-94.51,5.7-8.11,14.2-8.79,22.41-10.22,12.95-2.26,16.71-8.9,10.02-20.16-5.65-9.51-4.04-17.25,4.61-23.11,7.4-5.01,6.79-14.92,13.57-20.07.62-.47.62-2.04.55-3.07-.43-6.28-10.95,2.08-9.93-6.97.74-6.56,10.06-.64,10.51-8.25.27-4.64,2.85-12.53,5.52-13.04,10.22-1.95,10.69-10.25,14.2-16.92,3.87-7.34,10.47-12.53,18.7-11.76,7.63.72,16.01,3.33,18.46,12.36,4.13,15.2,8.93,13.84,14.88,1.11.98-2.11,2.15-4.07,5.35-3.67Z"/>
  </g>
</svg>