<?xml version="1.0" encoding="UTF-8"?>
<svg id="Camada_2" data-name="Camada 2" xmlns="http://www.w3.org/2000/svg" viewBox="0 0 921.81 1188.94">
  <defs>
    <style>
      .cls-1 {
        fill: none;
        stroke: #ba694b;
        stroke-miterlimit: 10;
        stroke-width: 5px;
      }
    </style>
  </defs>
  <g id="Layer_1" data-name="Layer 1">
    <g>
      <path class="cls-1" d="M214.68,382.9c6.63-1.35,9.59,5.98,15.48,3.43-3.2-6.02-8.95-8.71-14.19-11.41-9.29-4.79-24.14-5.02-15.42-22.14-21.1-27.3-27.88-67.96-70.27-75.38-11.91-2.09-24.07-16.4-35.68.59-19.94-8.98-20.71,11.22-29.5,19.3-13.31,12.23-23.89,28.33-46.74,34.3,10.43-13.78,22.72-20.98,29.6-36.45-15.56,5.44-22.39-5.27-31.1-11.35-3.68-2.57-8.6-6.36-4.56-12.72,1.12-1.77,2.12-5.76,1.46-6.21-23.09-15.74,5.5-14.77,7.51-22.33.9-3.39,9.81-2.08,8.55-8.5-1.22-6.21-6.76-5.6-11.94-6.54-6.9-1.24-16.41-4.14-15.28-12.42,1.02-7.5,9.9-10.19,17.7-9.09,3.74.53,6.87,1.34,8.3-2.86,1.51-4.43-2.45-5.87-5.21-7.32-13.5-7.08-10.88-13.11-.96-22.44,16.5-15.52,33.57-22.66,56.67-16.88,26.33,6.58,53.36,10.36,80.05,15.52,6.83,1.32,13.49,2.17,19.9-1.32,13.93-7.6,32.04-10.82,44.44-9.28,22.66,2.81,50.38-1.15,67.06,22.31,1.94,2.73,4.63,3.34,7.38,2.94,16.46-2.41,33.78,4.17,49.64-5.81,11.14-7.01,21.34.06,31.98,3.78,8.31,2.91,23.73,16.06,20.29-9.46-.55-4.06,4.13-8.23,8.8-9.22,2.32-.49,5.68.71,7.63,2.29,6.58,5.35-1.89,5.46-3.25,8-2.08,3.89-1.97,5.78,2.91,6.98,7.04,1.74,13.88,4.32,22.54,7.09-1-9.39,1.81-18.5-10-22-1.88-.56-4.65-2.81-4.65-4.27.06-14.94,6.68-29.16,4.18-44.66-.62-3.87,6.71-5.15,11.44-4.32,5.09.88,10.38,2.5,12.75,7.29,2.64,5.35-2.2,9.16-5.81,10.75-13.73,6.07-9.71,11.28-2.66,21.23,6.46,9.13,9.03,19.94,22.99,20.97,2.04.15,3.48,8.53,5.23,13.16,6.2-.9,5.56-6.7,7.9-10.17,5.94-8.81,5.79-14.7-6.42-18.14-12.4-3.49-17.54-12.05-10.54-24.71,4.18-7.55,9.92-12.87,19.24-9.69,9.59,3.28,3.14,10.12,3.01,15.64-.05,2,1.28,4.04,2.02,6.19,8.72-4.62.04-20.93,16.1-20.16,17.39.83,36.17-5.76,46.69,16.18,3.71,7.75,14.24,8.38,21.75,12,9.5,4.58,18.49,8.57,17.62,21.79-.61,9.3,8.35,11.11,14.21,15.07,4.69,3.17,9.74,5.79,14.44,8.93,5.74,3.84,9.63,8.57,3.61,15.12-5.9,6.4-9.38,1.75-13.34-2.94-2.2-2.61-5.08-7.33-9.61-3.38-4.49,3.91-.4,7.06,1.89,10.04,1.73,2.24,4.09,4,5.71,6.3,3.46,4.92,9.45,10.12,4.22,16.38-5.4,6.46-9.93-.82-14.54-2.97-3.22-1.51-6.09-3.14-8.91.41-.82,4.02,3.03,4.15,4.88,5.91,3.7,3.53,8.71,7.4,4.1,12.64-5.14,5.84-8.87-.33-12.61-3.25-7.59-5.93-15.05-12.02-22.65-17.93-5.78-4.5-10.43-12.38-19.66-4.24-3.46,3.06-8.92.52-11.97-3.28-1.12-1.4-1.56-4.74-.66-6.11,2.46-3.75,5.87-7.21,11.08-5.11,13.83,5.59,16.21-7.45,20.96-14.12,4.94-6.95.37-14.72-6.34-18.84-9.63-5.91-13.11-24.19-31.17-15.02-3.02,1.53-8.46-11.52-17.84-8.04-3.36,1.25-8.52-2.01-10.39,2.84-1.48,3.85,2.52,5.89,5.1,7.9,3.81,2.96,5.97,6.97,6.95,11.4,3.71,16.71-.43,21.97-23.79,27.37-7.36,1.7-13.52,1.25-13.52,11.85,0,6.11-5.92,11.64-12.17,12.89-22.08,4.4-29.02,23.58-39.34,39.29-4.02,6.11-5.37,13.07,5.55,14.67,8.51,1.24,13.8,7.6,19.13,13.4,8.51,9.26,19.29,13.46,31.25,15.78,8.43,1.63,15.14,4.88,13.02,15.7-.51,2.6-.14,6.1,1.27,8.22,4.28,6.43,4.63,19.28,16.12,15.7,9.81-3.05,7.07-12.23,4.11-20.24-2.65-7.17-1.25-13.62,7.18-16.21,8.92-2.75,11.52-9.4,9.27-17.27-4.42-15.41-.33-31.1-2.61-46.48-.76-5.13-.13-8.35,5.63-10.26,15.05-5.01,37.04,4.91,42.51,19.75,8.66,23.48,16.32,25.39,37.76,8.92,6.58,11.87,12.86,23.65,12.78,37.69-.03,5.65,2.55,10.64,7.42,12.48,14.53,5.48,15.46,21.49,24.87,30.93,3.56,3.57,1.33,8.66-3.85,10.9-12.82,5.54-24.77,13.5-40.1,10.85-7.55-1.31-15.94-1.84-22.13,4.98,4.52,5.32,15.75-2.76,15.42,5.58-.34,8.56-2.12,19.42-11.8,24.48-5.96,3.13-12.46,5.32-18.85,7.53-9.39,3.25-14.55,11.46-21.57,17.14-22.81,18.47-36.86,39.82-39.51,69.48-.71,7.99-10.7,12.73-17.78,17.41-11.32,7.48-16.61,16.59-10.28,30.15,1.63,3.5,1.69,7.73,2.53,11.61,1.13,5.22,1.92,10.99-4.54,12.65-6.07,1.56-6.91-4.49-8.52-8.51-1.89-4.72-3.42-9.58-5.1-14.39-6.46-18.4-27.93-23.47-41.96-9.18-4.82,4.91-8.1,3.92-13.24,1.91-8.19-3.2-15.53-.43-21.99,5.08-15.52,13.25-20.12,43.75-9.21,61.1,10.01,15.92,27.76,15.7,37.6-.47,1.46-2.4,2.63-5.02,4.32-7.25,4.61-6.07,11.52-5.76,17-3.3,5.75,2.58,1.06,7.91.18,11.97-.71,3.3-1.65,6.59-2.86,9.75-4.99,13.09-5.75,23.31,12.97,24.18,10.14.47,10.89,7.98,9.2,16.21-1.13,5.5-2.29,11.06-2.68,16.65-.75,10.7,2.18,18.05,15.36,15.63,3.78-.69,9.06-1.3,11.58.68,9.23,7.26,13.14,4.51,18.86-4.97,6.86-11.36,31.16-14.73,43.57-8.68,11.32,5.52,23.42,8.32,35.97,9.05,2.82.16,7.09-1.34,8.28.03,18.99,21.84,48.95,28.31,68.43,49.11,4.27,4.56,8.67,10.7,3.93,18.43-3.18,5.19,1.33,6.17,5.24,7.87,18.13,7.87,35.8,16.46,55.27,21.25,29.25,7.2,36.14,25.94,17.86,50.47-13.93,18.69-20.44,38.14-19.69,61.48.81,25.48-6.51,34.54-30.69,42.02-11.35,3.51-19.16,9.29-21.75,21.09-4.62,21.1-21.64,34.16-33.13,50.77-5.68,8.21-13.5.54-20.54.43-3.1,2.57-1.66,6.08-1.11,9.09,3.95,21.49.94,26.48-20.24,29.16-6.53.82-9.24,4.74-13.5,8.47-13.63,11.92-19.4,27.19-26.32,43.51-8.98,21.17-19.38,40.8-16.41,64.57.51,4.07.61,8.41-3.69,10.42-5.08,2.38-8.73-1.15-11.66-4.58-14.56-17.02-18.81-36.85-15.77-58.71,6.14-44.06,13-87.94,22.45-131.5,4.87-22.47,3.97-46.26,4.99-69.48.79-18.03-7.87-30.44-23.07-40.56-28.53-18.98-39.11-47.36-42.68-81.01-2.28-21.47,2.06-38.27,13.98-55.21,5.11-7.26,6.22-17.11,2.56-26.22-2.81-6.99-4.4-18.1-15.04-6.24-3.54,3.94-5.88,1.01-8.49-.86-3.69-2.64-8.95-4.61-10.66-8.23-9.88-20.99-30.65-29.77-46.8-43.76-5.18-4.49-9.62-6.77-16.33-6.72-30.6.27-54.76-15.22-65.3-44.11-7.05-19.33-20.42-36.17-26.09-54.61-6.95-22.6-20.23-29.35-39.41-33.43-2.6-.55-5.73-2.15-7.12-4.25-17.85-26.98-36.01-53.93-32.41-88.76,1.51-14.65,3.02-29.3-2.1-44.52Z"/>
      <path class="cls-1" d="M912.59,14.36c-9.69,8.61-19.63,16.95-29,25.89-10.34,9.87-10.5,19.84-.79,31.14,9.99,11.62,5.4,9.56-1.74,20.16-10.21,15.16-24.99,29.87-21.3,52.2,3,18.13-4.6,27.53-23.73,29.23-13.22,1.18-20.64,6.26-25.15,18.23-4.66,12.38-14.56,17.85-27.61,19.13-27.08,2.65-40.58,16.67-43.97,44.48-.72,5.87,1.37,13.91-6.27,15.9-5.87,1.53-10.22-4.28-13.88-8.4-20.87-23.45-39.1-47.86-26.33-82.19,3.15-8.48,1.57-16.96-1.95-24.85-11.46-25.69-28.03-47.86-48.38-67.11-8.66-8.19-19.28-11.06-31.42-9.08-8.32,1.36-16.88,1.4-25.34,1.76-13.95.58-14.81-13.15-18.06-20.57-3.09-7.05,8.96-7.44,14.69-9.69,7.31-2.88,15.04-5.11,22.79-6.31,8.44-1.31,16.81-1.55,11.99-13.7-1.2-3.03.23-4.09,2.32-4.9,19.07-7.43,37.83-17.18,59.25-9.92,3.48,1.18,6.58,1.51,9.83.41,59.9-20.15,121.08-14.11,181.74-6.46,13.67,1.72,26.35,2.16,39.66-.85.88,1.84,1.77,3.67,2.65,5.51Z"/>
      <path class="cls-1" d="M634.82,7.95c-41.21,27.27-86.04,40.75-119.72,73.1-12.05,11.57-27.68,9.14-42.09,6.39-20.24-3.86-39.45-28.95-42.93-49.45-1.57-9.23,3.74-7.35,7.5-8.31,32.48-8.32,65.74-12.16,98.92-16.16,22.51-2.72,45.21-3.97,67.85-5.46,9.23-.61,18.53-.1,30.47-.1Z"/>
      <path class="cls-1" d="M297.43,130.44c17.31,3.19,34.08-13.14,48.8,5.17,3.85-5.98,3.74-14.98,13.11-15.92,6.4-.65,13.77.77,10.77,7.84-5,11.78,2.14,14.82,9.32,19.71,5.68,3.87,13.38,6.65,9.76,16.97-3.34,9.5-10.27,9.75-17.62,8.66-13.28-1.96-25.56.51-37.9,5.33-12.84,5.02-25.71.95-37.99-2.84-7.48-2.31-10.86-13.64-7.24-16.16,11.51-8.01,1.79-15.66,4.18-26.76-8.66,6.49-14.42,10.7-20.07,15.07-8.78,6.79-26.96,1.75-29.91-8.36-1.8-6.18,13.06-27.18,19.82-27.52,9.62-.48,18.99.69,28.45,3.2,10.48,2.78,13.66,6.98,6.51,15.61Z"/>
      <path class="cls-1" d="M487.65,116.48c-10.34-4.93-23.73,3.07-35.04-4.93-3.28-2.32-7.98-4.09-8.13-7.99-.16-4.22,4.71-6.03,8.36-6.86,19.58-4.42,39.46-1.26,59.21-1.63,5.38-.1,5.87,6.58,7.02,10.57,1.88,6.56-4.6,7.25-8.36,8.09-7.13,1.6-14.56,1.82-23.06,2.74Z"/>
      <path class="cls-1" d="M855.64,208.55c5.54-8.54,11.09-13.21,21.24-9.41,8.74,3.27,17.73,1.47,26.54-.88,6.1-1.63,11.27,0,14.53,5.58,4.04,6.91-1.79,10.28-5.76,13.84-15.81,14.19-29.71,12.31-43.92-4.76-2.25-2.7-7.68-2.76-12.62-4.36Z"/>
      <path class="cls-1" d="M333.03,97.71c6.66-7.81,14.55-13.97,24.78-16,9.24-1.83,16.53,3.11,18.07,11.33,1.46,7.77-7.53,7.32-12.67,8.6-8.57,2.12-17.41,6.4-26.05-.09-1.38-1.28-2.76-2.56-4.13-3.84Z"/>
      <path class="cls-1" d="M398.95,115.94c9.02.89,17.89,2,18.38,13.28.39,8.88-5.42,14.03-13.76,13.26-9.78-.91-16.91-7.86-17.78-17.31-.69-7.54,6.87-9.03,13.15-9.22Z"/>
      <path class="cls-1" d="M265.15,529.19c11.85,3.62,31.94,38.48,36.5,60.43-24.54-14.53-21.83-42.49-36.5-60.43Z"/>
      <path class="cls-1" d="M333.03,97.71c1.38,1.28,2.76,2.56,4.13,3.84-7,11.88-17.93,9.05-28.38,7.38-5.84-.93-11.67-4.53-10.67-10.37,1.12-6.54,5.99-11.26,14.44-11.12,8.86.15,13.59,7.03,20.47,10.27Z"/>
      <path class="cls-1" d="M634.87,404.02c-1.8-5.08.97-8.43,2.96-11.46,3.59-5.44,7.02-15.9,12.21-14.2,7.03,2.31,12.41,10.64,17.59,17.11,2.42,3.03,1.69,8.13-1.44,10.85-4.18,3.63-4.98-2.36-7.45-3.72-8.25-4.56-16,4.18-23.87,1.43Z"/>
      <path class="cls-1" d="M407.21,106.34c-6.9-4.2-17.28-5.65-17-15.89.2-7.05,7.65-9.44,13.89-8.54,8.18,1.18,15.2,7.21,16.43,14.51,1.16,6.86-7.82,7.56-13.33,9.93Z"/>
      <path class="cls-1" d="M506.65,234.91c-6.02,8.29-15.91,4.13-21.86,10.2-2.53,2.59-6.77.34-8.43-2.93-3.66-7.21.47-14.23,2.21-20.87,1.04-3.95,5.78-.92,8.54.83,6.55,4.16,13,8.48,19.54,12.77Z"/>
      <path class="cls-1" d="M268.16,88.67c6.6-10.34,16.56-12.62,26.29-15.47,3.79-1.11,6.82-.84,8.51,2.87,1.72,3.77-.22,6.67-3.46,8.46-9.53,5.26-18.52,14.2-31.34,4.14Z"/>
      <path class="cls-1" d="M625.51,418.03c-7.67,4.47-15.2,9.21-23.08,13.27-3.12,1.61-7.61,4.93-10.38.13-2.38-4.14-.94-8.64,3.11-11.77.42-.32,1.27-.21,1.54-.57,4.38-5.91,14.82,2.24,18.49-9.45,1.64-5.22,3.88,8.79,10.32,8.38Z"/>
      <path class="cls-1" d="M459.77,606.53c13.69-12.72,34.6-7.36,53.45,12.32-8.48,3.02-16.86.02-22.09-4.97-9.31-8.89-18.14-14.53-31.36-7.35Z"/>
      <path class="cls-1" d="M534.43,635.65c-6.92,1.15-12.36-2.25-12.03-6.99.29-4.19,4.41-11.59,9.89-10.72,7.25,1.16,18.92,3.09,19.08,10.36.19,8.24-12.25,3.43-16.95,7.35Z"/>
      <path class="cls-1" d="M382.19,53.38c9.87-.52,15.99,4.31,18.53,12.37,1.2,3.8-3.77,5.67-6.98,4.52-7.54-2.7-17.7-2.93-19.93-12.46-1.12-4.82,5.52-3.82,8.37-4.42Z"/>
      <path class="cls-1" d="M452.53,88.18c-10.4-4.02-15.24,11.92-23.83-.28-3.15-4.47-5.6-10.68-.67-12.81,8.52-3.68,16.05.84,24.5,13.09Z"/>
      <path class="cls-1" d="M336.34,57.95c6.33-1.2,8.72.75,7.81,6.15-.65,3.85-2.75,10.66-5.64,8.1-5.86-5.18-16.8.87-17.52-5.19-1.32-11.15,11.92-4.04,15.36-9.06Z"/>
      <path class="cls-1" d="M81.97,289.71c-1.92,15.69-6.36,24.16-21.6,27.57,4.7-11.84,9.91-19.52,21.6-27.57Z"/>
    </g>
  </g>
</svg>