<?xml version="1.0" encoding="UTF-8"?>
<svg id="Camada_2" data-name="Camada 2" xmlns="http://www.w3.org/2000/svg" viewBox="0 0 433.81 427.67">
  <defs>
    <style>
      .cls-1 {
        fill: #ba694b;
      }
    </style>
  </defs>
  <g id="Layer_1" data-name="Layer 1">
    <path class="cls-1" d="M423.08,132.9c-10.68,7.78-21.5,15.39-31.98,23.42-5.81,4.45-10.82,9.75-9.57,18.13-1.05,2.07-2.11,4.15-3.16,6.22-8.48,6.47-16.92,12.86-27.53,15.8-6.74,1.86-13,5.83-15.25,12.57-10.04,30.11-30.87,56.94-25.11,91.88,3.83,23.23-9.79,38.35-30.8,44.56-16.19,4.78-19.5,14.04-17.49,28.62,1.7,12.33,2.68,24.77,3.77,37.18.57,6.55-.54,13.28-7.34,15.68-8.17,2.88-12.82-3.33-15.65-9.61-8.9-19.76-23.61-34.32-40.2-47.53-20.65-16.44-30.01-37.97-27.1-64.32,2.48-22.5-3.71-42.46-15.74-61.22-7.63-11.9-15.08-24.02-21.37-36.66-5.28-10.6-10.96-19.45-23.67-21.93-7.58-1.48-11.09-7.15-11.34-14.91-.18-5.67-.39-11.37-1.22-16.97-3.21-21.76-21.1-29.79-38.71-17.32-14.17,10.04-29.26,16.95-47.08,17.15C5.4,153.76.08,150.13,0,137.91c-.16-26.12,4.55-49.14,27.91-65.51,11.98-8.4,22.09-19.49,32.98-29.42,9.38-8.55,19.09-10.7,30.89-4.06,9.3,5.23,19.45,9.04,29.45,12.92,16.76,6.52,29.94,1.62,39.23-13.61,4.85-7.96,8.98-15.8,17.07-2.29,3.81,6.36,9.93,6.41,16.26,2.33,6.82-4.4,14.3-9.47,16.28-16.83C215.93-.45,232.89-1.88,249.2,1.25c30,5.76,60.73,11.66,77.18,43.21,4.73,9.07,6.52,15.29-.97,23.85-4.26,4.87-14.17,11.21-5.59,19.79,7.31,7.3,15.7,10.63,24.25.02,3.45-4.28,9.41-6.89,15.38-5.43,21.41,5.23,42.83,10.49,64.06,16.39,18.96,5.27,6.05,17.76,5.54,27.39-1.99,2.14-3.97,4.28-5.96,6.43Z"/>
  </g>
</svg>