<?xml version="1.0" encoding="UTF-8"?>
<svg id="Camada_2" data-name="Camada 2" xmlns="http://www.w3.org/2000/svg" viewBox="0 0 457.6 999.87">
  <defs>
    <style>
      .cls-1 {
        fill: none;
        stroke: #ba694b;
        stroke-miterlimit: 10;
        stroke-width: 5px;
      }
    </style>
  </defs>
  <g id="Layer_1" data-name="Layer 1">
    <path class="cls-1" d="M215.23,533.86c3.23-29.73-8.81-61.47-34.35-89.91-23.07-25.69-43.09-54.12-64.6-81.22-25.48-32.1-37.29-67.84-32.39-109.25,2.53-21.37,2.06-43.05-5.5-63.91-7.65-21.11-16.81-25.22-37.77-16.28-2.61,1.11-5.08,2.52-7.69,3.63-18.13,7.71-28.68,1.92-29.92-17.82C.23,115.03,8.85,73.31,31.7,35.13c9.34-15.61,14.99-16.09,26.12-.95,10.14,13.79,22.74,19.13,39.46,18.39,14.68-.65,29.54,1.56,44.14.39,24.04-1.93,38.95-16.5,45.87-38.95,1.7-5.51,5.27-7.91,9.25-8.22,21.96-1.7,43.94-5.8,66.02-1.1,6.18,1.31,13.57,2.79,16.15,8.26,4.47,9.47,13.27,11.23,20.9,12.5,10.92,1.81,18.25,3.75,20.83,16.75,1.32,6.67,8.94,12.91,15.02,17.69,20.83,16.4,27.86,38.17,25.24,63.36-1.22,11.73,2.83,20.51,9.11,29.71,14.7,21.53,29.92,42.86,42.6,65.57,26.38,47.24,24.88,80.21-14.69,116.49-58.79,53.92-76.1,118.77-69.14,195.18,4.95,54.28,11.38,108.11,21.38,161.72,10.18,54.57,38.57,94.57,86.7,121.48,7.43,4.16,19.72,6.74,18.31,17.48-1.29,9.83-13.09,12.44-21.41,14.38-61.09,14.23-92.84,56.78-111.1,112.89-1.22,3.76-2.82,7.41-4.2,11.12-10.42,28.1-18.28,32.36-47.3,24.79-32.08-8.37-53.95-27.76-63.4-60.1-1.43-4.89-3.06-9.75-4.01-14.74-5.65-29.76-24.38-46.13-53.11-52.53-11.61-2.59-23.32-4.88-34.7-8.25-27.18-8.06-34.51-29.61-17.44-52.38,17.35-23.14,36.32-45.08,53.23-68.53,42.03-58.27,63.43-123.54,63.68-203.66ZM315.58,223.7c17.96-14.03,24.82-29.79,16.72-47.08-9.55-20.38-10.31-40.13-4.89-61.06,1.58-6.11,3.47-12.7-3.86-16.45-7.74-3.96-12.75,1.27-17.51,6.34-10.09,10.74-20.2,21.48-30.2,32.3-11.93,12.9-11.98,27.48,2.78,35.81,19.43,10.96,33.3,24.87,36.97,50.14Z"/>
  </g>
</svg>