<?xml version="1.0" encoding="UTF-8"?>
<svg id="Camada_2" data-name="Camada 2" xmlns="http://www.w3.org/2000/svg" viewBox="0 0 135.14 142.19">
  <defs>
    <style>
      .cls-1 {
        fill: #ba694b;
      }
    </style>
  </defs>
  <g id="Layer_1" data-name="Layer 1">
    <path class="cls-1" d="M121.37,54.09c-14.06,8.91-32.47,13.05-23.44,38.77,3.23,9.19-10.8,22.66-19.66,31.5-24.67,24.64-25.61,24.5-42.92-5.15-3.93-6.74-7.25-14.45-8.38-22.08-2.82-19.04-13.11-34.54-22.23-50.57-2.4-4.22-3.32-8.16-3.68-12.64Q-1.63.65,31.63.69c24.96.03,50.09,1.85,74.82-.54,18.76-1.81,19.93,13.16,26.23,22.34,5.38,7.85,1.16,17.49-5.07,24.92-2.12,2.53-4.5,4.83-6.76,7.23l.53-.56Z"/>
  </g>
</svg>