<?xml version="1.0" encoding="UTF-8"?>
<svg id="Camada_2" data-name="Camada 2" xmlns="http://www.w3.org/2000/svg" viewBox="0 0 134.53 64.76">
  <defs>
    <style>
      .cls-1 {
        fill: #ba694b;
      }
    </style>
  </defs>
  <g id="Layer_1" data-name="Layer 1">
    <path class="cls-1" d="M29.29,45.92C39.45,27.9,38.48,26.79,0,10.05,5.63-.58,10.87-1.32,24.33,1.22c28.46,5.38,53.51,16.24,78.66,29.32,7.85,4.08,15.36-4.95,20.09-11.83,2.6-3.78,4.12-7.11,8.64-3.39,5.18,4.26,2.36,7.92-1.72,10.9-10.76,7.85-23.99,7.96-39.62,10.44,8.42,7.4,14.64,12.69,20.63,18.23,2.19,2.03,7.13,3.5,4.53,7.5-2.9,4.47-7.06,1.59-10.51-.23-1.47-.78-2.69-2.05-3.97-3.16-7.82-6.79-13.62-24.17-26.35-4.24-1.95,3.05-8.53,1.39-12.66-1.28-9.7-6.26-20-10.49-32.75-7.55Z"/>
  </g>
</svg>