<?xml version="1.0" encoding="UTF-8"?>
<svg id="Camada_2" data-name="Camada 2" xmlns="http://www.w3.org/2000/svg" viewBox="0 0 410.6 392.2">
  <defs>
    <style>
      .cls-1 {
        fill: none;
        stroke: #ba694b;
        stroke-miterlimit: 10;
        stroke-width: 5px;
      }
    </style>
  </defs>
  <g id="Layer_1" data-name="Layer 1">
    <path class="cls-1" d="M307.32,30.6c-8.78,13.43-.92,16.53,10.12,21.26,21.51,9.2,42.06,15.76,65.36,5.89,8.36-3.54,19.55-5.92,24,7.46,4.53,13.61-3.24,31.11-16.44,34.73-15.45,4.23-29.84,9.92-43.15,19.1-17.55,12.1-24.63,29-25.38,49.3-.51,13.73-5.16,23.97-19.41,28.4-5.06,1.57-8.16,5.98-8.69,11.63-2.27,24.49-18.35,39.13-36.85,52.27-45.48,32.3-45.94,34.27-28.11,86.56,2.9,8.52,4.99,17.49,6.08,26.42,1.6,13.07-6.87,19.68-18.72,14.1-17.93-8.45-35.01-18.68-49.8-32.08-10.16-9.2-15.58-21.33-15.09-34.89,1.71-47.02-13.6-86.39-48.98-118.22-15.11-13.59-16.25-32.67-15.43-51.99.48-11.43,3.64-24.78-10.58-31.3-14.24-6.54-27.59-4.13-39.76,5.54-.89.71-1.76,1.45-2.71,2.06-6.91,4.38-14.29,13.71-22.23,6.44-7.7-7.05-11.3-18.88-7.56-29.37,4.96-13.88,13.24-26.31,24.52-36.27,7.22-6.37,15.7-8.74,25.28-6.96,24.88,4.62,46.22-3.47,69.8-11.85,19.16-6.81,25.15-15.78,30.5-31.46,2.95-8.65,13.13-3.89,19.21-7.34,11.25-6.38,23.64-7.65,36.13-7.49,13.01.17,27.47-.48,23.35,20.13-.4,2.02.08,4.74,1.21,6.43,2.38,3.56,45.51,9.55,49.93,7.17,6.44-3.46,12.53-7.97,23.4-5.65Z"/>
  </g>
</svg>