<?xml version="1.0" encoding="UTF-8"?>
<svg id="Camada_2" data-name="Camada 2" xmlns="http://www.w3.org/2000/svg" viewBox="0 0 327.46 366">
  <defs>
    <style>
      .cls-1 {
        fill: none;
        stroke: #ba694b;
        stroke-miterlimit: 10;
        stroke-width: 5px;
      }
    </style>
  </defs>
  <g id="Layer_1" data-name="Layer 1">
    <path class="cls-1" d="M146.1,16.62c.56,6.57.98,11.51,1.4,16.45,7.06-21.45,22.93-29.67,43.72-30.52,22.51-.91,36.43,12.15,47.75,31.21,3.47-3.68,6.23-7.65,9.94-10.27,4.24-3.01,9.85-5.05,12.61,1.77,7.61,18.8,25.43,21.32,41.46,26.79,8.76,2.99,20.91,2.36,21.81,15.1.91,12.9-2.16,25.95-15.69,31.18-18.56,7.18-25.09,17.61-14.43,35.89,2.06,3.53,2.11,7.56,1.12,11.58-7.46,30.2-34.8,50.55-66.29,49.32-4.54-.18-9.08-.57-13.61-.44-12.82.37-21.33,5.99-18.84,19.9,3.45,19.24-4.17,32.2-19.07,43.58-16.81,12.83-23.37,31.51-24.33,52.23-.34,7.36-.39,14.75-.47,22.12-.14,12.66.48,25.88-15.42,30.26-13.46,3.7-35.72-7.16-41.59-19.92-3.61-7.84-5.99-16.35-4.79-24.77,3.19-22.41-5.35-43.53-6.1-65.43-.21-6.06-3.55-8.19-8.46-8.17-5.05.01-10.2.72-15.14,1.85-43.03,9.88-67.73-16.18-56.49-59.83,4.77-18.51,9.12-37.41,34.86-35.85,6.07.37,7.4-4.99,7-9.61-2.12-24.53,14.62-35.76,33.12-42.93,10.16-3.94,4.89-19.85,18.13-18.36-.63-4.54-3.54-7.13-7.76-7.67-7.17-.92-12.34,4.75-10.54,9.64,2.54,6.91.92,9.76-4.83,10.69-8.09,1.32-5.57-6.04-7.56-10.17-7.15-14.83,2-25.99,8.04-37.5,4.01-7.64,9.74-14.39,14.34-21.86,7.15-11.62,23.36-11.35,32.55-1.88,5.24,5.4,6.12,17.46,15.03,15.95,8.6-1.45-.05-13.79,8.52-20.35Z"/>
  </g>
</svg>