<?xml version="1.0" encoding="UTF-8"?>
<svg id="Camada_2" data-name="Camada 2" xmlns="http://www.w3.org/2000/svg" viewBox="0 0 431.19 321">
  <defs>
    <style>
      .cls-1 {
        fill: #ba694b;
      }
    </style>
  </defs>
  <g id="Layer_1" data-name="Layer 1">
    <path class="cls-1" d="M312.57,23.99c-10.01,12.03-3.34,14.63,8.08,18.69,20.45,7.28,40.1,10.52,61.14,3.31,7.42-2.54,15.65-2.01,23.44.69,10.95,3.79,23.87,8.43,25.81,19.65,1.51,8.72-9.92,15.62-17.93,20.83-13.75,8.94-23.03,19.75-18.55,38.27q-12.98-8.96-7.5-23.22c1.72-4.45-1.29-5.92-4.37-7.65-13.61-7.64-24.49-1.65-33.12,8.17-10.54,11.99-17.85,25.97-20.04,42.32-1.77,13.22-4.76,25.55-20.95,29.32-7.82,1.82-8.01,10.6-8.94,16.99-2.61,17.9-10.95,30.67-28.83,36.16-1.61.49-3.73.82-4.6,1.98-8.67,11.59-17.83,19.12-34.37,13.87-6.42-2.04-13.3,5.78-14.3,14.02-.88,7.19-2.12,15.12,7.48,18.4,11.51,3.93,17.44,16.04,29.15,19.86,4.75,1.55,6.19,5.56,2.63,9.24-3.18,3.3-6.95,4.91-11.31-.08-7.43-8.51-11.2-20.76-25.09-25.55.07,19.46,12.99,27.39,27,35.39-5.51,6.09-7.07,9.58-16.41,2.16-17.97-14.27-23.29-38.13-41.6-50.72-23.13-15.9-40.09-38.89-65.22-52.71-17.96-9.89-21.89-29.62-21.08-48.99.41-9.7-1.14-17.81-7.21-25.25-8.17-10.02-10.52-22.48-13.44-34.5-2.82-11.58-8.96-14.65-19.9-10.79-6.47,2.28-12.52,5.01-18.07,9.11-17.96,13.28-20.26,12.98-34.45-3.43-12.35-14.29-13.7-32.93-1.99-42.77,10.65-8.95,23.26-15.59,37.56-10.49,32.83,11.7,62.2-2.07,92.29-11.13,4.1-1.24,7.02-5.97,12.37-3.61,12.78,5.62,17.12-3.93,18.5-12.74,1.88-12,8.35-15.51,19.06-16.8,12.99-1.56,25.89-2.89,38.91-1.21,8.73,1.12,17.4,2.45,14.79,15.06-.41,1.95.34,4.61,1.49,6.32,1.99,2.95,45.96,8.45,49.43,6.41,5.79-3.4,11.27-7.8,20.1-4.58Z"/>
  </g>
</svg>