<?xml version="1.0" encoding="UTF-8"?>
<svg id="Camada_2" data-name="Camada 2" xmlns="http://www.w3.org/2000/svg" viewBox="0 0 469.17 1041.63">
  <defs>
    <style>
      .cls-1 {
        fill: #ba694b;
      }
    </style>
  </defs>
  <g id="Layer_1" data-name="Layer 1">
    <g>
      <path class="cls-1" d="M374.93,305.65c-2.69-7.02,6.54-11.27,2.34-19.22-8.76,1.89-15.44,7.95-18.12,15.27-4.83,13.2-14.95,19.39-26.16,25.07-17.59,8.92-29.8,21.92-34.15,41.88-4.68,21.46-17.79,37.63-34.43,51.24-8.67,7.09-15.39,14.21-9.54,27.17,2.61,5.78.92,13.28-4.49,18.86-9.63-4.82-9.18-12.98-6.49-20.51,2.49-6.96.07-11.23-5.1-14.3-5.36-3.19-11.8-5.87-17.1-.24-6.01,6.39-11.62,5.98-19.69,3.5-14.63-4.51-24.17,6-29.95,16.72-7.88,14.63-10.12,31.34-5.4,47.85,4.18,14.62,20.07,18.01,30.43,6.95,2.68-2.86,4.79-6.31,7.73-8.83,3.15-2.71,7.65-3.78,11.19-1.72,4.17,2.42,2.73,7.12,1.63,10.84-1.27,4.32-3.11,8.49-4.97,12.6-4.08,9.02-7.17,16.78,8.12,17.46,7.25.33,9.85,6.31,9.03,13.68-.76,6.74-.76,13.57-1.18,20.36-.44,7.14,2.16,10.83,9.89,9.11,1.07-.24,2.63-.44,3.34.12,14.5,11.5,24.98,5.03,34.8-7.1,2.66-3.28,7.04-1.43,11.08-.87,14.52,2.03,28.28,8.04,43.28,7.81,4.27-.06,9.83,1.89,11.37,6.31,5.91,16.88,20.62,24.05,34.39,32.11,7.82,4.58,14.31,10.11,15.04,19.27,2.12,26.7,21.45,33.41,42.8,36.98,9.48,1.59,17.37,4.84,23.87,11.57,13.55,14.02,14.28,24.93,1.69,39.66-9.49,11.1-16.93,23.49-18.09,37.75-3,36.8-25.38,57.35-56.52,71.3-3.51,1.57-10.07,2.85-7.4,6.89,11.24,16.98-2.79,26.87-10.55,37.15-8.03,10.65-18.81,19.56-29.59,27.64-4.42,3.32-3.67,6.44-3.8,9.84-.3,7.92-2.46,17.19-9.8,18.17-17.25,2.32-16.2,15.71-22.54,26.65-13.5,23.3-16.85,49.69-28.01,73.49-5.05,10.78-7.49,8.23-13.56,2.87-11.21-9.9-13.93-22.68-13.75-36.89.43-32.46,8.31-64.11,10.32-96.34,2.4-38.5,3.56-77.08,5.03-115.63.47-12.25-3.02-23.59-10.28-33.55-16.26-22.3-18.9-48.67-25.52-74.46-6.45-25.08-2.41-40.77,16.56-56.56,7.71-6.42,6.72-18.79,6.17-29.11-.21-3.97-2.66-7.27-6.47-5.58-16.31,7.22-18.97-7.36-23.53-15.72-5.33-9.74-9.68-18.81-21.56-21.93-3.47-.91-7.56-4.11-8.98-7.32-4.58-10.33-11.66-13.16-22.74-12.7-14.27.58-23.14-10.16-28.28-21.38-12.76-27.87-32.92-52.54-37.22-84.13-.71-5.19-2.12-10.31-6.15-13.69-38.81-32.55-34.7-74.42-21.28-115.23,12.16-36.99,11.84-72.14,0-108.18-11.33-34.54-21.51-40.06-56.57-30.75-4.96,1.32-10.3,4.14-14.26-.27-3.95-4.39-.61-9.53,1.09-14.31,3.8-10.69,7.28-21.05.66-32.49-4.2-7.26-.92-15.7,2-23.03,6.17-15.49,15.4-29.11,28.2-39.92,22.26-18.81,37.42-18.55,59.55.49,29.29,25.2,55.48,21.3,76.11-11.48,3.31-5.26,6.02-10.91,8.87-16.45,11.21-21.79,21.43-25.34,43.8-14.37,6.55,3.22,13.21,7.02,18.44,12.01,29.71,28.37,62.88,52.14,97.67,73.65,14.64,9.05,19.7,20.93,16.22,37.22-.83,3.88-1.33,7.84-2.37,11.66-10.73,39.57-1.98,73.87,27.22,102.94,7.94,7.91,13.61,16.16,5.88,28.4-3.95,6.26,1.23,14.15,2.86,21.01,3.2,13.48-3.16,14.48-13.12,12.74ZM293.2,100.17c.11-5.26,0-10.57-6.47-12.11-6.19-1.48-9.62,2.77-12.01,7.32-10.55,20.12-23.7,38.24-38.45,55.56-11.25,13.2-6.6,31,9.67,37.7,17.88,7.36,31.17,17.62,36.1,37.04,1.94,7.64,5.24,7.01,10.05,1.48,13.06-15.01,15.99-29.55,5.35-48.43-10.67-18.94-13.52-37.83-7.72-58.54,1.82-6.49,2.37-13.33,3.48-20.02Z"/>
      <path class="cls-1" d="M302.3,520.12c-6.82.57-12.26,1.11-17.72,1.44-3.83.24-8.24,1.72-11.03-1.92-1.78-2.32-1.09-5.69,1.16-7.7,3.64-3.24,6.83-8.3,12.95-5.77,5.73,2.37,11.66,4.71,14.64,13.95Z"/>
    </g>
  </g>
</svg>