<?xml version="1.0" encoding="UTF-8"?>
<svg id="Camada_2" data-name="Camada 2" xmlns="http://www.w3.org/2000/svg" viewBox="0 0 312.53 301.94">
  <defs>
    <style>
      .cls-1 {
        fill: none;
        stroke: #ba694b;
        stroke-miterlimit: 10;
        stroke-width: 5px;
      }
    </style>
  </defs>
  <g id="Layer_1" data-name="Layer 1">
    <path class="cls-1" d="M290.35,44.28c-32.35-2.76-45.55,10.15-40.32,39.75,2.86,16.2-4.47,26.96-17.36,32.94-12.62,5.86-16.94,14.38-15.03,26.84,3.34,21.72-7,35.56-24.65,45.94-34.51,20.29-48.58,48.95-37.32,88.91,4.69,16.65-.99,22.55-18.02,20.31-28.53-3.75-53.31-22.4-49.47-56.98,3.42-30.85-3.27-37.4-34.54-41.49-19.22-2.51-33.64-13.15-45.06-27.84-7.08-9.11-7.88-20.12-2.91-30.61,9.42-19.88,24.61-32.4,46.33-38.5,6.43-1.8,17.82-5.71,11.96-20.16-7.43-18.3,4.87-45.25,23.67-56.83,4.32-2.66,3.05-7.68,7.54-10.37,13.73-8.22,29.16-4.22,37.67,11.12,2.13,3.83,2.88,9.85,8.44,8.99,7.95-1.23,1.99-6.91,2.39-10.67.5-4.65-.63-12.39,8.25-5.75,3.76,2.81,5.23-.95,5.75-3.37,2.78-12.99,13.94-14.09,23.17-14.01,20.29.16,39.69,3.95,55.95,18.59,6.81,6.12,15.96,13.4,25.05-.82,6.34-9.91,24.09-3.9,31.63,9.35,3.57,6.27,3.19,14.9,13.06,17.44,5.14,1.32,3.82,7.09,1.03,11.46-2.67,4.18-4.7,9.72-8.03.48-.17-.48-1.47-.84-2.21-.78-4.33.35-7.87,9.51-12.36,2.47-3.44-5.39,4.82-9.45,5.38-16.4ZM100.68,65.71c-6.53,1.49-19.59-14.35-18.8,3.59.44,9.96-4.69,12.59-10.06,18.76,17.02.57,18.18-16.51,28.85-22.35Z"/>
  </g>
</svg>