<?xml version="1.0" encoding="UTF-8"?>
<svg id="Camada_2" data-name="Camada 2" xmlns="http://www.w3.org/2000/svg" viewBox="0 0 426.77 452.35">
  <defs>
    <style>
      .cls-1 {
        fill: none;
        stroke: #ba694b;
        stroke-miterlimit: 10;
        stroke-width: 5px;
      }
    </style>
  </defs>
  <g id="Layer_1" data-name="Layer 1">
    <path class="cls-1" d="M369.71,207.67c-9,5.68-17.76,11.66-27.88,15.49-3.98,1.51-9.06,4.75-10.21,8.32-8.72,27.05-26.33,51.54-21.22,82.6,4.26,25.92-4.2,40.96-29.46,50.72-15.25,5.89-19.48,14.38-17.22,29.2,2.05,13.42,3.32,26.98,4.32,40.52.46,6.27-.31,13.17-8.07,14.99-7.78,1.83-11.45-3.94-13.78-9.88-8.21-20.92-23.82-35.48-40.76-49.16-16.15-13.04-28.46-29.36-25.67-50.97,5.06-39.16-9.41-72.11-28.58-104.28-10.41-17.45-21.31-34.69-21.54-56.34-.1-9.77-5.85-17.19-15.89-19.75-10.95-2.78-13.85-9.88-12.77-20.32.64-6.16.6-12.61-.48-18.69-3.15-17.68-22.04-24.88-36.78-14.04-12.09,8.89-25.12,15.32-39.99,17.79-16.82,2.8-21.82-2.06-21.19-18.63.98-26.06,7.5-48.6,30.65-64.59,12.48-8.62,22.54-20.69,34.02-30.83C76.73,1.41,87.33.18,98.68,6.47c10.4,5.76,20.96,11.26,31.46,16.83,6.64,3.52,11.67,8.98,21.26,3.08,9.38-5.77,12.17,5.95,14.1,11.68,4.74,14.03,12.2,16.3,20.89,5.14,22.56-28.98,52.17-15.15,79.42-14.01,22.65.95,37.9,13.92,49.46,33.32,7.1,11.91,9.03,20.9-1.47,31.41-4.17,4.17-11.58,10.48-2.62,16.85,6.69,4.76,13.77,13.6,22.74,1.88,4.91-6.41,11.82-6.72,19.96-4.9,17.7,3.97,35.32,8.1,52.39,14.25,21,7.57,21.79,9.91,11.68,30.33l.49-.57c-6.73,5.94-12.71,13.21-20.35,17.55-15.69,8.91-25.29,21.51-28.98,38.93l.6-.59Z"/>
  </g>
</svg>