<?xml version="1.0" encoding="UTF-8"?>
<svg id="Camada_2" data-name="Camada 2" xmlns="http://www.w3.org/2000/svg" viewBox="0 0 467.84 322.88">
  <defs>
    <style>
      .cls-1 {
        fill: #ba694b;
      }
    </style>
  </defs>
  <g id="Layer_1" data-name="Layer 1">
    <path class="cls-1" d="M350.09,177.17c-15.69-7.83-23.4-2.56-25.3,13.43-.6,5.02-2.9,9.84-3.42,14.85-2.07,20.06-11.74,34.42-29.06,45.17-21.78,13.52-24.08,22.57-15.85,46.92,7.01,20.74,1.67,27.38-19.97,24.81-28.89-3.43-39.16-15.93-37.05-45.05.29-3.96,1.02-7.96.71-11.87-.95-11.94-7.29-14.66-17.34-9.01-10.4,5.84-15.45,16.31-21.21,26.02-4.47,7.52-9.02,14.96-19.2,14.19-9.96-.75-11.8-9.18-14.5-16.66-7.65-21.21-15.14-26.69-37.55-26.88-20.99-.18-42,.35-62.98-.12-17.69-.39-34.33-4.61-42.84-22.2-8.45-17.44-4.3-34.18,5.8-49.86,8.28-12.86,20.34-22.73,28.04-36.2,2.97-5.2,9.86-5.55,15.99-4.73,11.31,1.52,22.24-7.6,33.75-1.25.39-11.83,18.89-14.81,14.21-29.1-1.75-5.34-3.65-10.64-5.26-16.03-1.18-3.94-.95-10.83,1.94-10.62,23.15,1.73,22.9-15.87,28.46-30.55,3.19-8.43,27.97-7.96,34.99-.86,3.39,3.44,6.11,7.54,9.9,12.31,5.26-13.02,3.52-32.07,25.42-23.32,4.97-14.25,25.38-14.85,27.9-30.15,1.39-8.42,6.01-7.28,11.05-8.03,30.04-4.48,58.62-4.54,84.06,16.98,10.61,8.98,22.91,16.28,40.1,13.63,10.68-1.65,19.67,11.93,32.77,14.57,16.8,3.39,32.41,12.91,48.38,20.12,7.88,3.55,13.74,9.69,19.43,16.19,8.2,9.37,9.5,16.65-2,25.02-14.11,10.26-25.97,22.66-18.61,44.77-7.9-11.49-14.41-8.02-20.71.82-1.62-8.07-1.4-13.89,2.53-18.21,4.49-4.94,3.56-9.44.03-13.52-3.87-4.47-8.8-6.8-15.17-4.07-15.7,6.71-28.98,15.78-33.37,33.54-3.31,13.35-7.45,26.05-19.88,34.05-1.28.82-3.19,3-2.91,3.52,1.68,3.1,8.98,6.05.01,8.74-2.14.64-5.91-.72-7.54-2.47-3.84-4.11-1.57-8.27,1.38-12.12,1.61-2.1,5.44-2.44,4.9-6.76Z"/>
  </g>
</svg>