<?xml version="1.0" encoding="UTF-8"?>
<svg id="Camada_2" data-name="Camada 2" xmlns="http://www.w3.org/2000/svg" viewBox="0 0 452.43 327.43">
  <defs>
    <style>
      .cls-1 {
        fill: none;
        stroke: #ba694b;
        stroke-miterlimit: 10;
        stroke-width: 5px;
      }
    </style>
  </defs>
  <g id="Layer_1" data-name="Layer 1">
    <path class="cls-1" d="M329.16,23.52c-10.8,16.72-1.32,18.78,8.8,22.17,21,7.02,41.64,8.93,63.24,2.28,14.36-4.42,27.73-.58,39.92,8.77,10.54,8.08,12.47,15.32,1.16,23.94-4.96,3.78-9.48,8.18-14.59,11.74-12.2,8.48-19.26,19.09-16.75,35.53-1.19-9.17-23.19-8.41-9.39-24.15,3.36-3.83-.5-5.69-3.81-7.09-10.44-4.41-20.06-3.46-28.24,4.74-12.68,12.72-21.51,27.54-24.99,45.47-2.5,12.86-4.93,25.83-21.16,29.57-6.82,1.57-8.24,8.47-9.4,14.91-3.4,18.96-11.27,34.51-31.93,39.75-1.6.4-3.54,1.23-4.39,2.49-8.82,13.02-19.65,17.75-35.98,13.96-8.48-1.96-12.34,8.25-14.85,16.02-2.6,8.05,2.96,9.62,8.57,13.31,9.83,6.47,17.88,15.56,28.34,21.51,3.05,1.73,8.17,3.99,3.64,8.8-3.29,3.49-7.45,5.38-11.42.21-5.12-6.69-10.4-13.25-15.55-19.92-1.96-2.54-3.28-7.01-7.28-5.29-5.04,2.17-2.61,6.42-1.41,10.24,2.89,9.24,9.66,15,17.12,20.4,2.91,2.1,11.04,2.3,5.23,8.95-3.84,4.4-8.2,4.03-13.13-.45-6.73-6.12-13.63-11.77-17.95-20.07-10.75-20.61-26.42-36.66-46.17-48.85-18.07-11.16-30.79-28.71-50.43-38.84-14.37-7.41-18.47-25.48-17.14-42.09,1.02-12.69-1.84-22.99-9.97-32.93-5.24-6.41-9.48-14.53-11.44-22.55-4.26-17.44-14.3-18.02-27.86-11.9-2.06.93-3.96,2.31-6.09,3-10.55,3.46-18.71,22.11-32.58,4.75-10.1-12.64-23.67-23.92-17-42.75,4.47-12.63,28-26.11,42.82-21.85,36.3,10.43,69.21-.53,102.22-12.69,4.36-1.61,7.27.41,10.84.69,7.42.59,19.7,5.66,14.97-11.58-1.55-5.64,3.72-9.44,9.5-12.25,21.2-10.32,43.04-10.45,65.65-6.75,6.58,1.08,7.5,4.82,6.76,9.26-2.09,12.6,6.08,13.17,15.02,14.76,18.76,3.33,37.44,10.97,57.09-5.22Z"/>
  </g>
</svg>