<?xml version="1.0" encoding="UTF-8"?>
<svg id="Camada_2" data-name="Camada 2" xmlns="http://www.w3.org/2000/svg" viewBox="0 0 434.58 465.31">
  <defs>
    <style>
      .cls-1 {
        fill: #ba694b;
      }
    </style>
  </defs>
  <g id="Layer_1" data-name="Layer 1">
    <path class="cls-1" d="M434,102.17c2.75,15.96-4.51,25.85-17.18,34.18-24.79,16.3-29.26,29.23-18.97,57.86,5,13.9,2.41,24.22-7.86,33.42-10.97,9.83-22.07,19.54-33.45,28.9-14.96,12.3-28.49,25.94-40.76,40.91-16.74,20.43-27.75,42.62-23.68,70.11,2.43,16.39-3.62,26.57-21.47,26.98-11.95.28-15.04,7.97-15.33,18-.35,12.47-.21,24.97-.92,37.42-.79,13.86-9.59,20.01-20.03,11.41-25.94-21.38-55.64-38.74-76.12-66.27-6.8-9.13-9.96-19.19-6.5-31.74,4.25-15.39,4.03-30.69-16.26-36.67-4.44-1.31-8.51-5.74-11.55-9.66-24.06-30.99-51.85-58.6-78.44-87.3-15.75-17.01-28.62-34.48-19.84-60.65,5.19-15.46-4.94-29.51-11.86-43.1C-6.39,86.42-5.75,85.2,24.59,52.48c14.66-15.81,30.06-26.67,52.95-24.81,11.15.9,22.59-1.51,33.87-2.67,9.34-.96,17.11-4.87,23.64-11.98,14.51-15.82,27.06-16.94,46.16-4.82,3.65,2.32,7.54,1.52,11.49,1.43,28.82-.62,57.95-3.87,86.36-.74,22.97,2.53,44.59,14.48,68.14,17.57,17.57,2.31,33.29,10.37,49.68,16.62,28.14,10.74,39.12,30.79,37.12,59.1Z"/>
  </g>
</svg>