<?xml version="1.0" encoding="UTF-8"?>
<svg id="Camada_2" data-name="Camada 2" xmlns="http://www.w3.org/2000/svg" viewBox="0 0 1276 983.53">
  <defs>
    <style>
      .cls-1 {
        fill: #ba694b;
      }
    </style>
  </defs>
  <g id="Layer_1" data-name="Layer 1">
    <path class="cls-1" d="M1014.42,295.25c7.47,30.08-22.37,84.84-40.97,88.86-20.07,4.34-22.79,21.83-36.39,29.17-5.8,3.13-2.2,6.01.61,9.12,6.64,7.34,11.2,15.92,11.14,25.96-.04,6.62-3.09,12.86-10.65,13.14-8.46.32-9.2-7.46-7.14-12.18,6.52-14.98-17.96-19.18-10.83-33.69-4.41-.32-9.67-2.35-13.07-.65-11.49,5.74-10.74-2.33-10.42-11.33-4.79,3.91-8.44,5.86-10.59,8.87-3.13,4.4-11.1,6.53-9.18,13.07,2.23,7.62,9.64,6.11,15.86,5.89,2.61-.1,5.95-.79,6.68,3.2.73,3.99-1.52,6.91-4.76,8.12-13.72,5.11-7.32,13.5-2.41,19.71,12.48,15.78,14.53,35.72,7.74,50.89-8.28,18.49-19.62,38.65-43.87,44.08-9.62,2.15-21.66.89-25.73,14.98-1.43,4.94-6.75,1.69-8.44-2.58-3.84-9.74-10.19-7.43-16.22-3.13-6.46,4.61-10.87,10.74-5.25,18.74,3.89,5.53,8.53,10.55,13.04,15.61,17.76,19.93,14.58,41.7-7.89,56.11-4.8,3.08-5.53,1.16-8.77-2.45-8.5-9.48-18.42-17.7-27.64-26.29-7.35,6.04-3.34,16.19-11.6,22.97-2.02-16.23,1.48-31.93-4-46.61-2.35-6.31-3.82-12.91-12.32-5.89-6.1,5.04-6.89.41-8.82-4.34-3.39-8.36-7.35-16.55-11.82-24.39-9.35-16.41-23.22-16.93-35.23-1.95-3.52,4.39-7.42,8.73-11.92,12.03-20.78,15.27-33.94,34.63-34.91,61.17-.14,3.89-.96,8.02-2.57,11.53-4.27,9.28-9.7,12.57-16.95,2.21-7.95-11.37-12.34-24.29-15.42-37.47-3.84-16.41-15.61-30.49-13.97-48.46.13-1.46-.93-4.37-1.44-4.37-20.91.06-22.48-22.5-36.31-31.22-9.31-5.86-17.85-6.79-27.25-4.98-9.05,1.74-16.87.66-23.93-5.18-3.13-2.59-6.76-5.91-10.51-4.77-20.71,6.28-31.2-7.87-42.89-20.29-3.15-3.35-6.14-10.28-11.8-6.75-6.35,3.96-2.79,10.3.37,14.98,6.32,9.34,12.41,19.04,20.03,27.26,7.62,8.21,16.47,2.34,22.85-2.51,13.71-10.41,16.75,4.13,23.66,9.1,7.38,5.3,9.07,11.59,3.58,20.28-9.61,15.21-24.45,23.07-39.26,31.55-15.27,8.74-30.78,16.9-47.16,23.31-14.11,5.53-21.58,1.56-20.4-13.24,1.09-13.57-5.39-22.01-12.43-31.86-14.39-20.11-21.16-44.85-37.72-63.82-2.87-3.28-3.73-8.33-10.23-10.31-4.63,8.34.96,14.93,4.44,20.94,9.7,16.78,15.4,34.93,22.08,52.97,8.31,22.41,23.32,42.41,40.72,59.39,7.59,7.41,17.15-1.08,25.85-1.83,8.54-.74,18.17-9.6,25.18-1.16,6.43,7.74-.83,17.16-3.58,25.52-8.76,26.63-24.19,48.1-47.03,64.97-23.76,17.55-34.38,41.51-28.48,71.51,1.2,6.12,1.91,12.33,2.85,18.49,2.81,18.32-.91,33.97-18.2,43.92-15.27,8.78-23.16,20.86-19.02,39.21,1.25,5.53,1.03,11.81-3.34,16.13-15.1,14.93-24.12,34.26-37.27,50.6-14.73,18.3-34.89,24.18-56.89,26.28-7.38.7-15.95-1.62-16.16-9.03-.53-18.56-13.36-32.01-17.61-48.92-6.04-23.99-9.59-48.89-24.43-70.04-6.19-8.83-2.89-18.92,1.7-27.56,17.18-32.32,7.11-60.59-13.84-86.07-8.78-10.68-12.81-19.11-7.66-33.09,7.19-19.53,2.45-25.53-18.25-28.11-6.72-.84-13.92-1.71-20.34-.2-17.61,4.15-35.96,3.24-53.09,6.37-26.16,4.78-40.87-10.29-52.52-36.95-1.35-3.09-1.42-7.33-3.63-9.38C-1.68,619.97,2.11,592.65.16,566.75c-.94-12.47,2.31-23.49,9.22-33.72,9.29-13.77,20.61-25.74,33.23-36.35,9.41-7.9,15.67-16.33,18.2-29.15,2.7-13.68,11.66-23.5,27.47-26.07,17.84-2.9,33.95-12.74,52.14-14.85,6.74-.78,13.57-1.59,20.31-1.3,19.97.88,23.37,4.42,19.21,23.71-2.02,9.38,1.67,13.17,8.96,14.73,14.7,3.14,27.63,9.57,39.88,18.04,6.18,4.28,12.34,5.33,16.57-3.54,6.38-13.37,17.78-12.46,27.08-5.6,18.82,13.89,39.52,1,58.75,6.01,1.79.47,6.12-2.37,6.57-4.3,3.13-13.35,10.59-25.76,10.32-41.14-16.28,6.39-31.27,7.26-46.79,2.14-14.12-4.66-19.37-16.05-12.26-29.12,1.13-2.07,2.28-4.47-.34-5.72-3.98-1.9-8.12-4.59-12.88-2.14-4.02,2.06-8.44,3.9-9.22,9.14-2.27,15.27,4.98,26.08,19.84,29.57-1.72,5.98-5.91,3.88-9.44,2.73-19.64-6.36-29.37-24.01-31.72-40.58-1.88-13.27-7.59-18.63-16.34-23.99-6.38-3.91-11.95-8.43-17.07-13.75-2.14-2.23-4.19-6.17-8.19-2.96-3.11,2.49-2.52,5.79-1.39,9.28,3.19,9.85,11.3,15.18,18.57,21.51,4.46,3.89,15.05,6.48,8.82,14.87-6.08,8.2-11.96-1.17-17.28-3.85-13.99-7.02-24.76-17.48-29.98-33.51-10.54,6.77-20.62,11.32-32.7,9.18-5.15-.91-10.15.79-12.78,6.27-6.71,13.97-24.74,19.54-26.43,38.03-.68,7.41-28.25,17-34.37,12.65-10.68-7.58-22.82-13.98-19.89-31.9,5.34-32.74,4.77-32.86,38.24-30.73,7.12.45,17.22,8.95,21.44-4.56,3.39-10.87-6.77-29.62-17.98-33.29-3.47-1.13-8.56.95-8.89-5.08-.38-6.74,5.33-6.89,9.45-7.06,18.05-.71,29.8-12.51,42.24-23.18,6.44-5.53,12.14-12.24,19.3-16.54,10.85-6.53,20.68-12.44,13.6-27.4-.22-.47-.08-1.12-.1-1.68-.21-7.53,2.94-14.34,9.49-16.79,8.87-3.33.66,10.95,9.98,9.91,5.22-9.15-4.32-17.52-1.29-26.76-2.71.29-3.88.18-4.87.55-7.94,3.04-13.42,16.76-24.29,6.72-8.01-7.4-7.9-30.83.35-39.77,11.53-12.5,24.51-23.65,36.27-35.95,7.1-7.43,17.46-13.83,13.06-27.13-.35-1.07.61-3.27,1.63-3.99,26.19-18.37,52.61-36.63,87.31-27.97,22.84,5.7,45.22,12.91,63.88,28.11,4.5,3.66,11.16,7.54,7.61,14.98-3.31,6.94-8.46,11.68-17.6,10.07-4.41-.78-11.67-4-13.29,2.36-1.61,6.36,2.09,13.05,6.74,18.28.7.79,1.89,1.14,2.83,1.73,9.72,6.15.92-14.71,11.87-8.16,1.68,1,14.41,10.13,9.76-5.77-1.35-4.61,4.65-5.48,7.83-7.41,8.63-5.24,15.47-11.41,13.23-22.92-.56-2.87-.89-5.74,3.03-6.61,4.37-.97,8.11,1.1,10.9,3.68,3.86,3.57,1.32,4.93-2.77,6.38-4.48,1.59-2.98,5.82-.82,8.31,2.95,3.4,7.22,4.04,10.35.25,17.35-20.98,44.32-16.9,66.61-24.59,7.18-2.48,19.17,9.38,15.06-10.59-.79-3.83,8.93-4.28,14.68-1.67,13.82,6.27,27.8,12.16,41.8,18.24,3.33-4.63-.88-6.51-1.92-9.15-2.54-6.5-15.03-8.1-10.84-17.11,5.21-11.18,11.86-22.3,22.88-28.99,6.87-4.17,12.88.11,9.78,6.9-6.33,13.88,1.87,25.2,3.86,37.45,3.08,18.95-.47,25.04-20.51,28.87,6.94,7.09,15.02,7.87,20.83,1.62,6.16-6.63,18.91-13.31,9.81-25.07-7.09-9.16,5.78-21.39-5.99-29.18-.34-.22,3.44-10.55,9.07-13.03,6.12-2.69,7.35,3.4,9.97,6.69,3.08,3.87,5.72,8.27,14.55,9.18-5.89-5.57-10.08-10.34-6.04-16.65,3.9-6.09,12.38-7.09,36-3.43-12.16-13.45-4.34-19.61,6.57-26,22.25-13.03,44.4-25.49,71.69-21.39,2.17.33,5.8.49,6.55-.69,19.13-29.81,45.51-5.64,68.12-8.94,7.34-1.07,14.25,4.29,16.62,12.24,2.36,7.89-1.25,14.33-6.7,19.91-6.82,6.98-17,10.45-22.81,21.42,10.6-1.81,15.76-9.4,23.05-12.83,8.54-4.03,18.85-14.47,25.07,3.84,1.69,4.98,40.89,7.02,45.5,2.76,8.79-8.13,17.9-6.06,26.49-.92,6.79,4.06,11.85,8.83,8.25,19.3-3.88,11.32,14.85,7.08,14.22,18.69,7.19-22.82,25.07-6.87,36.81-11.66,2.57-1.05,7.61,1.5,11.24-2.5,13.06-14.36,31.08-17.02,46.66-4.33,15.22,12.39,31.54,17.65,50.43,15.09,12.38-1.68,20.84,1.93,25.63,13.87,3.43,8.56,8.74,11.21,18.79,8.3,11.74-3.41,24.78-5.38,34.91,5.53,2.09,2.26,3.25,4.71,4.68-.71,3.01-11.45,12.98-9.58,20.8-8.62,26.35,3.22,52.42,6.39,68.82,32.76,3.04,4.88,15.79,6.17,22.78,11.61,10.22,7.95,9.95,17.53-.41,24.79-4.84,3.39-9.12,4.57-11.83-2.63-1.55-4.11-2.45-9.47-8.1-9.84-8.82-.58-12.74-11.44-22.25-10.14,4.76,14.51-20.86,20.62-10.04,37.43,3.36,5.22-.79,9.42-7.37,9.9-17.79,1.3-32.35,9.56-45.23,21.35-2.41,2.21-5.02,5.96-8.52,3.83-17.59-10.67-15.97,5.75-14.54,12.38,6.25,28.95-14.11,46.32-26.22,72.01-4.81-11.9-7.63-19.62-11.02-27.09-8.83-19.45-6.63-35.75,11.14-49.69,9.99-7.84,18.69-17.59,24.27-34.38-9.52,7.33-14.95,17.24-25.16,6.39-4.24-4.51-13.43,1.06-16,5.91-12.83,24.28-34.76,18.68-53.93,15.46-18.18-3.05-30.8,1.72-41.88,15.07-5.79,6.98-12.14,13.5-18.25,20.22-4.99,5.49-5.36,9.44-1.26,17.26,4.57,8.72,7.39,6.64,13.83,4.41,11.57-4.01,12.82,8.24,18.74,13.19l-.04-.48ZM306.59,206.63c-12.62-5.8-22.87-1.43-31.69,1.21-11.69,3.5-15.3-1.45-18.98-10.19-4.79-11.38-5.1-20.54,8.6-26.06,4.46-1.8,8.55-5.73,11.51-9.67,3.37-4.48,10.27-10.9,1.98-15.41-6.06-3.3-15.76-3.35-18.31,6.05-2.76,10.2-8.89,16.57-17.24,21.89-12.58,8.02-13.76,18.09-5.45,30.16,2.87,4.17,9.21,9.31,1.43,14.12-9.61,5.94-14.54,14.91-19.8,24.32-4.79,8.56-11.44,15.94-23.28,9.43-5.75-3.16-8.89,1.36-9.83,5.71-1.12,5.19,3.36,6.44,7.62,6.57,6.16.18,12.87,2.4,18.14,1.74,13.2-1.68,31.18-2.92,36.48-14.05,6.02-12.65,10.88-20.86,27.61-19.26-9.74-10.27-8.83-14.48,2.66-16.72,9.03-1.76,19.17-1.31,28.54-9.84ZM363.23,397.06c6.66-3.29,16-1.11,18.1-8.74,1.73-6.27-6.58-7.98-10.25-11.92-13.81-14.83-37.7-10.03-50.85-26.38-1.73-2.15-6.95-1.16-9.25,1.67-6.04,7.4-12.2,14.82-17.24,22.9-5.01,8.03,2.01,13.99,6,19.59,4.78,6.71,8.63-1.08,12.43-2.66,12.72-5.3,24.94-6.19,37.48.36,4.41,2.3,9.35,3.6,13.59,5.19ZM467.75,353.33c-9.56-14.78-18.29-17.45-30.33-9.84-18.86,11.91-21.17,19.73-10.06,38.77,5.45,9.33,12.42,16.11,7.24,30.21-4.05,11.03,11.59,12.86,20.55,14.1,5.91.81,16.17-4.72,11.49-9.85-10.99-12.03-3.82-32.12-20.33-40.68-4.61-2.4-7.71-7.08-6.44-12.83,1.45-6.52,7.23-8.46,12.71-9.72,3.69-.85,7.72-.16,15.17-.16ZM335.57,354.84c14.75,4.44,19.73-4.68,25.51-14.6-12.84-2.63-18.93,4.28-25.51,14.6Z"/>
  </g>
</svg>