<?xml version="1.0" encoding="UTF-8"?>
<svg id="Camada_2" data-name="Camada 2" xmlns="http://www.w3.org/2000/svg" viewBox="0 0 510.71 388.23">
  <defs>
    <style>
      .cls-1 {
        fill: none;
        stroke: #ba694b;
        stroke-miterlimit: 10;
        stroke-width: 5px;
      }
    </style>
  </defs>
  <g id="Layer_1" data-name="Layer 1">
    <path class="cls-1" d="M349.19,36.27c-1.87,4.04-3.88,8.38-6.78,14.66,12.48-.47,21.76,5.67,31.96,9.07,22.65,7.55,45.3,12.96,69.57,3.95,22.9-8.5,42.17,1.27,58.12,17.73,6.31,6.52,8.4,15.25,3.26,23.55-5.14,8.3-12.72,5.01-19.77,2.5-39.53-14.09-73.07.3-105.18,21.96-11.64,7.85-12.4,19.94-12.14,31.8.33,15.03-5.42,25.09-19.76,29.87-4.51,1.5-8.36,3.07-8.63,8.87-1.78,38.03-27.82,58.43-57.25,74.48-17.04,9.29-28.71,18.71-26.13,39.88,2.01,16.48-2.59,34.5,14.13,46.73,5.53,4.05,9.71,10.03,5.93,17.73-3.38,6.89-10.08,6.89-16.26,6.58-15.32-.76-30.39-2.68-44.72-9-17.4-7.67-28.6-18.89-29.94-39.35-1.69-25.63-13.16-47.84-28.47-68.08-27.12-35.86-52.17-72.44-61.19-118.07-3.88-19.65-25.72-23.39-39.8-8.63-5.7,5.97-9.46,14.98-20.52,10.64-10.71-4.2-19.06-10.38-20.75-22.73-.44-3.2.2-8.33-1.5-9.3-9.96-5.64-12.45-13.8-9.96-24.17,3.64-15.2,9.88-29.07,22.44-39.07,7.21-5.74,15.68-7.84,23.62-2.04,27.29,19.93,53.72,10.74,80.13-1.68,9.64-4.53,18.44-11.21,30.35-7.44,4.93,1.56,8.4-1.92,10.1-6.87,4.8-13.94,12.01-20.99,27.71-28.43,22.55-10.69,42.94-7.84,64.63-8.87,11.24-.53,14.25,3.31,9.79,14-4.98,11.93-5.79,19.04,12.55,20.9,18.64,1.89,36.24,6.5,53.94-2.86,3.08-1.63,6.62-1.55,10.52,1.67Z"/>
  </g>
</svg>