<?xml version="1.0" encoding="UTF-8"?>
<svg id="Camada_2" data-name="Camada 2" xmlns="http://www.w3.org/2000/svg" viewBox="0 0 145.71 147.29">
  <defs>
    <style>
      .cls-1 {
        fill: none;
        stroke: #ba694b;
        stroke-miterlimit: 10;
        stroke-width: 5px;
      }
    </style>
  </defs>
  <g id="Layer_1" data-name="Layer 1">
    <path class="cls-1" d="M131.1,52.28c-16.27,10.49-39.21,15.8-29.3,44.62,3.08,8.94-30.56,45.5-40.6,47.65-5.54,1.18-8.48-2.14-11.37-5.63-9.06-10.96-17.93-22.3-19.76-36.87-2.46-19.61-11.49-36.37-20.85-53.15-1.89-3.39-3.66-7.11-4.33-10.88C-.82,5.58,1.77,2.56,34.36,2.55c24.36,0,48.72-.08,73.07-.04,25.11.04,38.27,23.6,25.81,46.11-.8,1.45-1.75,2.81-2.64,4.21,0,0,.5-.55.5-.55Z"/>
  </g>
</svg>