<?xml version="1.0" encoding="UTF-8"?>
<svg id="Camada_2" data-name="Camada 2" xmlns="http://www.w3.org/2000/svg" viewBox="0 0 141.69 144.51">
  <defs>
    <style>
      .cls-1 {
        fill: none;
        stroke: #ba694b;
        stroke-miterlimit: 10;
        stroke-width: 5px;
      }
    </style>
  </defs>
  <g id="Layer_1" data-name="Layer 1">
    <path class="cls-1" d="M115.12,62.94c-13.4,5.17-20.04,13.67-15.2,28.74,4.13,12.85-7.69,19.29-13.14,27.52-20.59,31.12-36.26,30.63-51.2-2.88-10.94-24.54-16.74-51.13-30.49-74.93C.36,33.2,3.58,20.35,3.45,9.62c-.08-6.36,4.57-6.82,9.43-6.82,35.12-.01,70.25.38,105.37-.3,15.04-.29,14.26,13.23,18.56,20.73,5.21,9.08,1.44,19.72-7.17,27.4-4.95,4.41-12.38,5.91-15.08,12.91l.57-.61Z"/>
  </g>
</svg>