<?xml version="1.0" encoding="UTF-8"?>
<svg id="Camada_2" data-name="Camada 2" xmlns="http://www.w3.org/2000/svg" viewBox="0 0 142.01 148.15">
  <defs>
    <style>
      .cls-1 {
        fill: none;
        stroke: #ba694b;
        stroke-miterlimit: 10;
        stroke-width: 5px;
      }
    </style>
  </defs>
  <g id="Layer_1" data-name="Layer 1">
    <path class="cls-1" d="M68.2,3.59c12.46,0,25.25,1.85,37.29-.41,19.54-3.66,28.1,7.82,32.71,22.37,4.73,14.89-3.85,24.95-16.78,33.23-13.01,8.33-30.59,15.6-18.26,38.11,3.63,6.62-33.07,46.59-42,48.54-4.99,1.09-7.3-2.22-9.75-5.18-6.53-7.87-12.91-16.2-15.68-26.01-6.91-24.52-16.31-47.64-29.7-69.54C-.09,34.72,3.54,21.39,3.85,9.58c.2-7.8,7.06-5.85,11.69-5.91,17.55-.22,35.1-.09,52.65-.08Z"/>
  </g>
</svg>