<?xml version="1.0" encoding="UTF-8"?>
<svg id="Camada_2" data-name="Camada 2" xmlns="http://www.w3.org/2000/svg" viewBox="0 0 340.42 425.26">
  <defs>
    <style>
      .cls-1 {
        fill: #ba694b;
      }
    </style>
  </defs>
  <g id="Layer_1" data-name="Layer 1">
    <path class="cls-1" d="M335.66,139.61c-13.85,15.11-35.8,22.04-43.63,43.22-.06,1.92-.12,3.85-.18,5.77-8.77,7.92-19.24,13.98-27.97,21.39-19.96,16.97-24.44,42.29-27.46,67.1-1.02,8.34.25,16.98.75,25.47,1.23,20.76-7.73,35.49-27.25,42.04-15.22,5.11-20.14,14.51-17.78,29.52,1.67,10.62,2.93,21.32,3.86,32.03.65,7.44.68,15.95-7.96,18.58-8.35,2.54-12.03-5.08-14.87-11.09-8.98-18.97-23.15-33.4-39.15-46.33-17.42-14.08-28.35-32.34-25.62-54.6,4.54-36.96-9.61-67.29-28-97.3-11.71-19.1-24.71-37.48-25.99-61.81-.95-18.16-16.68-22.05-32.28-23.73C-.02,127.5-5.04,118.88,4.82,98.53c8.96-18.5,22.85-33.65,36.19-49.09,5.9-6.83,11.99-3.52,18.48-1.43,22.22,7.16,42.6-1.49,52.39-21.96C123.43,1.9,133.94-4.68,159.67,3.1c25.96,7.84,52.4,15.79,68.89,41.57,8.59,13.42,13.34,23.9,1.82,37.4-3.31,3.88-10.81,9.48-2.36,15.37,6.41,4.47,13,12.47,21.83,3.03,3.1-3.32,7.23-6.41,11.93-5.52,23.26,4.4,47.08,6.77,68.55,18.08,10.54,5.55,12.04,13.88,8.06,24.16-.91.81-1.82,1.62-2.73,2.43Z"/>
  </g>
</svg>