<?xml version="1.0" encoding="UTF-8"?>
<svg id="Camada_2" data-name="Camada 2" xmlns="http://www.w3.org/2000/svg" viewBox="0 0 136.69 139.51">
  <defs>
    <style>
      .cls-1 {
        fill: #ba694b;
      }
    </style>
  </defs>
  <g id="Layer_1" data-name="Layer 1">
    <path class="cls-1" d="M112.62,60.44c-13.4,5.17-20.04,13.67-15.2,28.74,4.13,12.85-7.69,19.29-13.14,27.52-20.59,31.12-36.26,30.63-51.2-2.88C22.14,89.28,16.34,62.69,2.59,38.89-2.14,30.7,1.08,17.85.95,7.12.87.76,5.52.3,10.37.3c35.12-.01,70.25.38,105.37-.3,15.04-.29,14.26,13.23,18.56,20.73,5.21,9.08,1.44,19.72-7.17,27.4-4.95,4.41-12.38,5.91-15.08,12.91l.57-.61Z"/>
  </g>
</svg>