<?xml version="1.0" encoding="UTF-8"?>
<svg id="Camada_2" data-name="Camada 2" xmlns="http://www.w3.org/2000/svg" viewBox="0 0 366.69 428.35">
  <defs>
    <style>
      .cls-1 {
        fill: #ba694b;
      }
    </style>
  </defs>
  <g id="Layer_1" data-name="Layer 1">
    <path class="cls-1" d="M51.97,100.78c14.39-10.01,20.42-19.28,22.45-29.85,2.45-12.76,7.83-21.58,20.09-26.82,11.66-4.99,18.12-15.18,21.47-27.07,2.75-9.77,7.78-14.63,18.74-16.03,24.23-3.1,43.5.3,62.45,19.59,24.86,25.31,59.47,28.99,93.63,24.35,18.79-2.55,36.8-4.26,55.27,1.48,19.04,5.92,25.76,19.06,16.53,37.16-7.33,14.37-18.73,24.24-36.04,24.42-11.51.12-22.61,2.16-32.95,7.15-18.46,8.93-29.12,22.83-27.59,44.42,1.04,14.71,1.04,29.5,2.49,44.16,1.42,14.33-4.68,23.75-16.42,30.86-10.16,6.16-20.42,12.29-29.83,19.49-24.08,18.41-29.8,36.22-21.65,65.63,4.31,15.56,10.62,29.18-6.08,44.1-8.31,7.42-15.04,23.61-3.86,39.18,9.16,12.75,1.76,23.49-14.52,25.02-28.38,2.66-50.64-10.76-60.18-37.72-7.24-20.47-17.34-40.32-10.59-63.78,4.02-13.99-3.22-26.28-12.73-37.01-17.28-19.52-36.01-37.89-50.65-59.56-10.27-15.21-15.69-33.74-34.33-42.72C.92,183.99.2,175.3.03,167.55c-.54-24.82,5.6-48.23,14.02-71.24,5.32-14.52,17.51-12.03,28.6-10.9,6.4.65,17.47-2.12,9.32,15.36Z"/>
  </g>
</svg>