<?xml version="1.0" encoding="UTF-8"?>
<svg id="Camada_2" data-name="Camada 2" xmlns="http://www.w3.org/2000/svg" viewBox="0 0 327.16 428.77">
  <defs>
    <style>
      .cls-1 {
        fill: none;
        stroke: #ba694b;
        stroke-miterlimit: 10;
        stroke-width: 5px;
      }
    </style>
  </defs>
  <g id="Layer_1" data-name="Layer 1">
    <path class="cls-1" d="M315.9,154.58c-15.76,11.54-34.97,18.59-41.4,40.94-2.55,8.87-10.42,18.61-23.3,20-6.25.68-10.37,6.69-13.38,12.25-12.47,23.04-24.2,46.26-20.42,73.9,3.4,24.93-7.08,41.71-30.86,49.85-10.74,3.68-14.74,10.47-13.84,21.86.94,11.84.96,23.71,2.95,35.52,1.14,6.77,0,14.33-7.88,16.82-7.17,2.26-12.07-2.82-14.91-8.58-9.54-19.33-24.26-33.92-40.89-47.05-19.86-15.7-28.52-36.52-25.04-61.46,3.15-22.58-3.66-41.03-18.8-57.48-12.68-13.78-24.42-28.39-31.69-45.97-2.82-6.81-8.33-10.69-14.71-13.27-14.75-5.97-19.53-16.99-19.21-32.33.41-20.13,5.36-39.14,11-58.17,4.16-14.03,15.84-12.42,26.32-12.87,26.81-1.14,27.19-.95,31.2-26.84,1.2-7.8,4.37-12.14,11.45-14.97,14.05-5.6,23.34-15.93,27.12-30.6,2.38-9.24,8.26-11.45,17.06-12.68,44.6-6.22,72.37,18.95,96.62,50.78,7.88,10.35,3,20.11-2.59,29.94-3.09,5.43-12.4,10.62-2.81,18.51,7.05,5.8,13.71,7.24,20.8.33,5.05-4.93,11.43-4.83,17.58-3.58,18.33,3.74,36.34,8.82,52.98,17.51,18.2,9.51,19.35,15.1,8.4,31.92-1.17,1.8-1.51,4.15-2.23,6.24,0,0,.49-.53.49-.53Z"/>
  </g>
</svg>