<?xml version="1.0" encoding="UTF-8"?>
<svg id="Camada_2" data-name="Camada 2" xmlns="http://www.w3.org/2000/svg" viewBox="0 0 358.87 335.16">
  <defs>
    <style>
      .cls-1 {
        fill: #ba694b;
      }
    </style>
  </defs>
  <g id="Layer_1" data-name="Layer 1">
    <path class="cls-1" d="M216.58,324.26c1.61,2.83,4.71,5.94.31,8.6-4.65,2.81-10.86,3.4-14.28-.29-7.23-7.78-17.83-14.37-19.48-25.14-3.86-25.17-22.77-35.52-42.61-40.79-42.72-11.34-68.25-47.68-104.75-67.64-4.94-2.7-7.86-8.18-9.2-13.87-1.05-4.47-1.67-9.28,2.59-12.55,8.76-6.74,15.48.57,24.92,5.25-3.95-10.71-11.03-14.3-18.69-17.21-6.87-2.61-13.97-4.66-20.65-7.67-15.37-6.94-19.02-19.8-9.55-34.24,4.06-6.2,8.25-12.22,10.18-19.43,2.29-8.57,3.19-18.93,15.68-7.99,3.74,3.27,7.33,1.42,9.25-3.24,5.08-12.32,16.74-14.97,27.44-19.99,9.13-4.29,23.26-.3,27-15.84.83-3.46,10.48-6.39,16.26-6.78,19.3-1.32,33.41-12.47,47.24-23.75C184.01.69,213.7-2.32,244.95,1.31c5.07.59,12.81,1.2,12.4,8.68-.32,5.89-7,6.56-11.9,7.53-25.31,5.04-50.64,9.93-76.83,15.04,4.11,11.07,13.58,13.09,21.76,15.43,28.26,8.08,57.43,13.11,84.2,26.06,1.84.89,5.51,1.65,6.15.8,14.8-19.43,18.04,1.42,24.77,7.44,4.58,4.11,3.09,15.37,15.56,8.64,3.93-2.12,12.27,7.64,14.93,14.34,4.08,10.27,10.69,18.42,17.23,26.96,9.73,12.7,6.88,21.68-8.48,26.45-9.13,2.83-18.92,3.49-28.15,6.07-26.69,7.46-38.62,24.49-34.14,51.54,1.86,11.21-3.46,15.99-11.02,20.16-14.33,7.9-29.7,13.96-41.46,26.07-2.08,2.14-6.24,3.66-9.18,3.32-20-2.3-25.93,9.15-26.92,26.21-.82,14.08,8.75,27.78,23.23,32.66l-.51-.47Z"/>
  </g>
</svg>