<?xml version="1.0" encoding="UTF-8"?>
<svg id="Camada_2" data-name="Camada 2" xmlns="http://www.w3.org/2000/svg" viewBox="0 0 232.57 419.7">
  <defs>
    <style>
      .cls-1 {
        fill: none;
        stroke: #ba694b;
        stroke-miterlimit: 10;
        stroke-width: 5px;
      }
    </style>
  </defs>
  <g id="Layer_1" data-name="Layer 1">
    <path class="cls-1" d="M76.12,5.6c5.07-.22,14.39.61,23.14-1.24,32.89-6.94,58.69,6.3,81.59,27.66,15.77,14.7,30.21,30.77,42.79,48.31,8.54,11.91,9.95,21.93-4.36,32.97-25.94,20-31.05,50.58-32.97,80.79-3.66,57.67-5.68,115.45-8.51,173.18-.39,7.92-.8,15.94-2.37,23.67-3.44,16.91-18.9,27.64-36.49,26.13-16.03-1.38-24.88-11.13-24.95-30.33-.28-74.82-17.82-145.73-46.82-214.26-10.92-25.82-25.42-47.87-52.28-59.63-10.73-4.7-14.98-12.68-10.82-24.84,6.4-18.7,11.23-37.95,17.91-56.54C31.17,5.89,34.72,4.02,61.92,4.94c3.4.11,6.8.31,14.2.66Z"/>
  </g>
</svg>