<?xml version="1.0" encoding="UTF-8"?>
<svg id="Camada_2" data-name="Camada 2" xmlns="http://www.w3.org/2000/svg" xmlns:xlink="http://www.w3.org/1999/xlink" viewBox="0 0 735 417.82">
  <defs>
    <style>
      .cls-1, .cls-2 {
        fill: none;
      }

      .cls-2 {
        stroke: #b8694b;
        stroke-miterlimit: 10;
      }

      .cls-3 {
        clip-path: url(#clippath);
      }
    </style>
    <clipPath id="clippath">
      <rect class="cls-1" width="735" height="417.82"/>
    </clipPath>
  </defs>
  <g id="Camada_1-2" data-name="Camada 1">
    <g class="cls-3">
      <g>
        <g>
          <path class="cls-2" d="M25.84,42.66c7.73-3.39,28.53-14.45,27.56-34.88-.26-5.52.76-9.77,2.29-11.75,1.53-1.98,9.77-3.36,9.77-3.36l-9.01-2.14c-2.59-3.08-6.32-5.61-10.5-5.33-4.29.29-8.41,2.36-11.27,5.56-1.65,1.85-3.02,4.13-4.33,6.24-.35.56-1.66,2.1-1.61,2.82-.41-6.19,2.98-11.95,7.26-15.91,4.1-3.81,8.9-7.23,11.51-12.32,3.14-6.1,2.21-12.93-1.7-18.39-1.08-1.51-4.32-4.66-6.35-6.48"/>
          <path class="cls-2" d="M11.58-53.27c-1.48,1.87-7.25,7.25-9.5,16.57C-3.17-14.95,7-5.42,18.21,1.64c3.36,2.11,6.88,4.18,9.28,7.34,5.72,7.52,6.45,18.58.79,25.76-1.7,2.15-6.83,6.35-8.79,7.92"/>
        </g>
        <g>
          <path class="cls-2" d="M104.29,96.36c7.73-3.39,28.53-14.45,27.56-34.88-.26-5.52.76-9.77,2.29-11.75,1.53-1.98,9.77-3.36,9.77-3.36l-9.01-2.14c-2.59-3.08-6.32-5.61-10.5-5.33-4.29.29-8.41,2.36-11.27,5.56-1.65,1.85-3.02,4.13-4.33,6.24-.35.56-1.66,2.1-1.61,2.82-.41-6.19,2.98-11.95,7.26-15.91,4.1-3.81,8.9-7.23,11.51-12.32,3.14-6.1,2.21-12.93-1.7-18.39-1.08-1.51-4.32-4.66-6.35-6.48"/>
          <path class="cls-2" d="M90.03.42c-1.48,1.87-7.25,7.25-9.5,16.57-5.25,21.75,4.92,31.29,16.13,38.35,3.36,2.11,6.88,4.18,9.28,7.34,5.72,7.52,6.45,18.58.79,25.76-1.7,2.15-6.83,6.35-8.79,7.92"/>
        </g>
        <g>
          <path class="cls-2" d="M182.75,42.66c7.73-3.39,28.53-14.45,27.56-34.88-.26-5.52.76-9.77,2.29-11.75,1.53-1.98,9.77-3.36,9.77-3.36l-9.01-2.14c-2.59-3.08-6.32-5.61-10.5-5.33-4.29.29-8.41,2.36-11.27,5.56-1.65,1.85-3.02,4.13-4.33,6.24-.35.56-1.66,2.1-1.61,2.82-.41-6.19,2.98-11.95,7.26-15.91,4.1-3.81,8.9-7.23,11.51-12.32,3.14-6.1,2.21-12.93-1.7-18.39-1.08-1.51-4.32-4.66-6.35-6.48"/>
          <path class="cls-2" d="M168.48-53.27c-1.48,1.87-7.25,7.25-9.5,16.57-5.25,21.75,4.92,31.29,16.13,38.35,3.36,2.11,6.88,4.18,9.28,7.34,5.72,7.52,6.45,18.58.79,25.76-1.7,2.15-6.83,6.35-8.79,7.92"/>
        </g>
        <g>
          <path class="cls-2" d="M261.2,96.36c7.73-3.39,28.53-14.45,27.56-34.88-.26-5.52.76-9.77,2.29-11.75,1.53-1.98,9.77-3.36,9.77-3.36l-9.01-2.14c-2.59-3.08-6.32-5.61-10.5-5.33-4.29.29-8.41,2.36-11.27,5.56-1.65,1.85-3.02,4.13-4.33,6.24-.35.56-1.66,2.1-1.61,2.82-.41-6.19,2.98-11.95,7.26-15.91,4.1-3.81,8.9-7.23,11.51-12.32,3.14-6.1,2.21-12.93-1.7-18.39-1.08-1.51-4.32-4.66-6.35-6.48"/>
          <path class="cls-2" d="M246.94.42c-1.48,1.87-7.25,7.25-9.5,16.57-5.25,21.75,4.92,31.29,16.13,38.35,3.36,2.11,6.88,4.18,9.28,7.34,5.72,7.52,6.45,18.58.79,25.76-1.7,2.15-6.83,6.35-8.79,7.92"/>
        </g>
        <g>
          <path class="cls-2" d="M339.65,42.66c7.73-3.39,28.53-14.45,27.56-34.88-.26-5.52.76-9.77,2.29-11.75,1.53-1.98,9.77-3.36,9.77-3.36l-9.01-2.14c-2.59-3.08-6.32-5.61-10.5-5.33-4.29.29-8.41,2.36-11.27,5.56-1.65,1.85-3.02,4.13-4.33,6.24-.35.56-1.66,2.1-1.61,2.82-.41-6.19,2.98-11.95,7.26-15.91,4.1-3.81,8.9-7.23,11.51-12.32,3.14-6.1,2.21-12.93-1.7-18.39-1.08-1.51-4.32-4.66-6.35-6.48"/>
          <path class="cls-2" d="M325.39-53.27c-1.48,1.87-7.25,7.25-9.5,16.57-5.25,21.75,4.92,31.29,16.13,38.35,3.36,2.11,6.88,4.18,9.28,7.34,5.72,7.52,6.45,18.58.79,25.76-1.7,2.15-6.83,6.35-8.79,7.92"/>
        </g>
        <g>
          <path class="cls-2" d="M418.1,96.36c7.73-3.39,28.53-14.45,27.56-34.88-.26-5.52.76-9.77,2.29-11.75,1.53-1.98,9.77-3.36,9.77-3.36l-9.01-2.14c-2.59-3.08-6.32-5.61-10.5-5.33-4.29.29-8.41,2.36-11.27,5.56-1.65,1.85-3.02,4.13-4.33,6.24-.35.56-1.66,2.1-1.61,2.82-.41-6.19,2.98-11.95,7.26-15.91,4.1-3.81,8.9-7.23,11.51-12.32,3.14-6.1,2.21-12.93-1.7-18.39-1.08-1.51-4.32-4.66-6.35-6.48"/>
          <path class="cls-2" d="M403.84.42c-1.48,1.87-7.25,7.25-9.5,16.57-5.25,21.75,4.92,31.29,16.13,38.35,3.36,2.11,6.88,4.18,9.28,7.34,5.72,7.52,6.45,18.58.79,25.76-1.7,2.15-6.83,6.35-8.79,7.92"/>
        </g>
        <g>
          <path class="cls-2" d="M496.55,42.66c7.73-3.39,28.53-14.45,27.56-34.88-.26-5.52.76-9.77,2.29-11.75,1.53-1.98,9.77-3.36,9.77-3.36l-9.01-2.14c-2.59-3.08-6.32-5.61-10.5-5.33-4.29.29-8.41,2.36-11.27,5.56-1.65,1.85-3.02,4.13-4.33,6.24-.35.56-1.66,2.1-1.61,2.82-.41-6.19,2.98-11.95,7.26-15.91,4.1-3.81,8.9-7.23,11.51-12.32,3.14-6.1,2.21-12.93-1.7-18.39-1.08-1.51-4.32-4.66-6.35-6.48"/>
          <path class="cls-2" d="M482.29-53.27c-1.48,1.87-7.25,7.25-9.5,16.57-5.25,21.75,4.92,31.29,16.13,38.35,3.36,2.11,6.88,4.18,9.28,7.34,5.72,7.52,6.45,18.58.79,25.76-1.7,2.15-6.83,6.35-8.79,7.92"/>
        </g>
        <g>
          <path class="cls-2" d="M575.01,96.36c7.73-3.39,28.53-14.45,27.56-34.88-.26-5.52.76-9.77,2.29-11.75,1.53-1.98,9.77-3.36,9.77-3.36l-9.01-2.14c-2.59-3.08-6.32-5.61-10.5-5.33-4.29.29-8.41,2.36-11.27,5.56-1.65,1.85-3.02,4.13-4.33,6.24-.35.56-1.66,2.1-1.61,2.82-.41-6.19,2.98-11.95,7.26-15.91,4.1-3.81,8.9-7.23,11.51-12.32,3.14-6.1,2.21-12.93-1.7-18.39-1.08-1.51-4.32-4.66-6.35-6.48"/>
          <path class="cls-2" d="M560.74.42c-1.48,1.87-7.25,7.25-9.5,16.57-5.25,21.75,4.92,31.29,16.13,38.35,3.36,2.11,6.88,4.18,9.28,7.34,5.72,7.52,6.45,18.58.79,25.76-1.7,2.15-6.83,6.35-8.79,7.92"/>
        </g>
        <g>
          <path class="cls-2" d="M653.46,42.66c7.73-3.39,28.53-14.45,27.56-34.88-.26-5.52.76-9.77,2.29-11.75,1.53-1.98,9.77-3.36,9.77-3.36l-9.01-2.14c-2.59-3.08-6.32-5.61-10.5-5.33-4.29.29-8.41,2.36-11.27,5.56-1.65,1.85-3.02,4.13-4.33,6.24-.35.56-1.66,2.1-1.61,2.82-.41-6.19,2.98-11.95,7.26-15.91,4.1-3.81,8.9-7.23,11.51-12.32,3.14-6.1,2.21-12.93-1.7-18.39-1.08-1.51-4.32-4.66-6.35-6.48"/>
          <path class="cls-2" d="M639.19-53.27c-1.48,1.87-7.25,7.25-9.5,16.57-5.25,21.75,4.92,31.29,16.13,38.35,3.36,2.11,6.88,4.18,9.28,7.34,5.72,7.52,6.45,18.58.79,25.76-1.7,2.15-6.83,6.35-8.79,7.92"/>
        </g>
        <g>
          <path class="cls-2" d="M731.91,96.36c7.73-3.39,28.53-14.45,27.56-34.88-.26-5.52.76-9.77,2.29-11.75,1.53-1.98,9.77-3.36,9.77-3.36l-9.01-2.14c-2.59-3.08-6.32-5.61-10.5-5.33-4.29.29-8.41,2.36-11.27,5.56-1.65,1.85-3.02,4.13-4.33,6.24-.35.56-1.66,2.1-1.61,2.82-.41-6.19,2.98-11.95,7.26-15.91,4.1-3.81,8.9-7.23,11.51-12.32,3.14-6.1,2.21-12.93-1.7-18.39-1.08-1.51-4.32-4.66-6.35-6.48"/>
          <path class="cls-2" d="M717.65.42c-1.48,1.87-7.25,7.25-9.5,16.57-5.25,21.75,4.92,31.29,16.13,38.35,3.36,2.11,6.88,4.18,9.28,7.34,5.72,7.52,6.45,18.58.79,25.76-1.7,2.15-6.83,6.35-8.79,7.92"/>
        </g>
        <g>
          <path class="cls-2" d="M42.3,150.05c-7.73-3.39-28.53-14.45-27.56-34.88.26-5.52-.76-9.77-2.29-11.75-1.53-1.98-9.77-3.36-9.77-3.36l9.01-2.14c2.59-3.08,6.32-5.61,10.5-5.33,4.29.29,8.41,2.36,11.27,5.56,1.65,1.85,3.02,4.13,4.33,6.24.35.56,1.66,2.1,1.61,2.82.41-6.19-2.98-11.95-7.26-15.91-4.1-3.81-8.9-7.23-11.51-12.32-3.14-6.1-2.21-12.93,1.7-18.39,1.08-1.51,4.32-4.66,6.35-6.48"/>
          <path class="cls-2" d="M56.56,54.11c1.48,1.87,7.25,7.25,9.5,16.57,5.25,21.75-4.92,31.29-16.13,38.35-3.36,2.11-6.88,4.18-9.28,7.34-5.72,7.52-6.45,18.58-.79,25.76,1.7,2.15,6.83,6.35,8.79,7.92"/>
        </g>
        <g>
          <path class="cls-2" d="M120.75,203.74c-7.73-3.39-28.53-14.45-27.56-34.88.26-5.52-.76-9.77-2.29-11.75-1.53-1.98-9.77-3.36-9.77-3.36l9.01-2.14c2.59-3.08,6.32-5.61,10.5-5.33,4.29.29,8.41,2.36,11.27,5.56,1.65,1.85,3.02,4.13,4.33,6.24.35.56,1.66,2.1,1.61,2.82.41-6.19-2.98-11.95-7.26-15.91-4.1-3.81-8.9-7.23-11.51-12.32-3.14-6.1-2.21-12.93,1.7-18.39,1.08-1.51,4.32-4.66,6.35-6.48"/>
          <path class="cls-2" d="M135.02,107.81c1.48,1.87,7.25,7.25,9.5,16.57,5.25,21.75-4.92,31.29-16.13,38.35-3.36,2.11-6.88,4.18-9.28,7.34-5.72,7.52-6.45,18.58-.79,25.76,1.7,2.15,6.83,6.35,8.79,7.92"/>
        </g>
        <g>
          <path class="cls-2" d="M199.2,150.05c-7.73-3.39-28.53-14.45-27.56-34.88.26-5.52-.76-9.77-2.29-11.75-1.53-1.98-9.77-3.36-9.77-3.36l9.01-2.14c2.59-3.08,6.32-5.61,10.5-5.33,4.29.29,8.41,2.36,11.27,5.56,1.65,1.85,3.02,4.13,4.33,6.24.35.56,1.66,2.1,1.61,2.82.41-6.19-2.98-11.95-7.26-15.91-4.1-3.81-8.9-7.23-11.51-12.32-3.14-6.1-2.21-12.93,1.7-18.39,1.08-1.51,4.32-4.66,6.35-6.48"/>
          <path class="cls-2" d="M213.47,54.11c1.48,1.87,7.25,7.25,9.5,16.57,5.25,21.75-4.92,31.29-16.13,38.35-3.36,2.11-6.88,4.18-9.28,7.34-5.72,7.52-6.45,18.58-.79,25.76,1.7,2.15,6.83,6.35,8.79,7.92"/>
        </g>
        <g>
          <path class="cls-2" d="M277.66,203.74c-7.73-3.39-28.53-14.45-27.56-34.88.26-5.52-.76-9.77-2.29-11.75-1.53-1.98-9.77-3.36-9.77-3.36l9.01-2.14c2.59-3.08,6.32-5.61,10.5-5.33,4.29.29,8.41,2.36,11.27,5.56,1.65,1.85,3.02,4.13,4.33,6.24.35.56,1.66,2.1,1.61,2.82.41-6.19-2.98-11.95-7.26-15.91-4.1-3.81-8.9-7.23-11.51-12.32-3.14-6.1-2.21-12.93,1.7-18.39,1.08-1.51,4.32-4.66,6.35-6.48"/>
          <path class="cls-2" d="M291.92,107.81c1.48,1.87,7.25,7.25,9.5,16.57,5.25,21.75-4.92,31.29-16.13,38.35-3.36,2.11-6.88,4.18-9.28,7.34-5.72,7.52-6.45,18.58-.79,25.76,1.7,2.15,6.83,6.35,8.79,7.92"/>
        </g>
        <g>
          <path class="cls-2" d="M356.11,150.05c-7.73-3.39-28.53-14.45-27.56-34.88.26-5.52-.76-9.77-2.29-11.75-1.53-1.98-9.77-3.36-9.77-3.36l9.01-2.14c2.59-3.08,6.32-5.61,10.5-5.33,4.29.29,8.41,2.36,11.27,5.56,1.65,1.85,3.02,4.13,4.33,6.24.35.56,1.66,2.1,1.61,2.82.41-6.19-2.98-11.95-7.26-15.91-4.1-3.81-8.9-7.23-11.51-12.32-3.14-6.1-2.21-12.93,1.7-18.39,1.08-1.51,4.32-4.66,6.35-6.48"/>
          <path class="cls-2" d="M370.37,54.11c1.48,1.87,7.25,7.25,9.5,16.57,5.25,21.75-4.92,31.29-16.13,38.35-3.36,2.11-6.88,4.18-9.28,7.34-5.72,7.52-6.45,18.58-.79,25.76,1.7,2.15,6.83,6.35,8.79,7.92"/>
        </g>
        <g>
          <path class="cls-2" d="M434.56,203.74c-7.73-3.39-28.53-14.45-27.56-34.88.26-5.52-.76-9.77-2.29-11.75-1.53-1.98-9.77-3.36-9.77-3.36l9.01-2.14c2.59-3.08,6.32-5.61,10.5-5.33,4.29.29,8.41,2.36,11.27,5.56,1.65,1.85,3.02,4.13,4.33,6.24.35.56,1.66,2.1,1.61,2.82.41-6.19-2.98-11.95-7.26-15.91-4.1-3.81-8.9-7.23-11.51-12.32-3.14-6.1-2.21-12.93,1.7-18.39,1.08-1.51,4.32-4.66,6.35-6.48"/>
          <path class="cls-2" d="M448.82,107.81c1.48,1.87,7.25,7.25,9.5,16.57,5.25,21.75-4.92,31.29-16.13,38.35-3.36,2.11-6.88,4.18-9.28,7.34-5.72,7.52-6.45,18.58-.79,25.76,1.7,2.15,6.83,6.35,8.79,7.92"/>
        </g>
        <g>
          <path class="cls-2" d="M513.01,150.05c-7.73-3.39-28.53-14.45-27.56-34.88.26-5.52-.76-9.77-2.29-11.75-1.53-1.98-9.77-3.36-9.77-3.36l9.01-2.14c2.59-3.08,6.32-5.61,10.5-5.33,4.29.29,8.41,2.36,11.27,5.56,1.65,1.85,3.02,4.13,4.33,6.24.35.56,1.66,2.1,1.61,2.82.41-6.19-2.98-11.95-7.26-15.91-4.1-3.81-8.9-7.23-11.51-12.32-3.14-6.1-2.21-12.93,1.7-18.39,1.08-1.51,4.32-4.66,6.35-6.48"/>
          <path class="cls-2" d="M527.27,54.11c1.48,1.87,7.25,7.25,9.5,16.57,5.25,21.75-4.92,31.29-16.13,38.35-3.36,2.11-6.88,4.18-9.28,7.34-5.72,7.52-6.45,18.58-.79,25.76,1.7,2.15,6.83,6.35,8.79,7.92"/>
        </g>
        <g>
          <path class="cls-2" d="M591.46,203.74c-7.73-3.39-28.53-14.45-27.56-34.88.26-5.52-.76-9.77-2.29-11.75-1.53-1.98-9.77-3.36-9.77-3.36l9.01-2.14c2.59-3.08,6.32-5.61,10.5-5.33,4.29.29,8.41,2.36,11.27,5.56,1.65,1.85,3.02,4.13,4.33,6.24.35.56,1.66,2.1,1.61,2.82.41-6.19-2.98-11.95-7.26-15.91-4.1-3.81-8.9-7.23-11.51-12.32-3.14-6.1-2.21-12.93,1.7-18.39,1.08-1.51,4.32-4.66,6.35-6.48"/>
          <path class="cls-2" d="M605.73,107.81c1.48,1.87,7.25,7.25,9.5,16.57,5.25,21.75-4.92,31.29-16.13,38.35-3.36,2.11-6.88,4.18-9.28,7.34-5.72,7.52-6.45,18.58-.79,25.76,1.7,2.15,6.83,6.35,8.79,7.92"/>
        </g>
        <g>
          <path class="cls-2" d="M669.92,150.05c-7.73-3.39-28.53-14.45-27.56-34.88.26-5.52-.76-9.77-2.29-11.75-1.53-1.98-9.77-3.36-9.77-3.36l9.01-2.14c2.59-3.08,6.32-5.61,10.5-5.33,4.29.29,8.41,2.36,11.27,5.56,1.65,1.85,3.02,4.13,4.33,6.24.35.56,1.66,2.1,1.61,2.82.41-6.19-2.98-11.95-7.26-15.91-4.1-3.81-8.9-7.23-11.51-12.32-3.14-6.1-2.21-12.93,1.7-18.39,1.08-1.51,4.32-4.66,6.35-6.48"/>
          <path class="cls-2" d="M684.18,54.11c1.48,1.87,7.25,7.25,9.5,16.57,5.25,21.75-4.92,31.29-16.13,38.35-3.36,2.11-6.88,4.18-9.28,7.34-5.72,7.52-6.45,18.58-.79,25.76,1.7,2.15,6.83,6.35,8.79,7.92"/>
        </g>
        <path class="cls-2" d="M748.37,203.74c-7.73-3.39-28.53-14.45-27.56-34.88.26-5.52-.76-9.77-2.29-11.75-1.53-1.98-9.77-3.36-9.77-3.36l9.01-2.14c2.59-3.08,6.32-5.61,10.5-5.33,4.29.29,8.41,2.36,11.27,5.56,1.65,1.85,3.02,4.13,4.33,6.24.35.56,1.66,2.1,1.61,2.82.41-6.19-2.98-11.95-7.26-15.91-4.1-3.81-8.9-7.23-11.51-12.32-3.14-6.1-2.21-12.93,1.7-18.39,1.08-1.51,4.32-4.66,6.35-6.48"/>
        <g>
          <path class="cls-2" d="M25.84,257.43c7.73-3.39,28.53-14.45,27.56-34.88-.26-5.52.76-9.77,2.29-11.75,1.53-1.98,9.77-3.36,9.77-3.36l-9.01-2.14c-2.59-3.08-6.32-5.61-10.5-5.33-4.29.29-8.41,2.36-11.27,5.56-1.65,1.85-3.02,4.13-4.33,6.24-.35.56-1.66,2.1-1.61,2.82-.41-6.19,2.98-11.95,7.26-15.91,4.1-3.81,8.9-7.23,11.51-12.32,3.14-6.1,2.21-12.93-1.7-18.39-1.08-1.51-4.32-4.66-6.35-6.48"/>
          <path class="cls-2" d="M11.58,161.5c-1.48,1.87-7.25,7.25-9.5,16.57-5.25,21.75,4.92,31.29,16.13,38.35,3.36,2.11,6.88,4.18,9.28,7.34,5.72,7.52,6.45,18.58.79,25.76-1.7,2.15-6.83,6.35-8.79,7.92"/>
        </g>
        <g>
          <path class="cls-2" d="M104.29,311.13c7.73-3.39,28.53-14.45,27.56-34.88-.26-5.52.76-9.77,2.29-11.75,1.53-1.98,9.77-3.36,9.77-3.36l-9.01-2.14c-2.59-3.08-6.32-5.61-10.5-5.33-4.29.29-8.41,2.36-11.27,5.56-1.65,1.85-3.02,4.13-4.33,6.24-.35.56-1.66,2.1-1.61,2.82-.41-6.19,2.98-11.95,7.26-15.91,4.1-3.81,8.9-7.23,11.51-12.32,3.14-6.1,2.21-12.93-1.7-18.39-1.08-1.51-4.32-4.66-6.35-6.48"/>
          <path class="cls-2" d="M90.03,215.19c-1.48,1.87-7.25,7.25-9.5,16.57-5.25,21.75,4.92,31.29,16.13,38.35,3.36,2.11,6.88,4.18,9.28,7.34,5.72,7.52,6.45,18.58.79,25.76-1.7,2.15-6.83,6.35-8.79,7.92"/>
        </g>
        <g>
          <path class="cls-2" d="M182.75,257.43c7.73-3.39,28.53-14.45,27.56-34.88-.26-5.52.76-9.77,2.29-11.75,1.53-1.98,9.77-3.36,9.77-3.36l-9.01-2.14c-2.59-3.08-6.32-5.61-10.5-5.33-4.29.29-8.41,2.36-11.27,5.56-1.65,1.85-3.02,4.13-4.33,6.24-.35.56-1.66,2.1-1.61,2.82-.41-6.19,2.98-11.95,7.26-15.91,4.1-3.81,8.9-7.23,11.51-12.32,3.14-6.1,2.21-12.93-1.7-18.39-1.08-1.51-4.32-4.66-6.35-6.48"/>
          <path class="cls-2" d="M168.48,161.5c-1.48,1.87-7.25,7.25-9.5,16.57-5.25,21.75,4.92,31.29,16.13,38.35,3.36,2.11,6.88,4.18,9.28,7.34,5.72,7.52,6.45,18.58.79,25.76-1.7,2.15-6.83,6.35-8.79,7.92"/>
        </g>
        <g>
          <path class="cls-2" d="M261.2,311.13c7.73-3.39,28.53-14.45,27.56-34.88-.26-5.52.76-9.77,2.29-11.75,1.53-1.98,9.77-3.36,9.77-3.36l-9.01-2.14c-2.59-3.08-6.32-5.61-10.5-5.33-4.29.29-8.41,2.36-11.27,5.56-1.65,1.85-3.02,4.13-4.33,6.24-.35.56-1.66,2.1-1.61,2.82-.41-6.19,2.98-11.95,7.26-15.91,4.1-3.81,8.9-7.23,11.51-12.32,3.14-6.1,2.21-12.93-1.7-18.39-1.08-1.51-4.32-4.66-6.35-6.48"/>
          <path class="cls-2" d="M246.94,215.19c-1.48,1.87-7.25,7.25-9.5,16.57-5.25,21.75,4.92,31.29,16.13,38.35,3.36,2.11,6.88,4.18,9.28,7.34,5.72,7.52,6.45,18.58.79,25.76-1.7,2.15-6.83,6.35-8.79,7.92"/>
        </g>
        <g>
          <path class="cls-2" d="M339.65,257.43c7.73-3.39,28.53-14.45,27.56-34.88-.26-5.52.76-9.77,2.29-11.75,1.53-1.98,9.77-3.36,9.77-3.36l-9.01-2.14c-2.59-3.08-6.32-5.61-10.5-5.33-4.29.29-8.41,2.36-11.27,5.56-1.65,1.85-3.02,4.13-4.33,6.24-.35.56-1.66,2.1-1.61,2.82-.41-6.19,2.98-11.95,7.26-15.91,4.1-3.81,8.9-7.23,11.51-12.32,3.14-6.1,2.21-12.93-1.7-18.39-1.08-1.51-4.32-4.66-6.35-6.48"/>
          <path class="cls-2" d="M325.39,161.5c-1.48,1.87-7.25,7.25-9.5,16.57-5.25,21.75,4.92,31.29,16.13,38.35,3.36,2.11,6.88,4.18,9.28,7.34,5.72,7.52,6.45,18.58.79,25.76-1.7,2.15-6.83,6.35-8.79,7.92"/>
        </g>
        <g>
          <path class="cls-2" d="M418.1,311.13c7.73-3.39,28.53-14.45,27.56-34.88-.26-5.52.76-9.77,2.29-11.75,1.53-1.98,9.77-3.36,9.77-3.36l-9.01-2.14c-2.59-3.08-6.32-5.61-10.5-5.33-4.29.29-8.41,2.36-11.27,5.56-1.65,1.85-3.02,4.13-4.33,6.24-.35.56-1.66,2.1-1.61,2.82-.41-6.19,2.98-11.95,7.26-15.91,4.1-3.81,8.9-7.23,11.51-12.32,3.14-6.1,2.21-12.93-1.7-18.39-1.08-1.51-4.32-4.66-6.35-6.48"/>
          <path class="cls-2" d="M403.84,215.19c-1.48,1.87-7.25,7.25-9.5,16.57-5.25,21.75,4.92,31.29,16.13,38.35,3.36,2.11,6.88,4.18,9.28,7.34,5.72,7.52,6.45,18.58.79,25.76-1.7,2.15-6.83,6.35-8.79,7.92"/>
        </g>
        <g>
          <path class="cls-2" d="M496.55,257.43c7.73-3.39,28.53-14.45,27.56-34.88-.26-5.52.76-9.77,2.29-11.75,1.53-1.98,9.77-3.36,9.77-3.36l-9.01-2.14c-2.59-3.08-6.32-5.61-10.5-5.33-4.29.29-8.41,2.36-11.27,5.56-1.65,1.85-3.02,4.13-4.33,6.24-.35.56-1.66,2.1-1.61,2.82-.41-6.19,2.98-11.95,7.26-15.91,4.1-3.81,8.9-7.23,11.51-12.32,3.14-6.1,2.21-12.93-1.7-18.39-1.08-1.51-4.32-4.66-6.35-6.48"/>
          <path class="cls-2" d="M482.29,161.5c-1.48,1.87-7.25,7.25-9.5,16.57-5.25,21.75,4.92,31.29,16.13,38.35,3.36,2.11,6.88,4.18,9.28,7.34,5.72,7.52,6.45,18.58.79,25.76-1.7,2.15-6.83,6.35-8.79,7.92"/>
        </g>
        <g>
          <path class="cls-2" d="M575.01,311.13c7.73-3.39,28.53-14.45,27.56-34.88-.26-5.52.76-9.77,2.29-11.75,1.53-1.98,9.77-3.36,9.77-3.36l-9.01-2.14c-2.59-3.08-6.32-5.61-10.5-5.33-4.29.29-8.41,2.36-11.27,5.56-1.65,1.85-3.02,4.13-4.33,6.24-.35.56-1.66,2.1-1.61,2.82-.41-6.19,2.98-11.95,7.26-15.91,4.1-3.81,8.9-7.23,11.51-12.32,3.14-6.1,2.21-12.93-1.7-18.39-1.08-1.51-4.32-4.66-6.35-6.48"/>
          <path class="cls-2" d="M560.74,215.19c-1.48,1.87-7.25,7.25-9.5,16.57-5.25,21.75,4.92,31.29,16.13,38.35,3.36,2.11,6.88,4.18,9.28,7.34,5.72,7.52,6.45,18.58.79,25.76-1.7,2.15-6.83,6.35-8.79,7.92"/>
        </g>
        <g>
          <path class="cls-2" d="M653.46,257.43c7.73-3.39,28.53-14.45,27.56-34.88-.26-5.52.76-9.77,2.29-11.75,1.53-1.98,9.77-3.36,9.77-3.36l-9.01-2.14c-2.59-3.08-6.32-5.61-10.5-5.33-4.29.29-8.41,2.36-11.27,5.56-1.65,1.85-3.02,4.13-4.33,6.24-.35.56-1.66,2.1-1.61,2.82-.41-6.19,2.98-11.95,7.26-15.91,4.1-3.81,8.9-7.23,11.51-12.32,3.14-6.1,2.21-12.93-1.7-18.39-1.08-1.51-4.32-4.66-6.35-6.48"/>
          <path class="cls-2" d="M639.19,161.5c-1.48,1.87-7.25,7.25-9.5,16.57-5.25,21.75,4.92,31.29,16.13,38.35,3.36,2.11,6.88,4.18,9.28,7.34,5.72,7.52,6.45,18.58.79,25.76-1.7,2.15-6.83,6.35-8.79,7.92"/>
        </g>
        <g>
          <path class="cls-2" d="M731.91,311.13c7.73-3.39,28.53-14.45,27.56-34.88-.26-5.52.76-9.77,2.29-11.75,1.53-1.98,9.77-3.36,9.77-3.36l-9.01-2.14c-2.59-3.08-6.32-5.61-10.5-5.33-4.29.29-8.41,2.36-11.27,5.56-1.65,1.85-3.02,4.13-4.33,6.24-.35.56-1.66,2.1-1.61,2.82-.41-6.19,2.98-11.95,7.26-15.91,4.1-3.81,8.9-7.23,11.51-12.32,3.14-6.1,2.21-12.93-1.7-18.39-1.08-1.51-4.32-4.66-6.35-6.48"/>
          <path class="cls-2" d="M717.65,215.19c-1.48,1.87-7.25,7.25-9.5,16.57-5.25,21.75,4.92,31.29,16.13,38.35,3.36,2.11,6.88,4.18,9.28,7.34,5.72,7.52,6.45,18.58.79,25.76-1.7,2.15-6.83,6.35-8.79,7.92"/>
        </g>
        <g>
          <path class="cls-2" d="M42.3,364.82c-7.73-3.39-28.53-14.45-27.56-34.88.26-5.52-.76-9.77-2.29-11.75-1.53-1.98-9.77-3.36-9.77-3.36l9.01-2.14c2.59-3.08,6.32-5.61,10.5-5.33,4.29.29,8.41,2.36,11.27,5.56,1.65,1.85,3.02,4.13,4.33,6.24.35.56,1.66,2.1,1.61,2.82.41-6.19-2.98-11.95-7.26-15.91-4.1-3.81-8.9-7.23-11.51-12.32-3.14-6.1-2.21-12.93,1.7-18.39,1.08-1.51,4.32-4.66,6.35-6.48"/>
          <path class="cls-2" d="M56.56,268.89c1.48,1.87,7.25,7.25,9.5,16.57,5.25,21.75-4.92,31.29-16.13,38.35-3.36,2.11-6.88,4.18-9.28,7.34-5.72,7.52-6.45,18.58-.79,25.76,1.7,2.15,6.83,6.35,8.79,7.92"/>
        </g>
        <g>
          <path class="cls-2" d="M120.75,418.51c-7.73-3.39-28.53-14.45-27.56-34.88.26-5.52-.76-9.77-2.29-11.75-1.53-1.98-9.77-3.36-9.77-3.36l9.01-2.14c2.59-3.08,6.32-5.61,10.5-5.33,4.29.29,8.41,2.36,11.27,5.56,1.65,1.85,3.02,4.13,4.33,6.24.35.56,1.66,2.1,1.61,2.82.41-6.19-2.98-11.95-7.26-15.91-4.1-3.81-8.9-7.23-11.51-12.32-3.14-6.1-2.21-12.93,1.7-18.39,1.08-1.51,4.32-4.66,6.35-6.48"/>
          <path class="cls-2" d="M135.02,322.58c1.48,1.87,7.25,7.25,9.5,16.57,5.25,21.75-4.92,31.29-16.13,38.35-3.36,2.11-6.88,4.18-9.28,7.34-5.72,7.52-6.45,18.58-.79,25.76,1.7,2.15,6.83,6.35,8.79,7.92"/>
        </g>
        <g>
          <path class="cls-2" d="M199.2,364.82c-7.73-3.39-28.53-14.45-27.56-34.88.26-5.52-.76-9.77-2.29-11.75-1.53-1.98-9.77-3.36-9.77-3.36l9.01-2.14c2.59-3.08,6.32-5.61,10.5-5.33,4.29.29,8.41,2.36,11.27,5.56,1.65,1.85,3.02,4.13,4.33,6.24.35.56,1.66,2.1,1.61,2.82.41-6.19-2.98-11.95-7.26-15.91-4.1-3.81-8.9-7.23-11.51-12.32-3.14-6.1-2.21-12.93,1.7-18.39,1.08-1.51,4.32-4.66,6.35-6.48"/>
          <path class="cls-2" d="M213.47,268.89c1.48,1.87,7.25,7.25,9.5,16.57,5.25,21.75-4.92,31.29-16.13,38.35-3.36,2.11-6.88,4.18-9.28,7.34-5.72,7.52-6.45,18.58-.79,25.76,1.7,2.15,6.83,6.35,8.79,7.92"/>
        </g>
        <g>
          <path class="cls-2" d="M277.66,418.51c-7.73-3.39-28.53-14.45-27.56-34.88.26-5.52-.76-9.77-2.29-11.75-1.53-1.98-9.77-3.36-9.77-3.36l9.01-2.14c2.59-3.08,6.32-5.61,10.5-5.33,4.29.29,8.41,2.36,11.27,5.56,1.65,1.85,3.02,4.13,4.33,6.24.35.56,1.66,2.1,1.61,2.82.41-6.19-2.98-11.95-7.26-15.91-4.1-3.81-8.9-7.23-11.51-12.32-3.14-6.1-2.21-12.93,1.7-18.39,1.08-1.51,4.32-4.66,6.35-6.48"/>
          <path class="cls-2" d="M291.92,322.58c1.48,1.87,7.25,7.25,9.5,16.57,5.25,21.75-4.92,31.29-16.13,38.35-3.36,2.11-6.88,4.18-9.28,7.34-5.72,7.52-6.45,18.58-.79,25.76,1.7,2.15,6.83,6.35,8.79,7.92"/>
        </g>
        <g>
          <path class="cls-2" d="M356.11,364.82c-7.73-3.39-28.53-14.45-27.56-34.88.26-5.52-.76-9.77-2.29-11.75-1.53-1.98-9.77-3.36-9.77-3.36l9.01-2.14c2.59-3.08,6.32-5.61,10.5-5.33,4.29.29,8.41,2.36,11.27,5.56,1.65,1.85,3.02,4.13,4.33,6.24.35.56,1.66,2.1,1.61,2.82.41-6.19-2.98-11.95-7.26-15.91-4.1-3.81-8.9-7.23-11.51-12.32-3.14-6.1-2.21-12.93,1.7-18.39,1.08-1.51,4.32-4.66,6.35-6.48"/>
          <path class="cls-2" d="M370.37,268.89c1.48,1.87,7.25,7.25,9.5,16.57,5.25,21.75-4.92,31.29-16.13,38.35-3.36,2.11-6.88,4.18-9.28,7.34-5.72,7.52-6.45,18.58-.79,25.76,1.7,2.15,6.83,6.35,8.79,7.92"/>
        </g>
        <g>
          <path class="cls-2" d="M434.56,418.51c-7.73-3.39-28.53-14.45-27.56-34.88.26-5.52-.76-9.77-2.29-11.75-1.53-1.98-9.77-3.36-9.77-3.36l9.01-2.14c2.59-3.08,6.32-5.61,10.5-5.33,4.29.29,8.41,2.36,11.27,5.56,1.65,1.85,3.02,4.13,4.33,6.24.35.56,1.66,2.1,1.61,2.82.41-6.19-2.98-11.95-7.26-15.91-4.1-3.81-8.9-7.23-11.51-12.32-3.14-6.1-2.21-12.93,1.7-18.39,1.08-1.51,4.32-4.66,6.35-6.48"/>
          <path class="cls-2" d="M448.82,322.58c1.48,1.87,7.25,7.25,9.5,16.57,5.25,21.75-4.92,31.29-16.13,38.35-3.36,2.11-6.88,4.18-9.28,7.34-5.72,7.52-6.45,18.58-.79,25.76,1.7,2.15,6.83,6.35,8.79,7.92"/>
        </g>
        <g>
          <path class="cls-2" d="M513.01,364.82c-7.73-3.39-28.53-14.45-27.56-34.88.26-5.52-.76-9.77-2.29-11.75-1.53-1.98-9.77-3.36-9.77-3.36l9.01-2.14c2.59-3.08,6.32-5.61,10.5-5.33,4.29.29,8.41,2.36,11.27,5.56,1.65,1.85,3.02,4.13,4.33,6.24.35.56,1.66,2.1,1.61,2.82.41-6.19-2.98-11.95-7.26-15.91-4.1-3.81-8.9-7.23-11.51-12.32-3.14-6.1-2.21-12.93,1.7-18.39,1.08-1.51,4.32-4.66,6.35-6.48"/>
          <path class="cls-2" d="M527.27,268.89c1.48,1.87,7.25,7.25,9.5,16.57,5.25,21.75-4.92,31.29-16.13,38.35-3.36,2.11-6.88,4.18-9.28,7.34-5.72,7.52-6.45,18.58-.79,25.76,1.7,2.15,6.83,6.35,8.79,7.92"/>
        </g>
        <g>
          <path class="cls-2" d="M591.46,418.51c-7.73-3.39-28.53-14.45-27.56-34.88.26-5.52-.76-9.77-2.29-11.75-1.53-1.98-9.77-3.36-9.77-3.36l9.01-2.14c2.59-3.08,6.32-5.61,10.5-5.33,4.29.29,8.41,2.36,11.27,5.56,1.65,1.85,3.02,4.13,4.33,6.24.35.56,1.66,2.1,1.61,2.82.41-6.19-2.98-11.95-7.26-15.91-4.1-3.81-8.9-7.23-11.51-12.32-3.14-6.1-2.21-12.93,1.7-18.39,1.08-1.51,4.32-4.66,6.35-6.48"/>
          <path class="cls-2" d="M605.73,322.58c1.48,1.87,7.25,7.25,9.5,16.57,5.25,21.75-4.92,31.29-16.13,38.35-3.36,2.11-6.88,4.18-9.28,7.34-5.72,7.52-6.45,18.58-.79,25.76,1.7,2.15,6.83,6.35,8.79,7.92"/>
        </g>
        <g>
          <path class="cls-2" d="M669.92,364.82c-7.73-3.39-28.53-14.45-27.56-34.88.26-5.52-.76-9.77-2.29-11.75-1.53-1.98-9.77-3.36-9.77-3.36l9.01-2.14c2.59-3.08,6.32-5.61,10.5-5.33,4.29.29,8.41,2.36,11.27,5.56,1.65,1.85,3.02,4.13,4.33,6.24.35.56,1.66,2.1,1.61,2.82.41-6.19-2.98-11.95-7.26-15.91-4.1-3.81-8.9-7.23-11.51-12.32-3.14-6.1-2.21-12.93,1.7-18.39,1.08-1.51,4.32-4.66,6.35-6.48"/>
          <path class="cls-2" d="M684.18,268.89c1.48,1.87,7.25,7.25,9.5,16.57,5.25,21.75-4.92,31.29-16.13,38.35-3.36,2.11-6.88,4.18-9.28,7.34-5.72,7.52-6.45,18.58-.79,25.76,1.7,2.15,6.83,6.35,8.79,7.92"/>
        </g>
        <path class="cls-2" d="M748.37,418.51c-7.73-3.39-28.53-14.45-27.56-34.88.26-5.52-.76-9.77-2.29-11.75-1.53-1.98-9.77-3.36-9.77-3.36l9.01-2.14c2.59-3.08,6.32-5.61,10.5-5.33,4.29.29,8.41,2.36,11.27,5.56,1.65,1.85,3.02,4.13,4.33,6.24.35.56,1.66,2.1,1.61,2.82.41-6.19-2.98-11.95-7.26-15.91-4.1-3.81-8.9-7.23-11.51-12.32-3.14-6.1-2.21-12.93,1.7-18.39,1.08-1.51,4.32-4.66,6.35-6.48"/>
        <g>
          <path class="cls-2" d="M25.84,472.21c7.73-3.39,28.53-14.45,27.56-34.88-.26-5.52.76-9.77,2.29-11.75,1.53-1.98,9.77-3.36,9.77-3.36l-9.01-2.14c-2.59-3.08-6.32-5.61-10.5-5.33-4.29.29-8.41,2.36-11.27,5.56-1.65,1.85-3.02,4.13-4.33,6.24-.35.56-1.66,2.1-1.61,2.82-.41-6.19,2.98-11.95,7.26-15.91,4.1-3.81,8.9-7.23,11.51-12.32,3.14-6.1,2.21-12.93-1.7-18.39-1.08-1.51-4.32-4.66-6.35-6.48"/>
          <path class="cls-2" d="M11.58,376.27c-1.48,1.87-7.25,7.25-9.5,16.57-5.25,21.75,4.92,31.29,16.13,38.35,3.36,2.11,6.88,4.18,9.28,7.34,5.72,7.52,6.45,18.58.79,25.76-1.7,2.15-6.83,6.35-8.79,7.92"/>
        </g>
        <g>
          <path class="cls-2" d="M182.75,472.21c7.73-3.39,28.53-14.45,27.56-34.88-.26-5.52.76-9.77,2.29-11.75,1.53-1.98,9.77-3.36,9.77-3.36l-9.01-2.14c-2.59-3.08-6.32-5.61-10.5-5.33-4.29.29-8.41,2.36-11.27,5.56-1.65,1.85-3.02,4.13-4.33,6.24-.35.56-1.66,2.1-1.61,2.82-.41-6.19,2.98-11.95,7.26-15.91,4.1-3.81,8.9-7.23,11.51-12.32,3.14-6.1,2.21-12.93-1.7-18.39-1.08-1.51-4.32-4.66-6.35-6.48"/>
          <path class="cls-2" d="M168.48,376.27c-1.48,1.87-7.25,7.25-9.5,16.57-5.25,21.75,4.92,31.29,16.13,38.35,3.36,2.11,6.88,4.18,9.28,7.34,5.72,7.52,6.45,18.58.79,25.76-1.7,2.15-6.83,6.35-8.79,7.92"/>
        </g>
        <g>
          <path class="cls-2" d="M339.65,472.21c7.73-3.39,28.53-14.45,27.56-34.88-.26-5.52.76-9.77,2.29-11.75,1.53-1.98,9.77-3.36,9.77-3.36l-9.01-2.14c-2.59-3.08-6.32-5.61-10.5-5.33-4.29.29-8.41,2.36-11.27,5.56-1.65,1.85-3.02,4.13-4.33,6.24-.35.56-1.66,2.1-1.61,2.82-.41-6.19,2.98-11.95,7.26-15.91,4.1-3.81,8.9-7.23,11.51-12.32,3.14-6.1,2.21-12.93-1.7-18.39-1.08-1.51-4.32-4.66-6.35-6.48"/>
          <path class="cls-2" d="M325.39,376.27c-1.48,1.87-7.25,7.25-9.5,16.57-5.25,21.75,4.92,31.29,16.13,38.35,3.36,2.11,6.88,4.18,9.28,7.34,5.72,7.52,6.45,18.58.79,25.76-1.7,2.15-6.83,6.35-8.79,7.92"/>
        </g>
        <g>
          <path class="cls-2" d="M496.55,472.21c7.73-3.39,28.53-14.45,27.56-34.88-.26-5.52.76-9.77,2.29-11.75,1.53-1.98,9.77-3.36,9.77-3.36l-9.01-2.14c-2.59-3.08-6.32-5.61-10.5-5.33-4.29.29-8.41,2.36-11.27,5.56-1.65,1.85-3.02,4.13-4.33,6.24-.35.56-1.66,2.1-1.61,2.82-.41-6.19,2.98-11.95,7.26-15.91,4.1-3.81,8.9-7.23,11.51-12.32,3.14-6.1,2.21-12.93-1.7-18.39-1.08-1.51-4.32-4.66-6.35-6.48"/>
          <path class="cls-2" d="M482.29,376.27c-1.48,1.87-7.25,7.25-9.5,16.57-5.25,21.75,4.92,31.29,16.13,38.35,3.36,2.11,6.88,4.18,9.28,7.34,5.72,7.52,6.45,18.58.79,25.76-1.7,2.15-6.83,6.35-8.79,7.92"/>
        </g>
        <g>
          <path class="cls-2" d="M653.46,472.21c7.73-3.39,28.53-14.45,27.56-34.88-.26-5.52.76-9.77,2.29-11.75,1.53-1.98,9.77-3.36,9.77-3.36l-9.01-2.14c-2.59-3.08-6.32-5.61-10.5-5.33-4.29.29-8.41,2.36-11.27,5.56-1.65,1.85-3.02,4.13-4.33,6.24-.35.56-1.66,2.1-1.61,2.82-.41-6.19,2.98-11.95,7.26-15.91,4.1-3.81,8.9-7.23,11.51-12.32,3.14-6.1,2.21-12.93-1.7-18.39-1.08-1.51-4.32-4.66-6.35-6.48"/>
          <path class="cls-2" d="M639.19,376.27c-1.48,1.87-7.25,7.25-9.5,16.57-5.25,21.75,4.92,31.29,16.13,38.35,3.36,2.11,6.88,4.18,9.28,7.34,5.72,7.52,6.45,18.58.79,25.76-1.7,2.15-6.83,6.35-8.79,7.92"/>
        </g>
      </g>
    </g>
  </g>
</svg>